%
M48
M72
T01C0.01500
T02C0.03150
T03C0.03937
T04C0.04000
T05C0.12000
%
T01
X42500Y48860
X31500Y52360
X24000Y65860
X24000Y72860
X52500Y91860
X68500Y82860
X78500Y82860
X87000Y66360
X84500Y50360
X90500Y43360
X73500Y47360
X112500Y73360
X115000Y68360
X122500Y66360
X138500Y55360
X156000Y58360
X170000Y61360
X159000Y76360
X140500Y74860
X159000Y94360
X156000Y106360
X141000Y105360
X117500Y126860
X108000Y123360
X89500Y126860
X69000Y126860
X52500Y127860
X35500Y137860
X12000Y120360
X10000Y109360
X79500Y102860
X112000Y98860
X112000Y90360
X149500Y130860
X120500Y30360
X121000Y12360
X150500Y21360
T02
X171313Y20093
X171313Y12219
X169313Y73112
X169313Y80986
X169313Y88860
X169313Y96734
X169313Y104608
X60142Y15673
X52268Y15673
X27232Y161547
X19358Y161547
T03
X82839Y23297
X100161Y23297
T04
X10700Y12960
X10700Y30760
X10700Y43460
X10700Y61260
X36300Y61260
X36300Y43460
X36300Y30760
X36300Y12960
X148700Y120460
X148700Y138260
X174300Y138260
X174300Y120460
X172000Y51860
X172000Y41860
X172000Y31860
T05
X169500Y158360
M30
