G75*
%MOIN*%
%OFA0B0*%
%FSLAX25Y25*%
%IPPOS*%
%LPD*%
%AMOC8*
5,1,8,0,0,1.08239X$1,22.5*
%
%ADD10R,0.03937X0.04331*%
%ADD11R,0.07874X0.09449*%
%ADD12R,0.01969X0.09087*%
%ADD13R,0.07098X0.06299*%
%ADD14R,0.03150X0.03543*%
%ADD15R,0.05118X0.05906*%
%ADD16R,0.05906X0.05118*%
%ADD17R,0.04331X0.08661*%
%ADD18R,0.13780X0.07874*%
%ADD19R,0.02165X0.04724*%
%ADD20R,0.05906X0.03543*%
%ADD21R,0.03543X0.05906*%
%ADD22R,0.23622X0.23622*%
D10*
X0120500Y0018014D03*
X0120500Y0024707D03*
X0128500Y0024707D03*
X0128500Y0018014D03*
D11*
X0108823Y0011486D03*
X0108823Y0033140D03*
X0074177Y0033140D03*
X0074177Y0011486D03*
D12*
X0085201Y0035360D03*
X0088350Y0035360D03*
X0091500Y0035360D03*
X0094650Y0035360D03*
X0097799Y0035360D03*
D13*
X0133000Y0038762D03*
X0133000Y0049959D03*
X0022500Y0079762D03*
X0022500Y0090959D03*
X0022500Y0102262D03*
X0022500Y0113459D03*
X0022500Y0124762D03*
X0022500Y0135959D03*
D14*
X0057000Y0052191D03*
X0053260Y0043923D03*
X0060740Y0043923D03*
D15*
X0053760Y0035360D03*
X0061240Y0035360D03*
X0043740Y0079860D03*
X0036260Y0079860D03*
X0036260Y0102360D03*
X0043740Y0102360D03*
X0042740Y0124360D03*
X0035260Y0124360D03*
D16*
X0122500Y0048600D03*
X0122500Y0041120D03*
X0160500Y0045120D03*
X0160500Y0052600D03*
D17*
X0156358Y0012423D03*
X0150453Y0012423D03*
X0144547Y0012423D03*
X0138642Y0012423D03*
D18*
X0147500Y0033683D03*
D19*
X0143760Y0043742D03*
X0151240Y0043742D03*
X0151240Y0053979D03*
X0147500Y0053979D03*
X0143760Y0053979D03*
D20*
X0130933Y0063175D03*
X0130933Y0068175D03*
X0130933Y0073175D03*
X0130933Y0078175D03*
X0130933Y0083175D03*
X0130933Y0088175D03*
X0130933Y0093175D03*
X0130933Y0098175D03*
X0130933Y0103175D03*
X0130933Y0108175D03*
X0130933Y0113175D03*
X0130933Y0118175D03*
X0130933Y0123175D03*
X0130933Y0128175D03*
X0060067Y0128175D03*
X0060067Y0123175D03*
X0060067Y0118175D03*
X0060067Y0113175D03*
X0060067Y0108175D03*
X0060067Y0103175D03*
X0060067Y0098175D03*
X0060067Y0093175D03*
X0060067Y0088175D03*
X0060067Y0083175D03*
X0060067Y0078175D03*
X0060067Y0073175D03*
X0060067Y0068175D03*
X0060067Y0063175D03*
D21*
X0073000Y0057309D03*
X0078000Y0057309D03*
X0083000Y0057309D03*
X0088000Y0057309D03*
X0093000Y0057309D03*
X0098000Y0057309D03*
X0103000Y0057309D03*
X0108000Y0057309D03*
X0113000Y0057309D03*
X0118000Y0057309D03*
D22*
X0095500Y0097860D03*
M02*
