G75*
%MOIN*%
%OFA0B0*%
%FSLAX25Y25*%
%IPPOS*%
%LPD*%
%AMOC8*
5,1,8,0,0,1.08239X$1,22.5*
%
%ADD10C,0.12800*%
%ADD11C,0.05950*%
%ADD12R,0.04737X0.05131*%
%ADD13R,0.05131X0.04737*%
%ADD14C,0.04737*%
%ADD15R,0.04737X0.06312*%
%ADD16R,0.05918X0.06706*%
%ADD17R,0.06706X0.05918*%
%ADD18C,0.08200*%
%ADD19C,0.06800*%
%ADD20C,0.01800*%
%ADD21R,0.11100X0.11100*%
%ADD22R,0.05918X0.03359*%
%ADD23R,0.03556X0.02178*%
%ADD24C,0.03900*%
D10*
X0169500Y0158360D03*
D11*
X0171888Y0104608D02*
X0166738Y0104608D01*
X0166738Y0096734D02*
X0171888Y0096734D01*
X0171888Y0088860D02*
X0166738Y0088860D01*
X0166738Y0080986D02*
X0171888Y0080986D01*
X0171888Y0073112D02*
X0166738Y0073112D01*
X0168738Y0020093D02*
X0173888Y0020093D01*
X0173888Y0012219D02*
X0168738Y0012219D01*
X0060142Y0013098D02*
X0060142Y0018248D01*
X0052268Y0018248D02*
X0052268Y0013098D01*
X0027232Y0158972D02*
X0027232Y0164122D01*
X0019358Y0164122D02*
X0019358Y0158972D01*
D12*
X0049500Y0117207D03*
X0049500Y0110514D03*
X0162000Y0125514D03*
X0162000Y0132207D03*
D13*
X0131846Y0072360D03*
X0125154Y0072360D03*
X0076846Y0064360D03*
X0070154Y0064360D03*
X0069154Y0088360D03*
X0075846Y0088360D03*
X0075846Y0098360D03*
X0069154Y0098360D03*
X0069154Y0108360D03*
X0075846Y0108360D03*
X0075846Y0120360D03*
X0069154Y0120360D03*
X0044346Y0127360D03*
X0037654Y0127360D03*
X0019346Y0148360D03*
X0012654Y0148360D03*
D14*
X0082839Y0023297D03*
X0100161Y0023297D03*
D15*
X0148000Y0077030D03*
X0144260Y0085691D03*
X0151740Y0085691D03*
X0151740Y0095030D03*
X0144260Y0095030D03*
X0148000Y0103691D03*
D16*
X0132240Y0093360D03*
X0124760Y0093360D03*
X0124760Y0083360D03*
X0132240Y0083360D03*
X0112740Y0083360D03*
X0105260Y0083360D03*
X0095240Y0083360D03*
X0087760Y0083360D03*
X0077240Y0073860D03*
X0069760Y0073860D03*
X0032740Y0091860D03*
X0025260Y0091860D03*
X0020240Y0127360D03*
X0012760Y0127360D03*
X0012760Y0137860D03*
X0020240Y0137860D03*
X0034260Y0148360D03*
X0041740Y0148360D03*
X0117260Y0118360D03*
X0124740Y0118360D03*
X0124740Y0108360D03*
X0117260Y0108360D03*
X0144260Y0067860D03*
X0151740Y0067860D03*
D17*
X0023500Y0056100D03*
X0023500Y0048620D03*
X0023500Y0025600D03*
X0023500Y0018120D03*
D18*
X0010700Y0012960D03*
X0010700Y0030760D03*
X0010700Y0043460D03*
X0010700Y0061260D03*
X0036300Y0061260D03*
X0036300Y0043460D03*
X0036300Y0030760D03*
X0036300Y0012960D03*
X0148700Y0120460D03*
X0148700Y0138260D03*
X0174300Y0138260D03*
X0174300Y0120460D03*
D19*
X0175000Y0051860D02*
X0169000Y0051860D01*
X0169000Y0041860D02*
X0175000Y0041860D01*
X0175000Y0031860D02*
X0169000Y0031860D01*
D20*
X0101487Y0097507D02*
X0101487Y0100507D01*
X0099500Y0100507D02*
X0099500Y0097507D01*
X0097514Y0097507D02*
X0097514Y0100507D01*
X0095407Y0100507D02*
X0095407Y0097507D01*
X0093431Y0097507D02*
X0093431Y0100507D01*
X0091434Y0100507D02*
X0091434Y0097507D01*
X0089787Y0102255D02*
X0086787Y0102255D01*
X0086787Y0104242D02*
X0089787Y0104242D01*
X0089787Y0106228D02*
X0086787Y0106228D01*
X0086787Y0108335D02*
X0089787Y0108335D01*
X0089787Y0110311D02*
X0086787Y0110311D01*
X0086787Y0112308D02*
X0089787Y0112308D01*
X0091434Y0114056D02*
X0091434Y0117056D01*
X0093431Y0117056D02*
X0093431Y0114056D01*
X0095407Y0114056D02*
X0095407Y0117056D01*
X0097514Y0117056D02*
X0097514Y0114056D01*
X0099500Y0114056D02*
X0099500Y0117056D01*
X0101487Y0117056D02*
X0101487Y0114056D01*
X0103135Y0112308D02*
X0106135Y0112308D01*
X0106135Y0110311D02*
X0103135Y0110311D01*
X0103135Y0108335D02*
X0106135Y0108335D01*
X0106135Y0106228D02*
X0103135Y0106228D01*
X0103135Y0104242D02*
X0106135Y0104242D01*
X0106135Y0102255D02*
X0103135Y0102255D01*
D21*
X0096421Y0107321D03*
D22*
X0038862Y0106703D03*
X0038862Y0101703D03*
X0038862Y0111703D03*
X0038862Y0116703D03*
X0018587Y0116880D03*
X0018587Y0111703D03*
X0018587Y0106703D03*
X0018587Y0101703D03*
D23*
X0096965Y0070199D03*
X0096965Y0067640D03*
X0096965Y0065081D03*
X0096965Y0062522D03*
X0105035Y0062522D03*
X0105035Y0065081D03*
X0105035Y0067640D03*
X0105035Y0070199D03*
D24*
X0112500Y0073360D03*
X0115000Y0068360D03*
X0122500Y0066360D03*
X0138500Y0055360D03*
X0156000Y0058360D03*
X0170000Y0061360D03*
X0159000Y0076360D03*
X0140500Y0074860D03*
X0159000Y0094360D03*
X0156000Y0106360D03*
X0141000Y0105360D03*
X0117500Y0126860D03*
X0108000Y0123360D03*
X0089500Y0126860D03*
X0069000Y0126860D03*
X0052500Y0127860D03*
X0035500Y0137860D03*
X0012000Y0120360D03*
X0010000Y0109360D03*
X0052500Y0091860D03*
X0068500Y0082860D03*
X0078500Y0082860D03*
X0087000Y0066360D03*
X0084500Y0050360D03*
X0090500Y0043360D03*
X0073500Y0047360D03*
X0042500Y0048860D03*
X0031500Y0052360D03*
X0024000Y0065860D03*
X0024000Y0072860D03*
X0079500Y0102860D03*
X0112000Y0098860D03*
X0112000Y0090360D03*
X0149500Y0130860D03*
X0120500Y0030360D03*
X0121000Y0012360D03*
X0150500Y0021360D03*
M02*
