G75*
%MOIN*%
%OFA0B0*%
%FSLAX25Y25*%
%IPPOS*%
%LPD*%
%AMOC8*
5,1,8,0,0,1.08239X$1,22.5*
%
%ADD10C,0.05150*%
%ADD11R,0.03937X0.04331*%
%ADD12R,0.04331X0.03937*%
%ADD13R,0.03937X0.05512*%
%ADD14R,0.05118X0.05906*%
%ADD15R,0.05906X0.05118*%
%ADD16C,0.07400*%
%ADD17C,0.06000*%
%ADD18C,0.01000*%
%ADD19R,0.10300X0.10300*%
%ADD20R,0.05118X0.02559*%
%ADD21R,0.02756X0.01378*%
%ADD22C,0.03100*%
D10*
X0052268Y0013098D02*
X0052268Y0018248D01*
X0060142Y0018248D02*
X0060142Y0013098D01*
X0166738Y0073112D02*
X0171888Y0073112D01*
X0171888Y0080986D02*
X0166738Y0080986D01*
X0166738Y0088860D02*
X0171888Y0088860D01*
X0171888Y0096734D02*
X0166738Y0096734D01*
X0166738Y0104608D02*
X0171888Y0104608D01*
X0173888Y0020093D02*
X0168738Y0020093D01*
X0168738Y0012219D02*
X0173888Y0012219D01*
X0027232Y0158972D02*
X0027232Y0164122D01*
X0019358Y0164122D02*
X0019358Y0158972D01*
D11*
X0049500Y0117207D03*
X0049500Y0110514D03*
X0162000Y0125514D03*
X0162000Y0132207D03*
D12*
X0131846Y0072360D03*
X0125154Y0072360D03*
X0076846Y0064360D03*
X0070154Y0064360D03*
X0069154Y0088360D03*
X0075846Y0088360D03*
X0075846Y0098360D03*
X0069154Y0098360D03*
X0069154Y0108360D03*
X0075846Y0108360D03*
X0075846Y0120360D03*
X0069154Y0120360D03*
X0044346Y0127360D03*
X0037654Y0127360D03*
X0019346Y0148360D03*
X0012654Y0148360D03*
D13*
X0144260Y0095030D03*
X0151740Y0095030D03*
X0148000Y0103691D03*
X0144260Y0085691D03*
X0151740Y0085691D03*
X0148000Y0077030D03*
D14*
X0144260Y0067860D03*
X0151740Y0067860D03*
X0132240Y0083360D03*
X0124760Y0083360D03*
X0124760Y0093360D03*
X0132240Y0093360D03*
X0124740Y0108360D03*
X0117260Y0108360D03*
X0117260Y0118360D03*
X0124740Y0118360D03*
X0112740Y0083360D03*
X0105260Y0083360D03*
X0095240Y0083360D03*
X0087760Y0083360D03*
X0077240Y0073860D03*
X0069760Y0073860D03*
X0032740Y0091860D03*
X0025260Y0091860D03*
X0020240Y0127360D03*
X0012760Y0127360D03*
X0012760Y0137860D03*
X0020240Y0137860D03*
X0034260Y0148360D03*
X0041740Y0148360D03*
D15*
X0023500Y0056100D03*
X0023500Y0048620D03*
X0023500Y0025600D03*
X0023500Y0018120D03*
D16*
X0010700Y0012960D03*
X0010700Y0030760D03*
X0010700Y0043460D03*
X0010700Y0061260D03*
X0036300Y0061260D03*
X0036300Y0043460D03*
X0036300Y0030760D03*
X0036300Y0012960D03*
X0148700Y0120460D03*
X0148700Y0138260D03*
X0174300Y0138260D03*
X0174300Y0120460D03*
D17*
X0175000Y0051860D02*
X0169000Y0051860D01*
X0169000Y0041860D02*
X0175000Y0041860D01*
X0175000Y0031860D02*
X0169000Y0031860D01*
D18*
X0006000Y0011764D02*
X0006000Y0007860D01*
X0177500Y0007860D01*
X0177500Y0010332D01*
X0177373Y0010083D01*
X0176996Y0009564D01*
X0176542Y0009110D01*
X0176023Y0008733D01*
X0175452Y0008442D01*
X0174842Y0008244D01*
X0174208Y0008144D01*
X0171600Y0008144D01*
X0171600Y0011931D01*
X0171026Y0011931D01*
X0171026Y0008144D01*
X0168417Y0008144D01*
X0167784Y0008244D01*
X0167174Y0008442D01*
X0166603Y0008733D01*
X0166084Y0009110D01*
X0165630Y0009564D01*
X0165253Y0010083D01*
X0164962Y0010654D01*
X0164764Y0011264D01*
X0164663Y0011898D01*
X0164663Y0011931D01*
X0171026Y0011931D01*
X0171026Y0012506D01*
X0171026Y0016293D01*
X0168417Y0016293D01*
X0167784Y0016193D01*
X0167174Y0015995D01*
X0166603Y0015704D01*
X0166084Y0015327D01*
X0165630Y0014873D01*
X0165253Y0014354D01*
X0164962Y0013783D01*
X0164764Y0013173D01*
X0164663Y0012539D01*
X0164663Y0012506D01*
X0171026Y0012506D01*
X0171600Y0012506D01*
X0171600Y0016293D01*
X0174208Y0016293D01*
X0174842Y0016193D01*
X0175452Y0015995D01*
X0176023Y0015704D01*
X0176542Y0015327D01*
X0176996Y0014873D01*
X0177373Y0014354D01*
X0177500Y0014105D01*
X0177500Y0019210D01*
X0177003Y0018011D01*
X0175969Y0016977D01*
X0174619Y0016418D01*
X0168007Y0016418D01*
X0166657Y0016977D01*
X0165623Y0018011D01*
X0165063Y0019362D01*
X0165063Y0020823D01*
X0165623Y0022174D01*
X0166657Y0023208D01*
X0168007Y0023767D01*
X0174619Y0023767D01*
X0175969Y0023208D01*
X0177003Y0022174D01*
X0177500Y0020975D01*
X0177500Y0028562D01*
X0177322Y0028384D01*
X0175816Y0027760D01*
X0168184Y0027760D01*
X0166678Y0028384D01*
X0165524Y0029538D01*
X0165225Y0030260D01*
X0150363Y0030260D01*
X0150600Y0030023D01*
X0152100Y0028523D01*
X0152100Y0023508D01*
X0152747Y0022861D01*
X0153150Y0021887D01*
X0153150Y0020833D01*
X0152747Y0019859D01*
X0152001Y0019114D01*
X0151027Y0018710D01*
X0149973Y0018710D01*
X0148999Y0019114D01*
X0148253Y0019859D01*
X0147850Y0020833D01*
X0147850Y0021887D01*
X0148253Y0022861D01*
X0148900Y0023508D01*
X0148900Y0027197D01*
X0148337Y0027760D01*
X0121148Y0027760D01*
X0121027Y0027710D01*
X0119973Y0027710D01*
X0118999Y0028114D01*
X0118253Y0028859D01*
X0117850Y0029833D01*
X0117850Y0030887D01*
X0118253Y0031861D01*
X0118900Y0032508D01*
X0118900Y0035197D01*
X0116837Y0037260D01*
X0071337Y0037260D01*
X0070400Y0038197D01*
X0070400Y0038198D01*
X0067837Y0040760D01*
X0067837Y0040760D01*
X0066900Y0041697D01*
X0066900Y0057023D01*
X0067837Y0057960D01*
X0070337Y0060460D01*
X0074837Y0060460D01*
X0075400Y0061023D01*
X0075400Y0061292D01*
X0074225Y0061292D01*
X0073712Y0061805D01*
X0073519Y0061471D01*
X0073240Y0061191D01*
X0072898Y0060994D01*
X0072516Y0060892D01*
X0070638Y0060892D01*
X0070638Y0063876D01*
X0069669Y0063876D01*
X0066488Y0063876D01*
X0066488Y0062194D01*
X0066590Y0061813D01*
X0066788Y0061471D01*
X0067067Y0061191D01*
X0067409Y0060994D01*
X0067791Y0060892D01*
X0069669Y0060892D01*
X0069669Y0063876D01*
X0069669Y0064844D01*
X0066488Y0064844D01*
X0066488Y0066526D01*
X0066590Y0066908D01*
X0066788Y0067250D01*
X0067067Y0067529D01*
X0067409Y0067727D01*
X0067791Y0067829D01*
X0069269Y0067829D01*
X0068400Y0068697D01*
X0068400Y0069807D01*
X0066745Y0069807D01*
X0066101Y0070452D01*
X0066101Y0077269D01*
X0066745Y0077913D01*
X0072775Y0077913D01*
X0073419Y0077269D01*
X0073419Y0070452D01*
X0072927Y0069960D01*
X0074073Y0069960D01*
X0073581Y0070452D01*
X0073581Y0077269D01*
X0074225Y0077913D01*
X0080255Y0077913D01*
X0080899Y0077269D01*
X0080899Y0074960D01*
X0093163Y0074960D01*
X0094100Y0074023D01*
X0096135Y0071988D01*
X0098798Y0071988D01*
X0099443Y0071343D01*
X0099443Y0069240D01*
X0100383Y0069240D01*
X0101320Y0068302D01*
X0101320Y0068302D01*
X0101663Y0067960D01*
X0101663Y0067960D01*
X0102557Y0067065D01*
X0102557Y0068784D01*
X0102692Y0068919D01*
X0102557Y0069054D01*
X0102557Y0071343D01*
X0103202Y0071988D01*
X0106869Y0071988D01*
X0107058Y0071799D01*
X0110176Y0071799D01*
X0110248Y0071871D01*
X0109850Y0072833D01*
X0109850Y0073887D01*
X0110253Y0074861D01*
X0110999Y0075607D01*
X0111973Y0076010D01*
X0113027Y0076010D01*
X0114001Y0075607D01*
X0114747Y0074861D01*
X0115150Y0073887D01*
X0115150Y0072833D01*
X0114747Y0071859D01*
X0114100Y0071213D01*
X0114100Y0071197D01*
X0113517Y0070614D01*
X0114473Y0071010D01*
X0115527Y0071010D01*
X0116501Y0070607D01*
X0117247Y0069861D01*
X0117400Y0069491D01*
X0117400Y0081697D01*
X0117337Y0081760D01*
X0116399Y0081760D01*
X0116399Y0079952D01*
X0115755Y0079307D01*
X0109725Y0079307D01*
X0109081Y0079952D01*
X0109081Y0086769D01*
X0109725Y0087413D01*
X0115755Y0087413D01*
X0116399Y0086769D01*
X0116399Y0084960D01*
X0118637Y0084960D01*
X0118337Y0085260D01*
X0117400Y0086197D01*
X0117400Y0101498D01*
X0117100Y0101197D01*
X0117100Y0096940D01*
X0117153Y0096875D01*
X0117100Y0096288D01*
X0117100Y0095697D01*
X0117041Y0095638D01*
X0117033Y0095555D01*
X0116580Y0095178D01*
X0116163Y0094760D01*
X0116079Y0094760D01*
X0113580Y0092678D01*
X0113163Y0092260D01*
X0113079Y0092260D01*
X0113015Y0092207D01*
X0112427Y0092260D01*
X0102089Y0092260D01*
X0101518Y0092197D01*
X0101439Y0092260D01*
X0101337Y0092260D01*
X0100931Y0092666D01*
X0098939Y0094260D01*
X0098838Y0094260D01*
X0098432Y0094666D01*
X0097983Y0095024D01*
X0097972Y0095125D01*
X0097900Y0095197D01*
X0097900Y0095771D01*
X0097885Y0095907D01*
X0097007Y0095907D01*
X0097007Y0093105D01*
X0095600Y0091697D01*
X0094663Y0090760D01*
X0084663Y0090760D01*
X0081600Y0087697D01*
X0080663Y0086760D01*
X0079112Y0086760D01*
X0079112Y0085936D01*
X0078686Y0085510D01*
X0079027Y0085510D01*
X0080001Y0085107D01*
X0080648Y0084460D01*
X0084101Y0084460D01*
X0084101Y0086769D01*
X0084745Y0087413D01*
X0090775Y0087413D01*
X0091288Y0086900D01*
X0091481Y0087234D01*
X0091760Y0087513D01*
X0092102Y0087711D01*
X0092484Y0087813D01*
X0094740Y0087813D01*
X0094740Y0083860D01*
X0095740Y0083860D01*
X0099299Y0083860D01*
X0099299Y0086510D01*
X0099197Y0086892D01*
X0098999Y0087234D01*
X0098720Y0087513D01*
X0098378Y0087711D01*
X0097997Y0087813D01*
X0095740Y0087813D01*
X0095740Y0083860D01*
X0095740Y0082860D01*
X0095740Y0078907D01*
X0097997Y0078907D01*
X0098378Y0079010D01*
X0098720Y0079207D01*
X0098999Y0079486D01*
X0099197Y0079828D01*
X0099299Y0080210D01*
X0099299Y0082860D01*
X0095740Y0082860D01*
X0094740Y0082860D01*
X0094740Y0078907D01*
X0092484Y0078907D01*
X0092102Y0079010D01*
X0091760Y0079207D01*
X0091481Y0079486D01*
X0091288Y0079821D01*
X0090775Y0079307D01*
X0089815Y0079307D01*
X0090663Y0078460D01*
X0101337Y0078460D01*
X0102215Y0079338D01*
X0101601Y0079952D01*
X0101601Y0086769D01*
X0102245Y0087413D01*
X0108275Y0087413D01*
X0108919Y0086769D01*
X0108919Y0079952D01*
X0108275Y0079307D01*
X0105600Y0079307D01*
X0105600Y0078197D01*
X0104663Y0077260D01*
X0102663Y0075260D01*
X0089337Y0075260D01*
X0088400Y0076197D01*
X0086160Y0078438D01*
X0086160Y0079307D01*
X0084745Y0079307D01*
X0084101Y0079952D01*
X0084101Y0081260D01*
X0080648Y0081260D01*
X0080001Y0080614D01*
X0079027Y0080210D01*
X0077973Y0080210D01*
X0076999Y0080614D01*
X0076253Y0081359D01*
X0075850Y0082333D01*
X0075850Y0083387D01*
X0076253Y0084361D01*
X0076999Y0085107D01*
X0077445Y0085292D01*
X0073225Y0085292D01*
X0072712Y0085805D01*
X0072519Y0085471D01*
X0072240Y0085191D01*
X0071898Y0084994D01*
X0071516Y0084892D01*
X0070216Y0084892D01*
X0070747Y0084361D01*
X0071150Y0083387D01*
X0071150Y0082333D01*
X0070747Y0081359D01*
X0070001Y0080614D01*
X0069027Y0080210D01*
X0067973Y0080210D01*
X0066999Y0080614D01*
X0066352Y0081260D01*
X0058663Y0081260D01*
X0057100Y0079697D01*
X0057100Y0064197D01*
X0051600Y0058697D01*
X0050663Y0057760D01*
X0044663Y0057760D01*
X0044100Y0057197D01*
X0044100Y0051008D01*
X0044747Y0050361D01*
X0045150Y0049387D01*
X0045150Y0048333D01*
X0044747Y0047359D01*
X0044001Y0046614D01*
X0043027Y0046210D01*
X0041973Y0046210D01*
X0040999Y0046614D01*
X0040253Y0047359D01*
X0039850Y0048333D01*
X0039850Y0049387D01*
X0040253Y0050361D01*
X0040900Y0051008D01*
X0040900Y0058523D01*
X0041837Y0059460D01*
X0042637Y0060260D01*
X0041081Y0060260D01*
X0040369Y0058541D01*
X0039019Y0057191D01*
X0037255Y0056460D01*
X0035345Y0056460D01*
X0033581Y0057191D01*
X0032231Y0058541D01*
X0031767Y0059660D01*
X0027008Y0059660D01*
X0027553Y0059115D01*
X0027553Y0053086D01*
X0027039Y0052572D01*
X0027374Y0052379D01*
X0027653Y0052100D01*
X0027851Y0051758D01*
X0027953Y0051377D01*
X0027953Y0049120D01*
X0024000Y0049120D01*
X0024000Y0048120D01*
X0024000Y0044561D01*
X0026650Y0044561D01*
X0027032Y0044663D01*
X0027374Y0044861D01*
X0027653Y0045140D01*
X0027851Y0045482D01*
X0027953Y0045864D01*
X0027953Y0048120D01*
X0024000Y0048120D01*
X0023000Y0048120D01*
X0023000Y0044561D01*
X0020350Y0044561D01*
X0019968Y0044663D01*
X0019626Y0044861D01*
X0019347Y0045140D01*
X0019149Y0045482D01*
X0019047Y0045864D01*
X0019047Y0048120D01*
X0023000Y0048120D01*
X0023000Y0049120D01*
X0019047Y0049120D01*
X0019047Y0051377D01*
X0019149Y0051758D01*
X0019347Y0052100D01*
X0019626Y0052379D01*
X0019961Y0052572D01*
X0019447Y0053086D01*
X0019447Y0059115D01*
X0019992Y0059660D01*
X0015233Y0059660D01*
X0014769Y0058541D01*
X0013419Y0057191D01*
X0011655Y0056460D01*
X0009745Y0056460D01*
X0007981Y0057191D01*
X0006631Y0058541D01*
X0006000Y0060064D01*
X0006000Y0044656D01*
X0006631Y0046179D01*
X0007981Y0047529D01*
X0009745Y0048260D01*
X0011655Y0048260D01*
X0013419Y0047529D01*
X0014769Y0046179D01*
X0015241Y0045040D01*
X0015336Y0045059D01*
X0015484Y0044960D01*
X0015663Y0044960D01*
X0016019Y0044604D01*
X0016984Y0043960D01*
X0017163Y0043960D01*
X0017519Y0043604D01*
X0017939Y0043324D01*
X0017974Y0043149D01*
X0018100Y0043023D01*
X0018100Y0042519D01*
X0018199Y0042024D01*
X0018100Y0041876D01*
X0018100Y0016197D01*
X0015500Y0013597D01*
X0015500Y0012005D01*
X0014769Y0010241D01*
X0013419Y0008891D01*
X0011655Y0008160D01*
X0009745Y0008160D01*
X0007981Y0008891D01*
X0006631Y0010241D01*
X0006000Y0011764D01*
X0006000Y0011348D02*
X0006172Y0011348D01*
X0006000Y0010350D02*
X0006586Y0010350D01*
X0006000Y0009351D02*
X0007521Y0009351D01*
X0006000Y0008353D02*
X0009280Y0008353D01*
X0012120Y0008353D02*
X0034880Y0008353D01*
X0035345Y0008160D02*
X0037255Y0008160D01*
X0039019Y0008891D01*
X0040369Y0010241D01*
X0041100Y0012005D01*
X0041100Y0013915D01*
X0040369Y0015679D01*
X0039019Y0017029D01*
X0037255Y0017760D01*
X0035345Y0017760D01*
X0033581Y0017029D01*
X0032231Y0015679D01*
X0031500Y0013915D01*
X0031500Y0012005D01*
X0032231Y0010241D01*
X0033581Y0008891D01*
X0035345Y0008160D01*
X0037720Y0008353D02*
X0167449Y0008353D01*
X0165843Y0009351D02*
X0053889Y0009351D01*
X0053832Y0009322D02*
X0054403Y0009613D01*
X0054922Y0009990D01*
X0055376Y0010444D01*
X0055753Y0010963D01*
X0056044Y0011534D01*
X0056242Y0012144D01*
X0056343Y0012778D01*
X0056343Y0015386D01*
X0052555Y0015386D01*
X0052555Y0015961D01*
X0051980Y0015961D01*
X0051980Y0022323D01*
X0051947Y0022323D01*
X0051314Y0022222D01*
X0050704Y0022024D01*
X0050132Y0021733D01*
X0049613Y0021356D01*
X0049160Y0020903D01*
X0048783Y0020384D01*
X0048491Y0019812D01*
X0048293Y0019202D01*
X0048193Y0018569D01*
X0048193Y0015961D01*
X0051980Y0015961D01*
X0051980Y0015386D01*
X0048193Y0015386D01*
X0048193Y0012778D01*
X0048293Y0012144D01*
X0048491Y0011534D01*
X0048783Y0010963D01*
X0049160Y0010444D01*
X0049613Y0009990D01*
X0050132Y0009613D01*
X0050704Y0009322D01*
X0051314Y0009124D01*
X0051947Y0009024D01*
X0051980Y0009024D01*
X0051980Y0015386D01*
X0052555Y0015386D01*
X0052555Y0009024D01*
X0052588Y0009024D01*
X0053222Y0009124D01*
X0053832Y0009322D01*
X0052555Y0009351D02*
X0051980Y0009351D01*
X0051980Y0010350D02*
X0052555Y0010350D01*
X0052555Y0011348D02*
X0051980Y0011348D01*
X0051980Y0012347D02*
X0052555Y0012347D01*
X0052555Y0013345D02*
X0051980Y0013345D01*
X0051980Y0014344D02*
X0052555Y0014344D01*
X0052555Y0015342D02*
X0051980Y0015342D01*
X0052268Y0015673D02*
X0052500Y0015906D01*
X0052500Y0021010D01*
X0052350Y0020860D01*
X0028000Y0020860D01*
X0025260Y0018120D01*
X0023500Y0018120D01*
X0022740Y0017360D01*
X0019500Y0017360D01*
X0018500Y0018860D01*
X0018500Y0046860D01*
X0020260Y0048620D01*
X0023500Y0048620D01*
X0023760Y0048360D01*
X0029500Y0048360D01*
X0031500Y0049360D01*
X0031500Y0052360D01*
X0027953Y0051289D02*
X0040900Y0051289D01*
X0040900Y0052287D02*
X0027466Y0052287D01*
X0027553Y0053286D02*
X0040900Y0053286D01*
X0040900Y0054284D02*
X0027553Y0054284D01*
X0027553Y0055283D02*
X0040900Y0055283D01*
X0040900Y0056281D02*
X0027553Y0056281D01*
X0027553Y0057280D02*
X0033492Y0057280D01*
X0032494Y0058278D02*
X0027553Y0058278D01*
X0027391Y0059277D02*
X0031926Y0059277D01*
X0031767Y0062860D02*
X0015233Y0062860D01*
X0014769Y0063979D01*
X0013419Y0065329D01*
X0011655Y0066060D01*
X0009745Y0066060D01*
X0007981Y0065329D01*
X0006631Y0063979D01*
X0006000Y0062456D01*
X0006000Y0102098D01*
X0007995Y0100103D01*
X0014928Y0100103D01*
X0014928Y0099968D01*
X0015572Y0099323D01*
X0021601Y0099323D01*
X0022038Y0099760D01*
X0023337Y0099760D01*
X0023660Y0099438D01*
X0023660Y0095913D01*
X0022245Y0095913D01*
X0021601Y0095269D01*
X0021601Y0088452D01*
X0022245Y0087807D01*
X0028275Y0087807D01*
X0028919Y0088452D01*
X0028919Y0095269D01*
X0028275Y0095913D01*
X0026860Y0095913D01*
X0026860Y0100763D01*
X0025600Y0102023D01*
X0024663Y0102960D01*
X0022246Y0102960D01*
X0022246Y0103438D01*
X0021601Y0104082D01*
X0015572Y0104082D01*
X0014928Y0103438D01*
X0014928Y0103303D01*
X0009320Y0103303D01*
X0007600Y0105023D01*
X0007600Y0108230D01*
X0007753Y0107859D01*
X0008499Y0107114D01*
X0009473Y0106710D01*
X0010257Y0106710D01*
X0012462Y0105135D01*
X0012837Y0104760D01*
X0012987Y0104760D01*
X0013109Y0104673D01*
X0013632Y0104760D01*
X0015135Y0104760D01*
X0015572Y0104323D01*
X0021601Y0104323D01*
X0022246Y0104968D01*
X0022246Y0105103D01*
X0026505Y0105103D01*
X0030663Y0109260D01*
X0031600Y0110197D01*
X0031600Y0123697D01*
X0033663Y0125760D01*
X0034388Y0125760D01*
X0034388Y0124936D01*
X0035033Y0124292D01*
X0040275Y0124292D01*
X0040788Y0124805D01*
X0040981Y0124471D01*
X0041260Y0124191D01*
X0041602Y0123994D01*
X0041984Y0123892D01*
X0043862Y0123892D01*
X0043862Y0126876D01*
X0044831Y0126876D01*
X0044831Y0123892D01*
X0046706Y0123892D01*
X0048400Y0122197D01*
X0049337Y0121260D01*
X0053837Y0121260D01*
X0055400Y0119697D01*
X0055400Y0105523D01*
X0053337Y0103460D01*
X0042499Y0103460D01*
X0041877Y0104082D01*
X0035848Y0104082D01*
X0035225Y0103460D01*
X0033837Y0103460D01*
X0032900Y0102523D01*
X0031140Y0100763D01*
X0031140Y0095913D01*
X0029725Y0095913D01*
X0029081Y0095269D01*
X0029081Y0088452D01*
X0029725Y0087807D01*
X0035755Y0087807D01*
X0036399Y0088452D01*
X0036399Y0095269D01*
X0035755Y0095913D01*
X0034340Y0095913D01*
X0034340Y0099438D01*
X0035163Y0100260D01*
X0035203Y0100260D01*
X0035203Y0099968D01*
X0035848Y0099323D01*
X0041877Y0099323D01*
X0042521Y0099968D01*
X0042521Y0100260D01*
X0054663Y0100260D01*
X0055600Y0101197D01*
X0058600Y0104197D01*
X0058600Y0121023D01*
X0057663Y0121960D01*
X0055163Y0124460D01*
X0050663Y0124460D01*
X0049600Y0125523D01*
X0049600Y0133023D01*
X0048100Y0134523D01*
X0048100Y0147023D01*
X0047163Y0147960D01*
X0045399Y0149724D01*
X0045399Y0151769D01*
X0044755Y0152413D01*
X0038725Y0152413D01*
X0038081Y0151769D01*
X0038081Y0144952D01*
X0038725Y0144307D01*
X0044755Y0144307D01*
X0044900Y0144453D01*
X0044900Y0133197D01*
X0046400Y0131697D01*
X0046400Y0130829D01*
X0044831Y0130829D01*
X0044831Y0127845D01*
X0043862Y0127845D01*
X0043862Y0130829D01*
X0041984Y0130829D01*
X0041602Y0130727D01*
X0041260Y0130529D01*
X0040981Y0130250D01*
X0040788Y0129915D01*
X0040275Y0130429D01*
X0035033Y0130429D01*
X0034388Y0129784D01*
X0034388Y0128960D01*
X0032337Y0128960D01*
X0031400Y0128023D01*
X0028400Y0125023D01*
X0028400Y0111523D01*
X0025180Y0108303D01*
X0022246Y0108303D01*
X0022246Y0108438D01*
X0021672Y0109011D01*
X0021725Y0109025D01*
X0022067Y0109223D01*
X0022346Y0109502D01*
X0022543Y0109844D01*
X0022646Y0110226D01*
X0022646Y0111563D01*
X0018726Y0111563D01*
X0018726Y0111843D01*
X0018447Y0111843D01*
X0018447Y0114482D01*
X0015830Y0114482D01*
X0015449Y0114380D01*
X0015107Y0114183D01*
X0014827Y0113903D01*
X0014630Y0113561D01*
X0014528Y0113180D01*
X0014528Y0111843D01*
X0018447Y0111843D01*
X0018447Y0111563D01*
X0014528Y0111563D01*
X0014528Y0110226D01*
X0014630Y0109844D01*
X0014827Y0109502D01*
X0015107Y0109223D01*
X0015449Y0109025D01*
X0015501Y0109011D01*
X0014928Y0108438D01*
X0014928Y0107960D01*
X0014013Y0107960D01*
X0012650Y0108934D01*
X0012650Y0109887D01*
X0012247Y0110861D01*
X0011501Y0111607D01*
X0010527Y0112010D01*
X0009473Y0112010D01*
X0008499Y0111607D01*
X0007753Y0110861D01*
X0007600Y0110491D01*
X0007600Y0117394D01*
X0008400Y0116327D01*
X0008400Y0116197D01*
X0008788Y0115809D01*
X0009118Y0115370D01*
X0009246Y0115352D01*
X0009337Y0115260D01*
X0009886Y0115260D01*
X0010430Y0115183D01*
X0010533Y0115260D01*
X0014928Y0115260D01*
X0014928Y0115145D01*
X0015572Y0114500D01*
X0021601Y0114500D01*
X0022246Y0115145D01*
X0022246Y0118615D01*
X0021601Y0119259D01*
X0015572Y0119259D01*
X0014928Y0118615D01*
X0014928Y0118460D01*
X0013848Y0118460D01*
X0014247Y0118859D01*
X0014650Y0119833D01*
X0014650Y0120887D01*
X0014360Y0121588D01*
X0014360Y0123307D01*
X0015775Y0123307D01*
X0016419Y0123952D01*
X0016419Y0130760D01*
X0016581Y0130760D01*
X0016581Y0123952D01*
X0017225Y0123307D01*
X0023255Y0123307D01*
X0023899Y0123952D01*
X0023899Y0130769D01*
X0023255Y0131413D01*
X0021840Y0131413D01*
X0021840Y0132283D01*
X0021100Y0133023D01*
X0020163Y0133960D01*
X0019740Y0133960D01*
X0019740Y0137360D01*
X0020740Y0137360D01*
X0020740Y0133407D01*
X0022997Y0133407D01*
X0023378Y0133510D01*
X0023720Y0133707D01*
X0023999Y0133986D01*
X0024197Y0134328D01*
X0024299Y0134710D01*
X0024299Y0137360D01*
X0020740Y0137360D01*
X0020740Y0138360D01*
X0024299Y0138360D01*
X0024299Y0141010D01*
X0024197Y0141392D01*
X0023999Y0141734D01*
X0023720Y0142013D01*
X0023378Y0142211D01*
X0022997Y0142313D01*
X0020740Y0142313D01*
X0020740Y0138360D01*
X0019740Y0138360D01*
X0019740Y0142313D01*
X0017484Y0142313D01*
X0017102Y0142211D01*
X0016760Y0142013D01*
X0016481Y0141734D01*
X0016288Y0141400D01*
X0015775Y0141913D01*
X0014254Y0141913D01*
X0014254Y0145292D01*
X0015275Y0145292D01*
X0015919Y0145936D01*
X0015919Y0150784D01*
X0015275Y0151429D01*
X0010331Y0151429D01*
X0010663Y0151760D01*
X0026163Y0151760D01*
X0027100Y0152697D01*
X0028832Y0154430D01*
X0028832Y0155658D01*
X0029314Y0155857D01*
X0030348Y0156891D01*
X0030907Y0158241D01*
X0030907Y0164853D01*
X0030348Y0166204D01*
X0030191Y0166360D01*
X0049750Y0166360D01*
X0049750Y0132550D01*
X0050189Y0132110D01*
X0068987Y0132110D01*
X0068337Y0131460D01*
X0067400Y0130523D01*
X0067400Y0129008D01*
X0066753Y0128361D01*
X0066350Y0127387D01*
X0066350Y0126333D01*
X0066753Y0125359D01*
X0067499Y0124614D01*
X0068473Y0124210D01*
X0069527Y0124210D01*
X0070501Y0124614D01*
X0071247Y0125359D01*
X0071650Y0126333D01*
X0071650Y0127387D01*
X0071247Y0128361D01*
X0070600Y0129008D01*
X0070600Y0129197D01*
X0071913Y0130510D01*
X0146850Y0130510D01*
X0146850Y0130333D01*
X0147253Y0129359D01*
X0147999Y0128614D01*
X0148973Y0128210D01*
X0150027Y0128210D01*
X0151001Y0128614D01*
X0151747Y0129359D01*
X0152150Y0130333D01*
X0152150Y0131387D01*
X0151747Y0132361D01*
X0151001Y0133107D01*
X0150415Y0133350D01*
X0150696Y0133441D01*
X0151425Y0133813D01*
X0152088Y0134294D01*
X0152666Y0134873D01*
X0153147Y0135535D01*
X0153519Y0136264D01*
X0153772Y0137043D01*
X0153886Y0137760D01*
X0149200Y0137760D01*
X0149200Y0138760D01*
X0153886Y0138760D01*
X0153772Y0139478D01*
X0153519Y0140256D01*
X0153147Y0140986D01*
X0152666Y0141648D01*
X0152088Y0142227D01*
X0151425Y0142708D01*
X0150696Y0143079D01*
X0149918Y0143332D01*
X0149200Y0143446D01*
X0149200Y0138760D01*
X0148200Y0138760D01*
X0148200Y0137760D01*
X0143514Y0137760D01*
X0143628Y0137043D01*
X0143881Y0136264D01*
X0144253Y0135535D01*
X0144734Y0134873D01*
X0145312Y0134294D01*
X0145975Y0133813D01*
X0146176Y0133710D01*
X0141250Y0133710D01*
X0141250Y0166360D01*
X0162651Y0166360D01*
X0161098Y0164807D01*
X0159716Y0162413D01*
X0159000Y0159743D01*
X0159000Y0156978D01*
X0159716Y0154307D01*
X0161098Y0151913D01*
X0163053Y0149958D01*
X0165447Y0148576D01*
X0168118Y0147860D01*
X0170882Y0147860D01*
X0173553Y0148576D01*
X0175947Y0149958D01*
X0177500Y0151511D01*
X0177500Y0142363D01*
X0177025Y0142708D01*
X0176296Y0143079D01*
X0175518Y0143332D01*
X0174800Y0143446D01*
X0174800Y0138760D01*
X0173800Y0138760D01*
X0173800Y0137760D01*
X0174800Y0137760D01*
X0174800Y0133075D01*
X0175518Y0133188D01*
X0176296Y0133441D01*
X0177025Y0133813D01*
X0177500Y0134158D01*
X0177500Y0124048D01*
X0177019Y0124529D01*
X0175255Y0125260D01*
X0173345Y0125260D01*
X0171581Y0124529D01*
X0170231Y0123179D01*
X0169500Y0121415D01*
X0169500Y0119505D01*
X0170231Y0117741D01*
X0171581Y0116391D01*
X0173345Y0115660D01*
X0175255Y0115660D01*
X0177019Y0116391D01*
X0177500Y0116872D01*
X0177500Y0112623D01*
X0177163Y0112960D01*
X0163163Y0112960D01*
X0163100Y0113023D01*
X0163100Y0122248D01*
X0164424Y0122248D01*
X0165068Y0122893D01*
X0165068Y0128135D01*
X0164555Y0128648D01*
X0164890Y0128841D01*
X0165169Y0129120D01*
X0165366Y0129462D01*
X0165468Y0129844D01*
X0165468Y0131722D01*
X0162484Y0131722D01*
X0162484Y0132691D01*
X0161516Y0132691D01*
X0161516Y0135872D01*
X0159834Y0135872D01*
X0159453Y0135770D01*
X0159110Y0135572D01*
X0158831Y0135293D01*
X0158634Y0134951D01*
X0158531Y0134570D01*
X0158531Y0132691D01*
X0161516Y0132691D01*
X0161516Y0131722D01*
X0158531Y0131722D01*
X0158531Y0129844D01*
X0158634Y0129462D01*
X0158831Y0129120D01*
X0159110Y0128841D01*
X0159445Y0128648D01*
X0158931Y0128135D01*
X0158931Y0127960D01*
X0125837Y0127960D01*
X0124077Y0126200D01*
X0123140Y0125263D01*
X0123140Y0122413D01*
X0121725Y0122413D01*
X0121081Y0121769D01*
X0121081Y0114952D01*
X0121725Y0114307D01*
X0123140Y0114307D01*
X0123140Y0112413D01*
X0121725Y0112413D01*
X0121081Y0111769D01*
X0121081Y0104960D01*
X0120919Y0104960D01*
X0120919Y0111769D01*
X0120275Y0112413D01*
X0114245Y0112413D01*
X0114100Y0112268D01*
X0114100Y0114453D01*
X0114245Y0114307D01*
X0120275Y0114307D01*
X0120919Y0114952D01*
X0120919Y0121769D01*
X0120275Y0122413D01*
X0118860Y0122413D01*
X0118860Y0124555D01*
X0119001Y0124614D01*
X0119747Y0125359D01*
X0120150Y0126333D01*
X0120150Y0127387D01*
X0119747Y0128361D01*
X0119001Y0129107D01*
X0118027Y0129510D01*
X0116973Y0129510D01*
X0115999Y0129107D01*
X0115352Y0128460D01*
X0100337Y0128460D01*
X0098837Y0126960D01*
X0097900Y0126023D01*
X0097900Y0118655D01*
X0096851Y0118655D01*
X0096461Y0118265D01*
X0096070Y0118655D01*
X0095031Y0118655D01*
X0095031Y0120592D01*
X0094093Y0121530D01*
X0093600Y0122023D01*
X0092663Y0122960D01*
X0078936Y0122960D01*
X0078467Y0123429D01*
X0073225Y0123429D01*
X0072712Y0122915D01*
X0072519Y0123250D01*
X0072240Y0123529D01*
X0071898Y0123727D01*
X0071516Y0123829D01*
X0069638Y0123829D01*
X0069638Y0120845D01*
X0068669Y0120845D01*
X0068669Y0123829D01*
X0066791Y0123829D01*
X0066409Y0123727D01*
X0066067Y0123529D01*
X0065788Y0123250D01*
X0065590Y0122908D01*
X0065488Y0122526D01*
X0065488Y0120844D01*
X0068669Y0120844D01*
X0068669Y0119876D01*
X0065488Y0119876D01*
X0065488Y0118194D01*
X0065590Y0117813D01*
X0065788Y0117471D01*
X0066067Y0117191D01*
X0066409Y0116994D01*
X0066791Y0116892D01*
X0068669Y0116892D01*
X0068669Y0119876D01*
X0069638Y0119876D01*
X0069638Y0116892D01*
X0071516Y0116892D01*
X0071898Y0116994D01*
X0072240Y0117191D01*
X0072519Y0117471D01*
X0072712Y0117805D01*
X0073225Y0117292D01*
X0078467Y0117292D01*
X0079112Y0117936D01*
X0079112Y0119760D01*
X0091337Y0119760D01*
X0091831Y0119267D01*
X0091831Y0118655D01*
X0090772Y0118655D01*
X0089834Y0117718D01*
X0089834Y0114308D01*
X0088287Y0114308D01*
X0088287Y0112308D01*
X0088287Y0112308D01*
X0086787Y0112308D02*
X0089787Y0112308D01*
X0088287Y0112308D02*
X0085552Y0112308D01*
X0081500Y0116360D01*
X0070246Y0116360D01*
X0069000Y0117614D01*
X0069000Y0118707D01*
X0069154Y0120360D01*
X0070154Y0119514D01*
X0072500Y0124360D01*
X0088000Y0124360D01*
X0089500Y0126860D01*
X0092000Y0121360D02*
X0076938Y0121360D01*
X0075908Y0120330D01*
X0075846Y0120360D01*
X0079112Y0119188D02*
X0091831Y0119188D01*
X0093431Y0119930D02*
X0092000Y0121360D01*
X0093440Y0122183D02*
X0097900Y0122183D01*
X0097900Y0121185D02*
X0094438Y0121185D01*
X0095031Y0120186D02*
X0097900Y0120186D01*
X0097900Y0119188D02*
X0095031Y0119188D01*
X0093431Y0119930D02*
X0093431Y0115556D01*
X0093431Y0114056D02*
X0093431Y0117056D01*
X0095407Y0117056D02*
X0095407Y0114056D01*
X0097514Y0114056D02*
X0097514Y0117056D01*
X0099500Y0117056D02*
X0099500Y0114056D01*
X0099500Y0115556D02*
X0099500Y0119154D01*
X0099500Y0119155D01*
X0099500Y0125360D01*
X0101000Y0126860D01*
X0117500Y0126860D01*
X0117500Y0126360D01*
X0117260Y0126120D01*
X0117260Y0118360D01*
X0115260Y0120360D01*
X0112500Y0120860D02*
X0110000Y0123360D01*
X0108000Y0123360D01*
X0102500Y0123360D01*
X0101487Y0122347D01*
X0101487Y0115556D01*
X0101487Y0114056D02*
X0101487Y0117056D01*
X0103087Y0117191D02*
X0110900Y0117191D01*
X0110900Y0118189D02*
X0103087Y0118189D01*
X0103087Y0119188D02*
X0110900Y0119188D01*
X0110900Y0120186D02*
X0103087Y0120186D01*
X0103087Y0121185D02*
X0106428Y0121185D01*
X0106499Y0121114D02*
X0107473Y0120710D01*
X0108527Y0120710D01*
X0109501Y0121114D01*
X0109742Y0121355D01*
X0110900Y0120198D01*
X0110900Y0108697D01*
X0111837Y0107760D01*
X0112837Y0106760D01*
X0113601Y0106760D01*
X0113601Y0104952D01*
X0114245Y0104307D01*
X0115685Y0104307D01*
X0115400Y0104023D01*
X0113900Y0102523D01*
X0113900Y0097110D01*
X0111921Y0095460D01*
X0102561Y0095460D01*
X0102002Y0095907D01*
X0102150Y0095907D01*
X0103087Y0096845D01*
X0103087Y0100655D01*
X0106797Y0100655D01*
X0107735Y0101592D01*
X0107735Y0102918D01*
X0107404Y0103248D01*
X0107735Y0103579D01*
X0107735Y0104904D01*
X0107404Y0105235D01*
X0107735Y0105566D01*
X0107735Y0106891D01*
X0107344Y0107281D01*
X0107735Y0107672D01*
X0107735Y0108997D01*
X0107409Y0109323D01*
X0107735Y0109649D01*
X0107735Y0110974D01*
X0107682Y0111027D01*
X0107735Y0111080D01*
X0107998Y0111536D01*
X0108135Y0112045D01*
X0108135Y0112308D01*
X0108135Y0112571D01*
X0107998Y0113080D01*
X0107735Y0113536D01*
X0107363Y0113908D01*
X0106907Y0114172D01*
X0106398Y0114308D01*
X0104635Y0114308D01*
X0104635Y0112308D01*
X0108135Y0112308D01*
X0104635Y0112308D01*
X0104635Y0112308D01*
X0104635Y0112308D01*
X0103135Y0112308D02*
X0106135Y0112308D01*
X0104635Y0112308D02*
X0109552Y0112308D01*
X0110500Y0111360D01*
X0110500Y0101360D01*
X0112500Y0099360D01*
X0112000Y0098860D01*
X0113900Y0099217D02*
X0103087Y0099217D01*
X0103087Y0098219D02*
X0113900Y0098219D01*
X0113900Y0097220D02*
X0103087Y0097220D01*
X0102464Y0096222D02*
X0112835Y0096222D01*
X0112500Y0093860D02*
X0115500Y0096360D01*
X0115500Y0101860D01*
X0117000Y0103360D01*
X0118918Y0103360D01*
X0119000Y0103279D01*
X0119000Y0086860D01*
X0122500Y0083360D01*
X0124760Y0083360D01*
X0128419Y0083241D02*
X0128581Y0083241D01*
X0128581Y0082243D02*
X0128419Y0082243D01*
X0128419Y0081244D02*
X0128581Y0081244D01*
X0128581Y0080246D02*
X0128419Y0080246D01*
X0128419Y0079952D02*
X0128419Y0086769D01*
X0127775Y0087413D01*
X0121745Y0087413D01*
X0121228Y0086895D01*
X0120600Y0087523D01*
X0120600Y0101760D01*
X0124663Y0101760D01*
X0125663Y0102760D01*
X0126600Y0103697D01*
X0126600Y0104307D01*
X0127755Y0104307D01*
X0128399Y0104952D01*
X0128399Y0111769D01*
X0127755Y0112413D01*
X0126340Y0112413D01*
X0126340Y0114307D01*
X0127755Y0114307D01*
X0128399Y0114952D01*
X0128399Y0121769D01*
X0127755Y0122413D01*
X0126340Y0122413D01*
X0126340Y0123938D01*
X0127163Y0124760D01*
X0146538Y0124760D01*
X0145981Y0124529D01*
X0144631Y0123179D01*
X0144167Y0122060D01*
X0143437Y0122060D01*
X0140837Y0119460D01*
X0139900Y0118523D01*
X0139900Y0107773D01*
X0139499Y0107607D01*
X0138753Y0106861D01*
X0138350Y0105887D01*
X0138350Y0104833D01*
X0138753Y0103859D01*
X0139499Y0103114D01*
X0140473Y0102710D01*
X0141527Y0102710D01*
X0142501Y0103114D01*
X0143247Y0103859D01*
X0143650Y0104833D01*
X0143650Y0105887D01*
X0143247Y0106861D01*
X0143100Y0107008D01*
X0143100Y0117197D01*
X0144342Y0118439D01*
X0144631Y0117741D01*
X0145981Y0116391D01*
X0147745Y0115660D01*
X0149655Y0115660D01*
X0151419Y0116391D01*
X0152769Y0117741D01*
X0153500Y0119505D01*
X0153500Y0121415D01*
X0152769Y0123179D01*
X0151419Y0124529D01*
X0150862Y0124760D01*
X0158931Y0124760D01*
X0158931Y0122893D01*
X0159576Y0122248D01*
X0159900Y0122248D01*
X0159900Y0111697D01*
X0160837Y0110760D01*
X0161837Y0109760D01*
X0175400Y0109760D01*
X0175400Y0105732D01*
X0175003Y0106690D01*
X0173969Y0107724D01*
X0172619Y0108283D01*
X0166007Y0108283D01*
X0164657Y0107724D01*
X0163623Y0106690D01*
X0163063Y0105339D01*
X0163063Y0103877D01*
X0163623Y0102527D01*
X0164657Y0101493D01*
X0166007Y0100933D01*
X0172619Y0100933D01*
X0173969Y0101493D01*
X0175003Y0102527D01*
X0175400Y0103485D01*
X0175400Y0097858D01*
X0175003Y0098816D01*
X0173969Y0099850D01*
X0172619Y0100409D01*
X0166007Y0100409D01*
X0164657Y0099850D01*
X0163623Y0098816D01*
X0163063Y0097465D01*
X0163063Y0096003D01*
X0163623Y0094653D01*
X0164657Y0093619D01*
X0166007Y0093059D01*
X0172619Y0093059D01*
X0173969Y0093619D01*
X0175003Y0094653D01*
X0175400Y0095611D01*
X0175400Y0089984D01*
X0175003Y0090942D01*
X0173969Y0091976D01*
X0172619Y0092535D01*
X0166007Y0092535D01*
X0164657Y0091976D01*
X0163623Y0090942D01*
X0163423Y0090460D01*
X0162663Y0090460D01*
X0161163Y0091960D01*
X0160131Y0091960D01*
X0160501Y0092114D01*
X0161247Y0092859D01*
X0161650Y0093833D01*
X0161650Y0094887D01*
X0161247Y0095861D01*
X0160501Y0096607D01*
X0159527Y0097010D01*
X0158473Y0097010D01*
X0157554Y0096630D01*
X0154809Y0096630D01*
X0154809Y0098241D01*
X0154164Y0098885D01*
X0149316Y0098885D01*
X0148672Y0098241D01*
X0148672Y0091960D01*
X0147663Y0091960D01*
X0147600Y0092023D01*
X0147600Y0093952D01*
X0147328Y0094224D01*
X0147328Y0098241D01*
X0146684Y0098885D01*
X0145238Y0098885D01*
X0144100Y0100023D01*
X0143163Y0100960D01*
X0125837Y0100960D01*
X0124337Y0099460D01*
X0123400Y0098523D01*
X0123400Y0097413D01*
X0121745Y0097413D01*
X0121101Y0096769D01*
X0121101Y0089952D01*
X0121745Y0089307D01*
X0127775Y0089307D01*
X0128419Y0089952D01*
X0128419Y0096769D01*
X0127775Y0097413D01*
X0126815Y0097413D01*
X0127163Y0097760D01*
X0141191Y0097760D01*
X0141191Y0091818D01*
X0141549Y0091460D01*
X0136403Y0091460D01*
X0135899Y0091964D01*
X0135899Y0096769D01*
X0135255Y0097413D01*
X0129225Y0097413D01*
X0128581Y0096769D01*
X0128581Y0089952D01*
X0129225Y0089307D01*
X0134030Y0089307D01*
X0135077Y0088260D01*
X0141191Y0088260D01*
X0141191Y0082479D01*
X0141836Y0081835D01*
X0146684Y0081835D01*
X0147328Y0082479D01*
X0147328Y0088760D01*
X0148672Y0088760D01*
X0148672Y0082479D01*
X0149316Y0081835D01*
X0152900Y0081835D01*
X0152900Y0074023D01*
X0152837Y0073960D01*
X0151068Y0073960D01*
X0151068Y0080241D01*
X0150424Y0080885D01*
X0145576Y0080885D01*
X0144931Y0080241D01*
X0144931Y0078630D01*
X0143993Y0078630D01*
X0142100Y0080523D01*
X0141600Y0081023D01*
X0140663Y0081960D01*
X0135903Y0081960D01*
X0135899Y0081964D01*
X0135899Y0086769D01*
X0135255Y0087413D01*
X0129225Y0087413D01*
X0128581Y0086769D01*
X0128581Y0079952D01*
X0129225Y0079307D01*
X0130640Y0079307D01*
X0130640Y0075429D01*
X0129225Y0075429D01*
X0128712Y0074915D01*
X0128519Y0075250D01*
X0128240Y0075529D01*
X0127898Y0075727D01*
X0127516Y0075829D01*
X0125638Y0075829D01*
X0125638Y0072845D01*
X0124669Y0072845D01*
X0124669Y0075829D01*
X0122791Y0075829D01*
X0122409Y0075727D01*
X0122067Y0075529D01*
X0121788Y0075250D01*
X0121590Y0074908D01*
X0121488Y0074526D01*
X0121488Y0072844D01*
X0124669Y0072844D01*
X0124669Y0071876D01*
X0121488Y0071876D01*
X0121488Y0070194D01*
X0121590Y0069813D01*
X0121788Y0069471D01*
X0122067Y0069191D01*
X0122409Y0068994D01*
X0122791Y0068892D01*
X0124669Y0068892D01*
X0124669Y0071876D01*
X0125638Y0071876D01*
X0125638Y0068892D01*
X0127516Y0068892D01*
X0127898Y0068994D01*
X0128240Y0069191D01*
X0128519Y0069471D01*
X0128712Y0069805D01*
X0129225Y0069292D01*
X0134467Y0069292D01*
X0135112Y0069936D01*
X0135112Y0074784D01*
X0134467Y0075429D01*
X0133840Y0075429D01*
X0133840Y0079307D01*
X0134030Y0079307D01*
X0134577Y0078760D01*
X0138900Y0078760D01*
X0138900Y0077008D01*
X0138253Y0076361D01*
X0137850Y0075387D01*
X0137850Y0074333D01*
X0138253Y0073359D01*
X0138999Y0072614D01*
X0139973Y0072210D01*
X0141027Y0072210D01*
X0142001Y0072614D01*
X0142747Y0073359D01*
X0143150Y0074333D01*
X0143150Y0075387D01*
X0143133Y0075430D01*
X0144931Y0075430D01*
X0144931Y0073960D01*
X0144837Y0073960D01*
X0143900Y0073023D01*
X0142790Y0071913D01*
X0141245Y0071913D01*
X0140601Y0071269D01*
X0140601Y0064452D01*
X0141245Y0063807D01*
X0147275Y0063807D01*
X0147919Y0064452D01*
X0147919Y0070760D01*
X0148081Y0070760D01*
X0148081Y0064452D01*
X0148725Y0063807D01*
X0154755Y0063807D01*
X0155399Y0064452D01*
X0155399Y0066260D01*
X0158163Y0066260D01*
X0159100Y0067197D01*
X0160600Y0068697D01*
X0160600Y0074213D01*
X0161247Y0074859D01*
X0161650Y0075833D01*
X0161650Y0076887D01*
X0161247Y0077861D01*
X0160501Y0078607D01*
X0159527Y0079010D01*
X0158473Y0079010D01*
X0157499Y0078607D01*
X0156753Y0077861D01*
X0156350Y0076887D01*
X0156350Y0075833D01*
X0156753Y0074859D01*
X0157400Y0074213D01*
X0157400Y0070023D01*
X0156837Y0069460D01*
X0155399Y0069460D01*
X0155399Y0071269D01*
X0155035Y0071633D01*
X0155163Y0071760D01*
X0156100Y0072697D01*
X0156100Y0080260D01*
X0163063Y0080260D01*
X0163063Y0080255D01*
X0163623Y0078905D01*
X0164657Y0077871D01*
X0166007Y0077311D01*
X0172619Y0077311D01*
X0173969Y0077871D01*
X0175003Y0078905D01*
X0175400Y0079863D01*
X0175400Y0075195D01*
X0175373Y0075248D01*
X0174996Y0075767D01*
X0174542Y0076220D01*
X0174023Y0076597D01*
X0173452Y0076888D01*
X0172842Y0077087D01*
X0172208Y0077187D01*
X0169600Y0077187D01*
X0169600Y0073400D01*
X0169026Y0073400D01*
X0169026Y0077187D01*
X0166417Y0077187D01*
X0165784Y0077087D01*
X0165174Y0076888D01*
X0164603Y0076597D01*
X0164084Y0076220D01*
X0163630Y0075767D01*
X0163253Y0075248D01*
X0162962Y0074676D01*
X0162764Y0074066D01*
X0162663Y0073433D01*
X0162663Y0073400D01*
X0169026Y0073400D01*
X0169026Y0072825D01*
X0169600Y0072825D01*
X0169600Y0069037D01*
X0172208Y0069037D01*
X0172842Y0069138D01*
X0173452Y0069336D01*
X0173984Y0069607D01*
X0168400Y0064023D01*
X0168400Y0063508D01*
X0167753Y0062861D01*
X0167350Y0061887D01*
X0167350Y0060833D01*
X0167753Y0059859D01*
X0168499Y0059114D01*
X0169473Y0058710D01*
X0170527Y0058710D01*
X0171501Y0059114D01*
X0172247Y0059859D01*
X0172650Y0060833D01*
X0172650Y0061887D01*
X0172247Y0062861D01*
X0172005Y0063103D01*
X0177500Y0068598D01*
X0177500Y0055158D01*
X0177322Y0055336D01*
X0175816Y0055960D01*
X0168184Y0055960D01*
X0166678Y0055336D01*
X0165600Y0054258D01*
X0165600Y0060023D01*
X0164663Y0060960D01*
X0163600Y0062023D01*
X0162663Y0062960D01*
X0121163Y0062960D01*
X0120600Y0063523D01*
X0120600Y0082998D01*
X0121101Y0082497D01*
X0121101Y0079952D01*
X0121745Y0079307D01*
X0127775Y0079307D01*
X0128419Y0079952D01*
X0130640Y0079247D02*
X0120600Y0079247D01*
X0120600Y0078249D02*
X0130640Y0078249D01*
X0130640Y0077250D02*
X0120600Y0077250D01*
X0120600Y0076252D02*
X0130640Y0076252D01*
X0129050Y0075253D02*
X0128516Y0075253D01*
X0131846Y0072360D02*
X0132240Y0072754D01*
X0132240Y0083360D01*
X0135240Y0080360D01*
X0140000Y0080360D01*
X0140500Y0079860D01*
X0140500Y0074860D01*
X0142643Y0073256D02*
X0144133Y0073256D01*
X0144931Y0074255D02*
X0143117Y0074255D01*
X0143150Y0075253D02*
X0144931Y0075253D01*
X0143331Y0077030D02*
X0140500Y0079860D01*
X0141379Y0081244D02*
X0152900Y0081244D01*
X0152900Y0080246D02*
X0151064Y0080246D01*
X0151068Y0079247D02*
X0152900Y0079247D01*
X0152900Y0078249D02*
X0151068Y0078249D01*
X0151068Y0077250D02*
X0152900Y0077250D01*
X0152900Y0076252D02*
X0151068Y0076252D01*
X0151068Y0075253D02*
X0152900Y0075253D01*
X0152900Y0074255D02*
X0151068Y0074255D01*
X0148000Y0077030D02*
X0143331Y0077030D01*
X0143376Y0079247D02*
X0144931Y0079247D01*
X0144936Y0080246D02*
X0142377Y0080246D01*
X0141428Y0082243D02*
X0135899Y0082243D01*
X0135899Y0083241D02*
X0141191Y0083241D01*
X0141191Y0084240D02*
X0135899Y0084240D01*
X0135899Y0085238D02*
X0141191Y0085238D01*
X0141191Y0086237D02*
X0135899Y0086237D01*
X0135433Y0087235D02*
X0141191Y0087235D01*
X0141191Y0088234D02*
X0120600Y0088234D01*
X0120600Y0089232D02*
X0134105Y0089232D01*
X0135740Y0089860D02*
X0132240Y0093360D01*
X0128581Y0093226D02*
X0128419Y0093226D01*
X0128419Y0092228D02*
X0128581Y0092228D01*
X0128581Y0091229D02*
X0128419Y0091229D01*
X0128419Y0090231D02*
X0128581Y0090231D01*
X0129048Y0087235D02*
X0127952Y0087235D01*
X0128419Y0086237D02*
X0128581Y0086237D01*
X0128581Y0085238D02*
X0128419Y0085238D01*
X0128419Y0084240D02*
X0128581Y0084240D01*
X0133840Y0079247D02*
X0134091Y0079247D01*
X0133840Y0078249D02*
X0138900Y0078249D01*
X0138900Y0077250D02*
X0133840Y0077250D01*
X0133840Y0076252D02*
X0138208Y0076252D01*
X0137850Y0075253D02*
X0134643Y0075253D01*
X0135112Y0074255D02*
X0137883Y0074255D01*
X0138357Y0073256D02*
X0135112Y0073256D01*
X0135112Y0072258D02*
X0139859Y0072258D01*
X0140601Y0071259D02*
X0135112Y0071259D01*
X0135112Y0070260D02*
X0140601Y0070260D01*
X0140601Y0069262D02*
X0128310Y0069262D01*
X0125638Y0069262D02*
X0124669Y0069262D01*
X0124669Y0070260D02*
X0125638Y0070260D01*
X0125638Y0071259D02*
X0124669Y0071259D01*
X0124669Y0072258D02*
X0120600Y0072258D01*
X0120600Y0073256D02*
X0121488Y0073256D01*
X0121488Y0074255D02*
X0120600Y0074255D01*
X0120600Y0075253D02*
X0121791Y0075253D01*
X0124669Y0075253D02*
X0125638Y0075253D01*
X0125638Y0074255D02*
X0124669Y0074255D01*
X0124669Y0073256D02*
X0125638Y0073256D01*
X0125154Y0072360D02*
X0123000Y0072360D01*
X0122000Y0071360D01*
X0122000Y0065360D01*
X0122500Y0066360D01*
X0120600Y0066266D02*
X0140601Y0066266D01*
X0140601Y0065268D02*
X0120600Y0065268D01*
X0120600Y0064269D02*
X0140783Y0064269D01*
X0140601Y0067265D02*
X0120600Y0067265D01*
X0120600Y0068263D02*
X0140601Y0068263D01*
X0144260Y0067860D02*
X0144260Y0071120D01*
X0145500Y0072360D01*
X0153500Y0072360D01*
X0154500Y0073360D01*
X0154500Y0083860D01*
X0154149Y0084212D01*
X0156500Y0081860D01*
X0168439Y0081860D01*
X0169313Y0080986D01*
X0169026Y0076252D02*
X0169600Y0076252D01*
X0169600Y0075253D02*
X0169026Y0075253D01*
X0169026Y0074255D02*
X0169600Y0074255D01*
X0169026Y0073256D02*
X0160600Y0073256D01*
X0160600Y0072258D02*
X0162748Y0072258D01*
X0162764Y0072158D02*
X0162663Y0072791D01*
X0162663Y0072825D01*
X0169026Y0072825D01*
X0169026Y0069037D01*
X0166417Y0069037D01*
X0165784Y0069138D01*
X0165174Y0069336D01*
X0164603Y0069627D01*
X0164084Y0070004D01*
X0163630Y0070458D01*
X0163253Y0070977D01*
X0162962Y0071548D01*
X0162764Y0072158D01*
X0163109Y0071259D02*
X0160600Y0071259D01*
X0160600Y0070260D02*
X0163827Y0070260D01*
X0165402Y0069262D02*
X0160600Y0069262D01*
X0160166Y0068263D02*
X0172641Y0068263D01*
X0173224Y0069262D02*
X0173639Y0069262D01*
X0171642Y0067265D02*
X0159167Y0067265D01*
X0158169Y0066266D02*
X0170643Y0066266D01*
X0169645Y0065268D02*
X0155399Y0065268D01*
X0155217Y0064269D02*
X0168646Y0064269D01*
X0168163Y0063271D02*
X0120852Y0063271D01*
X0119000Y0062860D02*
X0120500Y0061360D01*
X0162000Y0061360D01*
X0164000Y0059360D01*
X0164000Y0042860D01*
X0165500Y0041360D01*
X0171500Y0041360D01*
X0172000Y0041860D01*
X0172000Y0031860D02*
X0144000Y0031860D01*
X0138500Y0037360D01*
X0138500Y0055360D01*
X0147736Y0064269D02*
X0148264Y0064269D01*
X0148081Y0065268D02*
X0147919Y0065268D01*
X0147919Y0066266D02*
X0148081Y0066266D01*
X0148081Y0067265D02*
X0147919Y0067265D01*
X0147919Y0068263D02*
X0148081Y0068263D01*
X0148081Y0069262D02*
X0147919Y0069262D01*
X0147919Y0070260D02*
X0148081Y0070260D01*
X0151740Y0067860D02*
X0157500Y0067860D01*
X0159000Y0069360D01*
X0159000Y0076360D01*
X0157141Y0078249D02*
X0156100Y0078249D01*
X0156100Y0079247D02*
X0163481Y0079247D01*
X0163067Y0080246D02*
X0156100Y0080246D01*
X0156100Y0077250D02*
X0156500Y0077250D01*
X0156350Y0076252D02*
X0156100Y0076252D01*
X0156100Y0075253D02*
X0156590Y0075253D01*
X0156100Y0074255D02*
X0157358Y0074255D01*
X0157400Y0073256D02*
X0156100Y0073256D01*
X0155660Y0072258D02*
X0157400Y0072258D01*
X0157400Y0071259D02*
X0155399Y0071259D01*
X0155399Y0070260D02*
X0157400Y0070260D01*
X0160642Y0074255D02*
X0162825Y0074255D01*
X0163257Y0075253D02*
X0161410Y0075253D01*
X0161650Y0076252D02*
X0164127Y0076252D01*
X0164279Y0078249D02*
X0160859Y0078249D01*
X0161500Y0077250D02*
X0175400Y0077250D01*
X0175400Y0076252D02*
X0174499Y0076252D01*
X0175369Y0075253D02*
X0175400Y0075253D01*
X0175400Y0078249D02*
X0174347Y0078249D01*
X0175145Y0079247D02*
X0175400Y0079247D01*
X0169600Y0072258D02*
X0169026Y0072258D01*
X0169026Y0071259D02*
X0169600Y0071259D01*
X0169600Y0070260D02*
X0169026Y0070260D01*
X0169026Y0069262D02*
X0169600Y0069262D01*
X0175169Y0066266D02*
X0177500Y0066266D01*
X0177500Y0065268D02*
X0174170Y0065268D01*
X0173172Y0064269D02*
X0177500Y0064269D01*
X0177500Y0063271D02*
X0172173Y0063271D01*
X0172491Y0062272D02*
X0177500Y0062272D01*
X0177500Y0061274D02*
X0172650Y0061274D01*
X0172419Y0060275D02*
X0177500Y0060275D01*
X0177500Y0059277D02*
X0171664Y0059277D01*
X0170000Y0061360D02*
X0170000Y0063360D01*
X0177000Y0070360D01*
X0177000Y0110860D01*
X0176500Y0111360D01*
X0162500Y0111360D01*
X0161500Y0112360D01*
X0161500Y0125014D01*
X0162000Y0125514D01*
X0161154Y0126360D01*
X0126500Y0126360D01*
X0124740Y0124600D01*
X0124740Y0118360D01*
X0124740Y0108360D01*
X0125000Y0108100D01*
X0125000Y0104360D01*
X0124000Y0103360D01*
X0118918Y0103360D01*
X0117400Y0101214D02*
X0117117Y0101214D01*
X0117100Y0100216D02*
X0117400Y0100216D01*
X0117400Y0099217D02*
X0117100Y0099217D01*
X0117100Y0098219D02*
X0117400Y0098219D01*
X0117400Y0097220D02*
X0117100Y0097220D01*
X0117100Y0096222D02*
X0117400Y0096222D01*
X0117400Y0095223D02*
X0116635Y0095223D01*
X0117400Y0094225D02*
X0115437Y0094225D01*
X0114238Y0093226D02*
X0117400Y0093226D01*
X0117400Y0092228D02*
X0113040Y0092228D01*
X0112785Y0092228D02*
X0101796Y0092228D01*
X0101479Y0092228D02*
X0096130Y0092228D01*
X0097007Y0093226D02*
X0100231Y0093226D01*
X0098983Y0094225D02*
X0097007Y0094225D01*
X0097007Y0095223D02*
X0097900Y0095223D01*
X0099500Y0095860D02*
X0102000Y0093860D01*
X0112500Y0093860D01*
X0112000Y0090360D02*
X0111000Y0089360D01*
X0098000Y0089360D01*
X0095240Y0086600D01*
X0095240Y0083360D01*
X0095740Y0083241D02*
X0101601Y0083241D01*
X0101601Y0082243D02*
X0099299Y0082243D01*
X0099299Y0081244D02*
X0101601Y0081244D01*
X0101601Y0080246D02*
X0099299Y0080246D01*
X0098760Y0079247D02*
X0102124Y0079247D01*
X0104000Y0078860D02*
X0104000Y0082100D01*
X0105260Y0083360D01*
X0108919Y0083241D02*
X0109081Y0083241D01*
X0109081Y0082243D02*
X0108919Y0082243D01*
X0108919Y0081244D02*
X0109081Y0081244D01*
X0109081Y0080246D02*
X0108919Y0080246D01*
X0105600Y0079247D02*
X0117400Y0079247D01*
X0117400Y0078249D02*
X0105600Y0078249D01*
X0104653Y0077250D02*
X0117400Y0077250D01*
X0117400Y0076252D02*
X0103654Y0076252D01*
X0102000Y0076860D02*
X0104000Y0078860D01*
X0102000Y0076860D02*
X0090000Y0076860D01*
X0087760Y0079100D01*
X0087760Y0082137D01*
X0087036Y0082860D01*
X0078500Y0082860D01*
X0077316Y0085238D02*
X0072287Y0085238D01*
X0073500Y0084860D02*
X0073500Y0081860D01*
X0071500Y0079860D01*
X0060500Y0079860D01*
X0058500Y0077860D01*
X0058500Y0066860D01*
X0061000Y0064360D01*
X0064500Y0064360D01*
X0064500Y0036360D01*
X0052500Y0024360D01*
X0052500Y0021010D01*
X0052555Y0021333D02*
X0051980Y0021333D01*
X0051980Y0020335D02*
X0052555Y0020335D01*
X0052555Y0019336D02*
X0051980Y0019336D01*
X0051980Y0018338D02*
X0052555Y0018338D01*
X0052555Y0017339D02*
X0051980Y0017339D01*
X0051980Y0016341D02*
X0052555Y0016341D01*
X0052555Y0015961D02*
X0052555Y0022323D01*
X0052588Y0022323D01*
X0053222Y0022222D01*
X0053832Y0022024D01*
X0054403Y0021733D01*
X0054922Y0021356D01*
X0055376Y0020903D01*
X0055753Y0020384D01*
X0056044Y0019812D01*
X0056242Y0019202D01*
X0056343Y0018569D01*
X0056343Y0015961D01*
X0052555Y0015961D01*
X0056343Y0016341D02*
X0056467Y0016341D01*
X0056467Y0017339D02*
X0056343Y0017339D01*
X0056343Y0018338D02*
X0056467Y0018338D01*
X0056467Y0018979D02*
X0056467Y0012367D01*
X0057026Y0011017D01*
X0058060Y0009983D01*
X0059411Y0009424D01*
X0060873Y0009424D01*
X0062223Y0009983D01*
X0063257Y0011017D01*
X0063817Y0012367D01*
X0063817Y0018979D01*
X0063257Y0020330D01*
X0062223Y0021363D01*
X0060873Y0021923D01*
X0059411Y0021923D01*
X0058060Y0021363D01*
X0057026Y0020330D01*
X0056467Y0018979D01*
X0056615Y0019336D02*
X0056199Y0019336D01*
X0055778Y0020335D02*
X0057032Y0020335D01*
X0058030Y0021333D02*
X0054945Y0021333D01*
X0049590Y0021333D02*
X0027807Y0021333D01*
X0027851Y0021258D02*
X0027653Y0021600D01*
X0027374Y0021879D01*
X0027039Y0022072D01*
X0027553Y0022586D01*
X0027553Y0024000D01*
X0036403Y0024000D01*
X0036663Y0024260D01*
X0037600Y0025197D01*
X0037600Y0026103D01*
X0039019Y0026691D01*
X0040369Y0028041D01*
X0041100Y0029805D01*
X0041100Y0031715D01*
X0040369Y0033479D01*
X0039019Y0034829D01*
X0037255Y0035560D01*
X0035345Y0035560D01*
X0033581Y0034829D01*
X0032231Y0033479D01*
X0031500Y0031715D01*
X0031500Y0029805D01*
X0032231Y0028041D01*
X0033072Y0027200D01*
X0027553Y0027200D01*
X0027553Y0028615D01*
X0026908Y0029259D01*
X0020092Y0029259D01*
X0019447Y0028615D01*
X0019447Y0022586D01*
X0019961Y0022072D01*
X0019626Y0021879D01*
X0019347Y0021600D01*
X0019149Y0021258D01*
X0019047Y0020877D01*
X0019047Y0018620D01*
X0023000Y0018620D01*
X0023000Y0017620D01*
X0024000Y0017620D01*
X0024000Y0014061D01*
X0026650Y0014061D01*
X0027032Y0014163D01*
X0027374Y0014361D01*
X0027653Y0014640D01*
X0027851Y0014982D01*
X0027953Y0015364D01*
X0027953Y0017620D01*
X0024000Y0017620D01*
X0024000Y0018620D01*
X0027953Y0018620D01*
X0027953Y0020877D01*
X0027851Y0021258D01*
X0027953Y0020335D02*
X0048758Y0020335D01*
X0048337Y0019336D02*
X0027953Y0019336D01*
X0027953Y0017339D02*
X0034329Y0017339D01*
X0032892Y0016341D02*
X0027953Y0016341D01*
X0027947Y0015342D02*
X0032091Y0015342D01*
X0031678Y0014344D02*
X0027345Y0014344D01*
X0024000Y0014344D02*
X0023000Y0014344D01*
X0023000Y0014061D02*
X0023000Y0017620D01*
X0019047Y0017620D01*
X0019047Y0015364D01*
X0019149Y0014982D01*
X0019347Y0014640D01*
X0019626Y0014361D01*
X0019968Y0014163D01*
X0020350Y0014061D01*
X0023000Y0014061D01*
X0023000Y0015342D02*
X0024000Y0015342D01*
X0024000Y0016341D02*
X0023000Y0016341D01*
X0023000Y0017339D02*
X0024000Y0017339D01*
X0024000Y0018338D02*
X0048193Y0018338D01*
X0048193Y0017339D02*
X0038271Y0017339D01*
X0039708Y0016341D02*
X0048193Y0016341D01*
X0048193Y0015342D02*
X0040509Y0015342D01*
X0040922Y0014344D02*
X0048193Y0014344D01*
X0048193Y0013345D02*
X0041100Y0013345D01*
X0041100Y0012347D02*
X0048261Y0012347D01*
X0048586Y0011348D02*
X0040828Y0011348D01*
X0040414Y0010350D02*
X0049254Y0010350D01*
X0050646Y0009351D02*
X0039479Y0009351D01*
X0033121Y0009351D02*
X0013879Y0009351D01*
X0014814Y0010350D02*
X0032186Y0010350D01*
X0031772Y0011348D02*
X0015228Y0011348D01*
X0015500Y0012347D02*
X0031500Y0012347D01*
X0031500Y0013345D02*
X0015500Y0013345D01*
X0016246Y0014344D02*
X0019655Y0014344D01*
X0019053Y0015342D02*
X0017245Y0015342D01*
X0018100Y0016341D02*
X0019047Y0016341D01*
X0019047Y0017339D02*
X0018100Y0017339D01*
X0018100Y0018338D02*
X0023000Y0018338D01*
X0019047Y0019336D02*
X0018100Y0019336D01*
X0018100Y0020335D02*
X0019047Y0020335D01*
X0019193Y0021333D02*
X0018100Y0021333D01*
X0018100Y0022332D02*
X0019701Y0022332D01*
X0019447Y0023330D02*
X0018100Y0023330D01*
X0018100Y0024329D02*
X0019447Y0024329D01*
X0019447Y0025327D02*
X0018100Y0025327D01*
X0018100Y0026326D02*
X0019447Y0026326D01*
X0019447Y0027325D02*
X0018100Y0027325D01*
X0018100Y0028323D02*
X0019447Y0028323D01*
X0018100Y0029322D02*
X0031700Y0029322D01*
X0031500Y0030320D02*
X0018100Y0030320D01*
X0018100Y0031319D02*
X0031500Y0031319D01*
X0031749Y0032317D02*
X0018100Y0032317D01*
X0018100Y0033316D02*
X0032163Y0033316D01*
X0033066Y0034314D02*
X0018100Y0034314D01*
X0018100Y0035313D02*
X0034747Y0035313D01*
X0037853Y0035313D02*
X0118785Y0035313D01*
X0118900Y0034314D02*
X0039534Y0034314D01*
X0040437Y0033316D02*
X0118900Y0033316D01*
X0118709Y0032317D02*
X0040851Y0032317D01*
X0041100Y0031319D02*
X0118029Y0031319D01*
X0117850Y0030320D02*
X0041100Y0030320D01*
X0040900Y0029322D02*
X0080480Y0029322D01*
X0081552Y0029766D02*
X0079174Y0028781D01*
X0077355Y0026961D01*
X0076370Y0024584D01*
X0076370Y0022011D01*
X0077355Y0019633D01*
X0079174Y0017814D01*
X0081552Y0016829D01*
X0084125Y0016829D01*
X0086503Y0017814D01*
X0088322Y0019633D01*
X0089307Y0022011D01*
X0089307Y0024584D01*
X0088322Y0026961D01*
X0086503Y0028781D01*
X0084125Y0029766D01*
X0081552Y0029766D01*
X0078717Y0028323D02*
X0040486Y0028323D01*
X0039652Y0027325D02*
X0077718Y0027325D01*
X0077092Y0026326D02*
X0038138Y0026326D01*
X0037600Y0025327D02*
X0076678Y0025327D01*
X0076370Y0024329D02*
X0036731Y0024329D01*
X0035740Y0025600D02*
X0036000Y0025860D01*
X0036000Y0030460D01*
X0036300Y0030760D01*
X0036900Y0031360D01*
X0032948Y0027325D02*
X0027553Y0027325D01*
X0027553Y0028323D02*
X0032114Y0028323D01*
X0035740Y0025600D02*
X0023500Y0025600D01*
X0027553Y0023330D02*
X0076370Y0023330D01*
X0076370Y0022332D02*
X0027299Y0022332D01*
X0016500Y0016860D02*
X0012600Y0012960D01*
X0011623Y0012960D01*
X0010700Y0012960D01*
X0011623Y0012960D01*
X0012100Y0012960D01*
X0016500Y0016860D02*
X0016500Y0042360D01*
X0015000Y0043360D01*
X0010800Y0043360D01*
X0010700Y0043460D01*
X0006748Y0046296D02*
X0006000Y0046296D01*
X0006000Y0045298D02*
X0006266Y0045298D01*
X0006000Y0047295D02*
X0007746Y0047295D01*
X0006000Y0048293D02*
X0023000Y0048293D01*
X0023000Y0047295D02*
X0024000Y0047295D01*
X0024000Y0048293D02*
X0039867Y0048293D01*
X0039850Y0049292D02*
X0027953Y0049292D01*
X0027953Y0050290D02*
X0040224Y0050290D01*
X0042500Y0048860D02*
X0042500Y0057860D01*
X0044000Y0059360D01*
X0050000Y0059360D01*
X0055500Y0064860D01*
X0055500Y0080360D01*
X0058000Y0082860D01*
X0068500Y0082860D01*
X0066785Y0084893D02*
X0066352Y0084460D01*
X0057337Y0084460D01*
X0054837Y0081960D01*
X0053900Y0081023D01*
X0053900Y0065523D01*
X0049337Y0060960D01*
X0048363Y0060960D01*
X0048600Y0061197D01*
X0052663Y0065260D01*
X0053600Y0066197D01*
X0053600Y0089448D01*
X0054001Y0089614D01*
X0054747Y0090359D01*
X0055150Y0091333D01*
X0055150Y0092387D01*
X0054747Y0093361D01*
X0054001Y0094107D01*
X0053027Y0094510D01*
X0051973Y0094510D01*
X0050999Y0094107D01*
X0050253Y0093361D01*
X0049850Y0092387D01*
X0049850Y0091333D01*
X0050253Y0090359D01*
X0050400Y0090213D01*
X0050400Y0067523D01*
X0046337Y0063460D01*
X0040584Y0063460D01*
X0040369Y0063979D01*
X0039019Y0065329D01*
X0037255Y0066060D01*
X0035345Y0066060D01*
X0033581Y0065329D01*
X0032231Y0063979D01*
X0031767Y0062860D01*
X0031937Y0063271D02*
X0015063Y0063271D01*
X0014479Y0064269D02*
X0032521Y0064269D01*
X0033519Y0065268D02*
X0013480Y0065268D01*
X0010700Y0061260D02*
X0023669Y0061260D01*
X0023500Y0061092D01*
X0023500Y0056100D01*
X0019447Y0056281D02*
X0006000Y0056281D01*
X0006000Y0055283D02*
X0019447Y0055283D01*
X0019447Y0054284D02*
X0006000Y0054284D01*
X0006000Y0053286D02*
X0019447Y0053286D01*
X0019534Y0052287D02*
X0006000Y0052287D01*
X0006000Y0051289D02*
X0019047Y0051289D01*
X0019047Y0050290D02*
X0006000Y0050290D01*
X0006000Y0049292D02*
X0019047Y0049292D01*
X0019047Y0047295D02*
X0013654Y0047295D01*
X0014652Y0046296D02*
X0019047Y0046296D01*
X0019256Y0045298D02*
X0015134Y0045298D01*
X0016476Y0044299D02*
X0031500Y0044299D01*
X0031500Y0044415D02*
X0031500Y0042505D01*
X0032231Y0040741D01*
X0033581Y0039391D01*
X0035345Y0038660D01*
X0037255Y0038660D01*
X0039019Y0039391D01*
X0040369Y0040741D01*
X0041100Y0042505D01*
X0041100Y0044415D01*
X0040369Y0046179D01*
X0039019Y0047529D01*
X0037255Y0048260D01*
X0035345Y0048260D01*
X0033581Y0047529D01*
X0032231Y0046179D01*
X0031500Y0044415D01*
X0031866Y0045298D02*
X0027744Y0045298D01*
X0027953Y0046296D02*
X0032348Y0046296D01*
X0033346Y0047295D02*
X0027953Y0047295D01*
X0024000Y0046296D02*
X0023000Y0046296D01*
X0023000Y0045298D02*
X0024000Y0045298D01*
X0017944Y0043301D02*
X0031500Y0043301D01*
X0031584Y0042302D02*
X0018143Y0042302D01*
X0018100Y0041304D02*
X0031998Y0041304D01*
X0032667Y0040305D02*
X0018100Y0040305D01*
X0018100Y0039307D02*
X0033785Y0039307D01*
X0038815Y0039307D02*
X0069291Y0039307D01*
X0068292Y0040305D02*
X0039933Y0040305D01*
X0040602Y0041304D02*
X0067294Y0041304D01*
X0066900Y0042302D02*
X0041016Y0042302D01*
X0041100Y0043301D02*
X0066900Y0043301D01*
X0066900Y0044299D02*
X0041100Y0044299D01*
X0040734Y0045298D02*
X0066900Y0045298D01*
X0066900Y0046296D02*
X0043235Y0046296D01*
X0041765Y0046296D02*
X0040252Y0046296D01*
X0040318Y0047295D02*
X0039254Y0047295D01*
X0044682Y0047295D02*
X0066900Y0047295D01*
X0066900Y0048293D02*
X0045133Y0048293D01*
X0045150Y0049292D02*
X0066900Y0049292D01*
X0066900Y0050290D02*
X0044776Y0050290D01*
X0044100Y0051289D02*
X0066900Y0051289D01*
X0066900Y0052287D02*
X0044100Y0052287D01*
X0044100Y0053286D02*
X0066900Y0053286D01*
X0066900Y0054284D02*
X0044100Y0054284D01*
X0044100Y0055283D02*
X0066900Y0055283D01*
X0066900Y0056281D02*
X0044100Y0056281D01*
X0044182Y0057280D02*
X0067157Y0057280D01*
X0068155Y0058278D02*
X0051181Y0058278D01*
X0052179Y0059277D02*
X0069154Y0059277D01*
X0070152Y0060275D02*
X0053178Y0060275D01*
X0054176Y0061274D02*
X0066985Y0061274D01*
X0066488Y0062272D02*
X0055175Y0062272D01*
X0056173Y0063271D02*
X0066488Y0063271D01*
X0066488Y0065268D02*
X0057100Y0065268D01*
X0057100Y0066266D02*
X0066488Y0066266D01*
X0066803Y0067265D02*
X0057100Y0067265D01*
X0057100Y0068263D02*
X0068834Y0068263D01*
X0068400Y0069262D02*
X0057100Y0069262D01*
X0057100Y0070260D02*
X0066292Y0070260D01*
X0066101Y0071259D02*
X0057100Y0071259D01*
X0057100Y0072258D02*
X0066101Y0072258D01*
X0066101Y0073256D02*
X0057100Y0073256D01*
X0057100Y0074255D02*
X0066101Y0074255D01*
X0066101Y0075253D02*
X0057100Y0075253D01*
X0057100Y0076252D02*
X0066101Y0076252D01*
X0066101Y0077250D02*
X0057100Y0077250D01*
X0057100Y0078249D02*
X0086349Y0078249D01*
X0086160Y0079247D02*
X0057100Y0079247D01*
X0057648Y0080246D02*
X0067887Y0080246D01*
X0069113Y0080246D02*
X0077887Y0080246D01*
X0079113Y0080246D02*
X0084101Y0080246D01*
X0084101Y0081244D02*
X0080632Y0081244D01*
X0079684Y0085238D02*
X0084101Y0085238D01*
X0084101Y0086237D02*
X0079112Y0086237D01*
X0081138Y0087235D02*
X0084567Y0087235D01*
X0083135Y0089232D02*
X0117400Y0089232D01*
X0117400Y0088234D02*
X0082136Y0088234D01*
X0080000Y0088360D02*
X0075846Y0088360D01*
X0072581Y0088234D02*
X0069638Y0088234D01*
X0069638Y0087876D02*
X0069638Y0088844D01*
X0072581Y0088844D01*
X0072581Y0087876D01*
X0069638Y0087876D01*
X0070154Y0088207D02*
X0069154Y0088360D01*
X0069154Y0094855D01*
X0069159Y0094860D01*
X0093000Y0094860D01*
X0093431Y0095291D01*
X0093431Y0099007D01*
X0093431Y0095507D01*
X0093694Y0095507D01*
X0093807Y0095538D01*
X0093807Y0094430D01*
X0093337Y0093960D01*
X0083337Y0093960D01*
X0079337Y0089960D01*
X0079112Y0089960D01*
X0079112Y0090784D01*
X0078467Y0091429D01*
X0073225Y0091429D01*
X0072712Y0090915D01*
X0072519Y0091250D01*
X0072240Y0091529D01*
X0071898Y0091727D01*
X0071516Y0091829D01*
X0069638Y0091829D01*
X0069638Y0088845D01*
X0068669Y0088845D01*
X0068669Y0091829D01*
X0066791Y0091829D01*
X0066409Y0091727D01*
X0066067Y0091529D01*
X0065788Y0091250D01*
X0065590Y0090908D01*
X0065488Y0090526D01*
X0065488Y0088844D01*
X0068669Y0088844D01*
X0068669Y0087876D01*
X0065488Y0087876D01*
X0065488Y0086194D01*
X0065590Y0085813D01*
X0065788Y0085471D01*
X0066067Y0085191D01*
X0066409Y0084994D01*
X0066785Y0084893D01*
X0066020Y0085238D02*
X0053600Y0085238D01*
X0053600Y0084240D02*
X0057117Y0084240D01*
X0056118Y0083241D02*
X0053600Y0083241D01*
X0053600Y0082243D02*
X0055120Y0082243D01*
X0054121Y0081244D02*
X0053600Y0081244D01*
X0053600Y0080246D02*
X0053900Y0080246D01*
X0053900Y0079247D02*
X0053600Y0079247D01*
X0053600Y0078249D02*
X0053900Y0078249D01*
X0053900Y0077250D02*
X0053600Y0077250D01*
X0053600Y0076252D02*
X0053900Y0076252D01*
X0053900Y0075253D02*
X0053600Y0075253D01*
X0053600Y0074255D02*
X0053900Y0074255D01*
X0053900Y0073256D02*
X0053600Y0073256D01*
X0053600Y0072258D02*
X0053900Y0072258D01*
X0053900Y0071259D02*
X0053600Y0071259D01*
X0053600Y0070260D02*
X0053900Y0070260D01*
X0053900Y0069262D02*
X0053600Y0069262D01*
X0053600Y0068263D02*
X0053900Y0068263D01*
X0053900Y0067265D02*
X0053600Y0067265D01*
X0053600Y0066266D02*
X0053900Y0066266D01*
X0053645Y0065268D02*
X0052670Y0065268D01*
X0052663Y0065260D02*
X0052663Y0065260D01*
X0052646Y0064269D02*
X0051672Y0064269D01*
X0051648Y0063271D02*
X0050673Y0063271D01*
X0050649Y0062272D02*
X0049675Y0062272D01*
X0049651Y0061274D02*
X0048676Y0061274D01*
X0047000Y0061860D02*
X0036772Y0061860D01*
X0036172Y0061260D01*
X0036300Y0061260D01*
X0036172Y0061260D02*
X0023669Y0061260D01*
X0019609Y0059277D02*
X0015074Y0059277D01*
X0014506Y0058278D02*
X0019447Y0058278D01*
X0019447Y0057280D02*
X0013508Y0057280D01*
X0007892Y0057280D02*
X0006000Y0057280D01*
X0006000Y0058278D02*
X0006894Y0058278D01*
X0006326Y0059277D02*
X0006000Y0059277D01*
X0006000Y0063271D02*
X0006337Y0063271D01*
X0006000Y0064269D02*
X0006921Y0064269D01*
X0006000Y0065268D02*
X0007919Y0065268D01*
X0006000Y0066266D02*
X0049143Y0066266D01*
X0048145Y0065268D02*
X0039080Y0065268D01*
X0040079Y0064269D02*
X0047146Y0064269D01*
X0047000Y0061860D02*
X0052000Y0066860D01*
X0052000Y0091360D01*
X0052500Y0091860D01*
X0051284Y0094225D02*
X0036399Y0094225D01*
X0036399Y0095223D02*
X0066035Y0095223D01*
X0066067Y0095191D02*
X0066409Y0094994D01*
X0066791Y0094892D01*
X0068669Y0094892D01*
X0068669Y0097876D01*
X0065488Y0097876D01*
X0065488Y0096194D01*
X0065590Y0095813D01*
X0065788Y0095471D01*
X0066067Y0095191D01*
X0065488Y0096222D02*
X0034340Y0096222D01*
X0034340Y0097220D02*
X0065488Y0097220D01*
X0065488Y0098844D02*
X0068669Y0098844D01*
X0068669Y0097876D01*
X0069638Y0097876D01*
X0069638Y0094892D01*
X0071516Y0094892D01*
X0071898Y0094994D01*
X0072240Y0095191D01*
X0072519Y0095471D01*
X0072712Y0095805D01*
X0073225Y0095292D01*
X0078467Y0095292D01*
X0079112Y0095936D01*
X0079112Y0100210D01*
X0079887Y0100210D01*
X0080400Y0099697D01*
X0080400Y0097197D01*
X0081400Y0096197D01*
X0082337Y0095260D01*
X0092163Y0095260D01*
X0092587Y0095685D01*
X0092659Y0095644D01*
X0093167Y0095507D01*
X0093431Y0095507D01*
X0093431Y0099007D01*
X0093431Y0099007D01*
X0093431Y0097507D02*
X0093431Y0100507D01*
X0095407Y0100507D02*
X0095407Y0097507D01*
X0095407Y0099007D02*
X0095407Y0093768D01*
X0094000Y0092360D01*
X0084000Y0092360D01*
X0080000Y0088360D01*
X0079608Y0090231D02*
X0079112Y0090231D01*
X0078667Y0091229D02*
X0080606Y0091229D01*
X0081605Y0092228D02*
X0055150Y0092228D01*
X0055107Y0091229D02*
X0065776Y0091229D01*
X0065488Y0090231D02*
X0054618Y0090231D01*
X0053600Y0089232D02*
X0065488Y0089232D01*
X0065488Y0087235D02*
X0053600Y0087235D01*
X0053600Y0086237D02*
X0065488Y0086237D01*
X0068669Y0088234D02*
X0053600Y0088234D01*
X0050400Y0088234D02*
X0036181Y0088234D01*
X0036399Y0089232D02*
X0050400Y0089232D01*
X0050382Y0090231D02*
X0036399Y0090231D01*
X0036399Y0091229D02*
X0049893Y0091229D01*
X0049850Y0092228D02*
X0036399Y0092228D01*
X0036399Y0093226D02*
X0050197Y0093226D01*
X0053716Y0094225D02*
X0093602Y0094225D01*
X0093807Y0095223D02*
X0072272Y0095223D01*
X0069638Y0095223D02*
X0068669Y0095223D01*
X0069154Y0094855D02*
X0069154Y0098360D01*
X0069154Y0108360D01*
X0069052Y0107961D01*
X0068669Y0107876D02*
X0069638Y0107876D01*
X0069638Y0104892D01*
X0071516Y0104892D01*
X0071898Y0104994D01*
X0072240Y0105191D01*
X0072519Y0105471D01*
X0072712Y0105805D01*
X0073225Y0105292D01*
X0074246Y0105292D01*
X0074246Y0103394D01*
X0074209Y0103352D01*
X0074246Y0102739D01*
X0074246Y0101429D01*
X0073225Y0101429D01*
X0072712Y0100915D01*
X0072519Y0101250D01*
X0072240Y0101529D01*
X0071898Y0101727D01*
X0071516Y0101829D01*
X0069638Y0101829D01*
X0069638Y0098845D01*
X0068669Y0098845D01*
X0068669Y0101829D01*
X0066791Y0101829D01*
X0066409Y0101727D01*
X0066067Y0101529D01*
X0065788Y0101250D01*
X0065590Y0100908D01*
X0065488Y0100526D01*
X0065488Y0098844D01*
X0065488Y0099217D02*
X0034340Y0099217D01*
X0034340Y0098219D02*
X0068669Y0098219D01*
X0068669Y0099217D02*
X0069638Y0099217D01*
X0069638Y0100216D02*
X0068669Y0100216D01*
X0068669Y0101214D02*
X0069638Y0101214D01*
X0072540Y0101214D02*
X0073011Y0101214D01*
X0074246Y0102213D02*
X0056615Y0102213D01*
X0055617Y0101214D02*
X0065767Y0101214D01*
X0065488Y0100216D02*
X0042521Y0100216D01*
X0039020Y0101860D02*
X0038862Y0101703D01*
X0038705Y0101860D01*
X0034500Y0101860D01*
X0032740Y0100100D01*
X0032740Y0091860D01*
X0029081Y0092228D02*
X0028919Y0092228D01*
X0028919Y0093226D02*
X0029081Y0093226D01*
X0029081Y0094225D02*
X0028919Y0094225D01*
X0028919Y0095223D02*
X0029081Y0095223D01*
X0031140Y0096222D02*
X0026860Y0096222D01*
X0026860Y0097220D02*
X0031140Y0097220D01*
X0031140Y0098219D02*
X0026860Y0098219D01*
X0026860Y0099217D02*
X0031140Y0099217D01*
X0031140Y0100216D02*
X0026860Y0100216D01*
X0026409Y0101214D02*
X0031591Y0101214D01*
X0032590Y0102213D02*
X0025410Y0102213D01*
X0025600Y0102023D02*
X0025600Y0102023D01*
X0024000Y0101360D02*
X0018929Y0101360D01*
X0018587Y0101703D01*
X0008657Y0101703D01*
X0006000Y0104360D01*
X0006000Y0157360D01*
X0010187Y0161547D01*
X0019358Y0161547D01*
X0027232Y0161547D02*
X0027232Y0155093D01*
X0025500Y0153360D01*
X0010000Y0153360D01*
X0008500Y0151860D01*
X0008500Y0118860D01*
X0010000Y0116860D01*
X0018567Y0116860D01*
X0018587Y0116880D01*
X0018726Y0114482D02*
X0018726Y0111843D01*
X0022646Y0111843D01*
X0022646Y0113180D01*
X0022543Y0113561D01*
X0022346Y0113903D01*
X0022067Y0114183D01*
X0021725Y0114380D01*
X0021343Y0114482D01*
X0018726Y0114482D01*
X0018726Y0114195D02*
X0018447Y0114195D01*
X0018447Y0113196D02*
X0018726Y0113196D01*
X0018726Y0112198D02*
X0018447Y0112198D01*
X0018587Y0111703D02*
X0019429Y0110860D01*
X0024500Y0110860D01*
X0027500Y0113860D01*
X0027500Y0132129D01*
X0027731Y0132360D01*
X0035500Y0132360D01*
X0035500Y0137860D01*
X0035500Y0132360D02*
X0044000Y0132360D01*
X0044346Y0132014D01*
X0044346Y0127360D01*
X0044346Y0116767D01*
X0044282Y0116703D01*
X0048996Y0116703D01*
X0049500Y0117207D01*
X0049984Y0117191D02*
X0055400Y0117191D01*
X0055400Y0118189D02*
X0052968Y0118189D01*
X0052968Y0117691D02*
X0052968Y0119570D01*
X0052866Y0119951D01*
X0052669Y0120293D01*
X0052390Y0120572D01*
X0052047Y0120770D01*
X0051666Y0120872D01*
X0049984Y0120872D01*
X0049984Y0117691D01*
X0049016Y0117691D01*
X0049016Y0120872D01*
X0047334Y0120872D01*
X0046953Y0120770D01*
X0046610Y0120572D01*
X0046331Y0120293D01*
X0046134Y0119951D01*
X0046031Y0119570D01*
X0046031Y0117691D01*
X0049016Y0117691D01*
X0049016Y0116722D01*
X0046031Y0116722D01*
X0046031Y0114844D01*
X0046134Y0114462D01*
X0046331Y0114120D01*
X0046610Y0113841D01*
X0046945Y0113648D01*
X0046599Y0113303D01*
X0042521Y0113303D01*
X0042521Y0113438D01*
X0041948Y0114011D01*
X0042000Y0114025D01*
X0042342Y0114223D01*
X0042622Y0114502D01*
X0042819Y0114844D01*
X0042921Y0115226D01*
X0042921Y0116563D01*
X0039002Y0116563D01*
X0039002Y0116843D01*
X0038722Y0116843D01*
X0038722Y0119482D01*
X0036106Y0119482D01*
X0035724Y0119380D01*
X0035382Y0119183D01*
X0035103Y0118903D01*
X0034905Y0118561D01*
X0034803Y0118180D01*
X0034803Y0116843D01*
X0038722Y0116843D01*
X0038722Y0116563D01*
X0034803Y0116563D01*
X0034803Y0115226D01*
X0034905Y0114844D01*
X0035103Y0114502D01*
X0035382Y0114223D01*
X0035724Y0114025D01*
X0035777Y0114011D01*
X0035203Y0113438D01*
X0035203Y0109968D01*
X0035848Y0109323D01*
X0037262Y0109323D01*
X0037262Y0109082D01*
X0035848Y0109082D01*
X0035203Y0108438D01*
X0035203Y0104968D01*
X0035848Y0104323D01*
X0041877Y0104323D01*
X0042521Y0104968D01*
X0042521Y0108438D01*
X0041877Y0109082D01*
X0040462Y0109082D01*
X0040462Y0109323D01*
X0041877Y0109323D01*
X0042521Y0109968D01*
X0042521Y0110103D01*
X0046431Y0110103D01*
X0046431Y0107893D01*
X0047076Y0107248D01*
X0051924Y0107248D01*
X0052568Y0107893D01*
X0052568Y0113135D01*
X0052055Y0113648D01*
X0052390Y0113841D01*
X0052669Y0114120D01*
X0052866Y0114462D01*
X0052968Y0114844D01*
X0052968Y0116722D01*
X0049984Y0116722D01*
X0049984Y0117691D01*
X0052968Y0117691D01*
X0052968Y0119188D02*
X0055400Y0119188D01*
X0054911Y0120186D02*
X0052731Y0120186D01*
X0053913Y0121185D02*
X0031600Y0121185D01*
X0031600Y0122183D02*
X0048414Y0122183D01*
X0047416Y0123182D02*
X0031600Y0123182D01*
X0032083Y0124180D02*
X0041280Y0124180D01*
X0043862Y0124180D02*
X0044831Y0124180D01*
X0044831Y0125179D02*
X0043862Y0125179D01*
X0043862Y0126177D02*
X0044831Y0126177D01*
X0044831Y0128174D02*
X0043862Y0128174D01*
X0043862Y0129173D02*
X0044831Y0129173D01*
X0044831Y0130171D02*
X0043862Y0130171D01*
X0046400Y0131170D02*
X0023498Y0131170D01*
X0023899Y0130171D02*
X0034775Y0130171D01*
X0034388Y0129173D02*
X0023899Y0129173D01*
X0023899Y0128174D02*
X0031551Y0128174D01*
X0030553Y0127176D02*
X0023899Y0127176D01*
X0023899Y0126177D02*
X0029554Y0126177D01*
X0028556Y0125179D02*
X0023899Y0125179D01*
X0023899Y0124180D02*
X0028400Y0124180D01*
X0028400Y0123182D02*
X0014360Y0123182D01*
X0014360Y0122183D02*
X0028400Y0122183D01*
X0028400Y0121185D02*
X0014527Y0121185D01*
X0014650Y0120186D02*
X0028400Y0120186D01*
X0028400Y0119188D02*
X0021673Y0119188D01*
X0022246Y0118189D02*
X0028400Y0118189D01*
X0028400Y0117191D02*
X0022246Y0117191D01*
X0022246Y0116192D02*
X0028400Y0116192D01*
X0028400Y0115194D02*
X0022246Y0115194D01*
X0022045Y0114195D02*
X0028400Y0114195D01*
X0028400Y0113196D02*
X0022641Y0113196D01*
X0022646Y0112198D02*
X0028400Y0112198D01*
X0028076Y0111199D02*
X0022646Y0111199D01*
X0022639Y0110201D02*
X0027078Y0110201D01*
X0026079Y0109202D02*
X0022031Y0109202D01*
X0018587Y0106703D02*
X0018244Y0106360D01*
X0013500Y0106360D01*
X0010000Y0108860D01*
X0010000Y0109360D01*
X0011908Y0111199D02*
X0014528Y0111199D01*
X0014534Y0110201D02*
X0012520Y0110201D01*
X0012650Y0109202D02*
X0015142Y0109202D01*
X0014928Y0108204D02*
X0013672Y0108204D01*
X0012360Y0105208D02*
X0007600Y0105208D01*
X0007600Y0106207D02*
X0010962Y0106207D01*
X0008407Y0107205D02*
X0007600Y0107205D01*
X0007600Y0108204D02*
X0007611Y0108204D01*
X0007600Y0111199D02*
X0008092Y0111199D01*
X0007600Y0112198D02*
X0014528Y0112198D01*
X0014532Y0113196D02*
X0007600Y0113196D01*
X0007600Y0114195D02*
X0015128Y0114195D01*
X0014928Y0115194D02*
X0010444Y0115194D01*
X0010353Y0115194D02*
X0007600Y0115194D01*
X0007600Y0116192D02*
X0008405Y0116192D01*
X0007752Y0117191D02*
X0007600Y0117191D01*
X0012000Y0120360D02*
X0012760Y0121120D01*
X0012760Y0127360D01*
X0016419Y0127176D02*
X0016581Y0127176D01*
X0016581Y0128174D02*
X0016419Y0128174D01*
X0016419Y0129173D02*
X0016581Y0129173D01*
X0016581Y0130171D02*
X0016419Y0130171D01*
X0014000Y0132360D02*
X0013000Y0133360D01*
X0013000Y0137620D01*
X0012760Y0137860D01*
X0012654Y0137967D01*
X0012654Y0148360D01*
X0015919Y0148144D02*
X0016081Y0148144D01*
X0016081Y0147146D02*
X0015919Y0147146D01*
X0015919Y0146147D02*
X0016081Y0146147D01*
X0016081Y0145936D02*
X0016725Y0145292D01*
X0021967Y0145292D01*
X0022612Y0145936D01*
X0022612Y0146760D01*
X0030601Y0146760D01*
X0030601Y0144952D01*
X0031245Y0144307D01*
X0037275Y0144307D01*
X0037919Y0144952D01*
X0037919Y0151769D01*
X0037275Y0152413D01*
X0031245Y0152413D01*
X0030601Y0151769D01*
X0030601Y0149960D01*
X0022612Y0149960D01*
X0022612Y0150784D01*
X0021967Y0151429D01*
X0016725Y0151429D01*
X0016081Y0150784D01*
X0016081Y0145936D01*
X0014254Y0145149D02*
X0030601Y0145149D01*
X0030601Y0146147D02*
X0022612Y0146147D01*
X0019346Y0148360D02*
X0034260Y0148360D01*
X0030601Y0150141D02*
X0022612Y0150141D01*
X0022256Y0151140D02*
X0030601Y0151140D01*
X0030971Y0152138D02*
X0026541Y0152138D01*
X0027539Y0153137D02*
X0049750Y0153137D01*
X0049750Y0154135D02*
X0028538Y0154135D01*
X0028832Y0155134D02*
X0049750Y0155134D01*
X0049750Y0156132D02*
X0029589Y0156132D01*
X0030447Y0157131D02*
X0049750Y0157131D01*
X0049750Y0158129D02*
X0030861Y0158129D01*
X0030907Y0159128D02*
X0049750Y0159128D01*
X0049750Y0160127D02*
X0030907Y0160127D01*
X0030907Y0161125D02*
X0049750Y0161125D01*
X0049750Y0162124D02*
X0030907Y0162124D01*
X0030907Y0163122D02*
X0049750Y0163122D01*
X0049750Y0164121D02*
X0030907Y0164121D01*
X0030797Y0165119D02*
X0049750Y0165119D01*
X0049750Y0166118D02*
X0030383Y0166118D01*
X0037549Y0152138D02*
X0038451Y0152138D01*
X0038081Y0151140D02*
X0037919Y0151140D01*
X0037919Y0150141D02*
X0038081Y0150141D01*
X0038081Y0149143D02*
X0037919Y0149143D01*
X0037919Y0148144D02*
X0038081Y0148144D01*
X0038081Y0147146D02*
X0037919Y0147146D01*
X0037919Y0146147D02*
X0038081Y0146147D01*
X0038081Y0145149D02*
X0037919Y0145149D01*
X0041740Y0148360D02*
X0044500Y0148360D01*
X0046500Y0146360D01*
X0046500Y0133860D01*
X0048000Y0132360D01*
X0048000Y0124860D01*
X0050000Y0122860D01*
X0054500Y0122860D01*
X0057000Y0120360D01*
X0057000Y0104860D01*
X0054000Y0101860D01*
X0039020Y0101860D01*
X0035203Y0100216D02*
X0035118Y0100216D01*
X0033588Y0103211D02*
X0022246Y0103211D01*
X0024000Y0101360D02*
X0025260Y0100100D01*
X0025260Y0091860D01*
X0021601Y0092228D02*
X0006000Y0092228D01*
X0006000Y0093226D02*
X0021601Y0093226D01*
X0021601Y0094225D02*
X0006000Y0094225D01*
X0006000Y0095223D02*
X0021601Y0095223D01*
X0023660Y0096222D02*
X0006000Y0096222D01*
X0006000Y0097220D02*
X0023660Y0097220D01*
X0023660Y0098219D02*
X0006000Y0098219D01*
X0006000Y0099217D02*
X0023660Y0099217D01*
X0026611Y0105208D02*
X0035203Y0105208D01*
X0035203Y0106207D02*
X0027609Y0106207D01*
X0028608Y0107205D02*
X0035203Y0107205D01*
X0035203Y0108204D02*
X0029606Y0108204D01*
X0030605Y0109202D02*
X0037262Y0109202D01*
X0035203Y0110201D02*
X0031600Y0110201D01*
X0031600Y0111199D02*
X0035203Y0111199D01*
X0035203Y0112198D02*
X0031600Y0112198D01*
X0031600Y0113196D02*
X0035203Y0113196D01*
X0035431Y0114195D02*
X0031600Y0114195D01*
X0031600Y0115194D02*
X0034812Y0115194D01*
X0034803Y0116192D02*
X0031600Y0116192D01*
X0031600Y0117191D02*
X0034803Y0117191D01*
X0034806Y0118189D02*
X0031600Y0118189D01*
X0031600Y0119188D02*
X0035391Y0119188D01*
X0038722Y0119188D02*
X0039002Y0119188D01*
X0039002Y0119482D02*
X0039002Y0116843D01*
X0042921Y0116843D01*
X0042921Y0118180D01*
X0042819Y0118561D01*
X0042622Y0118903D01*
X0042342Y0119183D01*
X0042000Y0119380D01*
X0041619Y0119482D01*
X0039002Y0119482D01*
X0039002Y0118189D02*
X0038722Y0118189D01*
X0038722Y0117191D02*
X0039002Y0117191D01*
X0038862Y0116703D02*
X0044282Y0116703D01*
X0042921Y0117191D02*
X0049016Y0117191D01*
X0049016Y0118189D02*
X0049984Y0118189D01*
X0049984Y0119188D02*
X0049016Y0119188D01*
X0049016Y0120186D02*
X0049984Y0120186D01*
X0046269Y0120186D02*
X0031600Y0120186D01*
X0030000Y0124360D02*
X0033000Y0127360D01*
X0037654Y0127360D01*
X0034388Y0125179D02*
X0033081Y0125179D01*
X0030000Y0124360D02*
X0030000Y0110860D01*
X0025843Y0106703D01*
X0018587Y0106703D01*
X0008413Y0104210D02*
X0054087Y0104210D01*
X0055085Y0105208D02*
X0042521Y0105208D01*
X0042521Y0106207D02*
X0055400Y0106207D01*
X0055400Y0107205D02*
X0042521Y0107205D01*
X0042521Y0108204D02*
X0046431Y0108204D01*
X0046431Y0109202D02*
X0040462Y0109202D01*
X0038862Y0106703D02*
X0038862Y0111703D01*
X0048311Y0111703D01*
X0049500Y0110514D01*
X0052568Y0110201D02*
X0055400Y0110201D01*
X0055400Y0111199D02*
X0052568Y0111199D01*
X0052568Y0112198D02*
X0055400Y0112198D01*
X0055400Y0113196D02*
X0052507Y0113196D01*
X0052712Y0114195D02*
X0055400Y0114195D01*
X0055400Y0115194D02*
X0052968Y0115194D01*
X0052968Y0116192D02*
X0055400Y0116192D01*
X0058600Y0116192D02*
X0059400Y0116192D01*
X0059400Y0115194D02*
X0058600Y0115194D01*
X0058600Y0114195D02*
X0059402Y0114195D01*
X0059400Y0114197D02*
X0060337Y0113260D01*
X0061837Y0111760D01*
X0066535Y0111760D01*
X0066409Y0111727D01*
X0066067Y0111529D01*
X0065788Y0111250D01*
X0065590Y0110908D01*
X0065488Y0110526D01*
X0065488Y0108844D01*
X0068669Y0108844D01*
X0068669Y0107876D01*
X0065488Y0107876D01*
X0065488Y0106194D01*
X0065590Y0105813D01*
X0065788Y0105471D01*
X0066067Y0105191D01*
X0066409Y0104994D01*
X0066791Y0104892D01*
X0068669Y0104892D01*
X0068669Y0107876D01*
X0068669Y0108204D02*
X0058600Y0108204D01*
X0058600Y0109202D02*
X0065488Y0109202D01*
X0065488Y0110201D02*
X0058600Y0110201D01*
X0058600Y0111199D02*
X0065759Y0111199D01*
X0062500Y0113360D02*
X0061000Y0114860D01*
X0061000Y0125860D01*
X0059500Y0127860D01*
X0052500Y0127860D01*
X0054565Y0126177D02*
X0058762Y0126177D01*
X0058700Y0126260D02*
X0059400Y0125327D01*
X0059400Y0114197D01*
X0058600Y0113196D02*
X0060401Y0113196D01*
X0061400Y0112198D02*
X0058600Y0112198D01*
X0062500Y0113360D02*
X0074000Y0113360D01*
X0075846Y0111514D01*
X0075846Y0108360D01*
X0083000Y0108360D01*
X0083500Y0107860D01*
X0083500Y0103360D01*
X0084605Y0102255D01*
X0088287Y0102255D01*
X0086787Y0102255D02*
X0089787Y0102255D01*
X0089787Y0104242D02*
X0086787Y0104242D01*
X0085187Y0104210D02*
X0085100Y0104210D01*
X0085100Y0104023D02*
X0085100Y0108523D01*
X0084163Y0109460D01*
X0083663Y0109960D01*
X0079112Y0109960D01*
X0079112Y0110784D01*
X0078467Y0111429D01*
X0077446Y0111429D01*
X0077446Y0112177D01*
X0075600Y0114023D01*
X0074663Y0114960D01*
X0063163Y0114960D01*
X0062600Y0115523D01*
X0062600Y0125747D01*
X0062678Y0126290D01*
X0062600Y0126394D01*
X0062600Y0126523D01*
X0062212Y0126911D01*
X0061100Y0128394D01*
X0061100Y0128523D01*
X0060712Y0128911D01*
X0060382Y0129350D01*
X0060254Y0129369D01*
X0060163Y0129460D01*
X0059614Y0129460D01*
X0059070Y0129538D01*
X0058967Y0129460D01*
X0054648Y0129460D01*
X0054001Y0130107D01*
X0053027Y0130510D01*
X0051973Y0130510D01*
X0050999Y0130107D01*
X0050253Y0129361D01*
X0049850Y0128387D01*
X0049850Y0127333D01*
X0050253Y0126359D01*
X0050999Y0125614D01*
X0051973Y0125210D01*
X0053027Y0125210D01*
X0054001Y0125614D01*
X0054648Y0126260D01*
X0058700Y0126260D01*
X0059400Y0125179D02*
X0049944Y0125179D01*
X0049600Y0126177D02*
X0050435Y0126177D01*
X0049915Y0127176D02*
X0049600Y0127176D01*
X0049600Y0128174D02*
X0049850Y0128174D01*
X0049600Y0129173D02*
X0050175Y0129173D01*
X0049600Y0130171D02*
X0051154Y0130171D01*
X0049600Y0131170D02*
X0068047Y0131170D01*
X0067400Y0130171D02*
X0053846Y0130171D01*
X0050131Y0132168D02*
X0049600Y0132168D01*
X0049456Y0133167D02*
X0049750Y0133167D01*
X0049750Y0134165D02*
X0048458Y0134165D01*
X0048100Y0135164D02*
X0049750Y0135164D01*
X0049750Y0136162D02*
X0048100Y0136162D01*
X0048100Y0137161D02*
X0049750Y0137161D01*
X0049750Y0138159D02*
X0048100Y0138159D01*
X0048100Y0139158D02*
X0049750Y0139158D01*
X0049750Y0140156D02*
X0048100Y0140156D01*
X0048100Y0141155D02*
X0049750Y0141155D01*
X0049750Y0142153D02*
X0048100Y0142153D01*
X0048100Y0143152D02*
X0049750Y0143152D01*
X0049750Y0144150D02*
X0048100Y0144150D01*
X0048100Y0145149D02*
X0049750Y0145149D01*
X0049750Y0146147D02*
X0048100Y0146147D01*
X0047977Y0147146D02*
X0049750Y0147146D01*
X0049750Y0148144D02*
X0046979Y0148144D01*
X0045980Y0149143D02*
X0049750Y0149143D01*
X0049750Y0150141D02*
X0045399Y0150141D01*
X0045399Y0151140D02*
X0049750Y0151140D01*
X0049750Y0152138D02*
X0045029Y0152138D01*
X0044900Y0144150D02*
X0014254Y0144150D01*
X0014254Y0143152D02*
X0044900Y0143152D01*
X0044900Y0142153D02*
X0023478Y0142153D01*
X0024261Y0141155D02*
X0044900Y0141155D01*
X0044900Y0140156D02*
X0024299Y0140156D01*
X0024299Y0139158D02*
X0044900Y0139158D01*
X0044900Y0138159D02*
X0020740Y0138159D01*
X0020240Y0137860D02*
X0025500Y0137860D01*
X0027500Y0135860D01*
X0027500Y0132129D01*
X0024103Y0134165D02*
X0044900Y0134165D01*
X0044900Y0135164D02*
X0024299Y0135164D01*
X0024299Y0136162D02*
X0044900Y0136162D01*
X0044900Y0137161D02*
X0024299Y0137161D01*
X0020740Y0137161D02*
X0019740Y0137161D01*
X0019740Y0136162D02*
X0020740Y0136162D01*
X0020740Y0135164D02*
X0019740Y0135164D01*
X0019740Y0134165D02*
X0020740Y0134165D01*
X0020956Y0133167D02*
X0044931Y0133167D01*
X0045929Y0132168D02*
X0021840Y0132168D01*
X0020240Y0131620D02*
X0019500Y0132360D01*
X0014000Y0132360D01*
X0020240Y0131620D02*
X0020240Y0127360D01*
X0016581Y0126177D02*
X0016419Y0126177D01*
X0016419Y0125179D02*
X0016581Y0125179D01*
X0016581Y0124180D02*
X0016419Y0124180D01*
X0015500Y0119188D02*
X0014383Y0119188D01*
X0006883Y0101214D02*
X0006000Y0101214D01*
X0006000Y0100216D02*
X0007882Y0100216D01*
X0006000Y0091229D02*
X0021601Y0091229D01*
X0021601Y0090231D02*
X0006000Y0090231D01*
X0006000Y0089232D02*
X0021601Y0089232D01*
X0021819Y0088234D02*
X0006000Y0088234D01*
X0006000Y0087235D02*
X0050400Y0087235D01*
X0050400Y0086237D02*
X0006000Y0086237D01*
X0006000Y0085238D02*
X0050400Y0085238D01*
X0050400Y0084240D02*
X0006000Y0084240D01*
X0006000Y0083241D02*
X0050400Y0083241D01*
X0050400Y0082243D02*
X0006000Y0082243D01*
X0006000Y0081244D02*
X0050400Y0081244D01*
X0050400Y0080246D02*
X0006000Y0080246D01*
X0006000Y0079247D02*
X0050400Y0079247D01*
X0050400Y0078249D02*
X0006000Y0078249D01*
X0006000Y0077250D02*
X0050400Y0077250D01*
X0050400Y0076252D02*
X0006000Y0076252D01*
X0006000Y0075253D02*
X0050400Y0075253D01*
X0050400Y0074255D02*
X0006000Y0074255D01*
X0006000Y0073256D02*
X0050400Y0073256D01*
X0050400Y0072258D02*
X0006000Y0072258D01*
X0006000Y0071259D02*
X0050400Y0071259D01*
X0050400Y0070260D02*
X0006000Y0070260D01*
X0006000Y0069262D02*
X0050400Y0069262D01*
X0050400Y0068263D02*
X0006000Y0068263D01*
X0006000Y0067265D02*
X0050142Y0067265D01*
X0057100Y0064269D02*
X0069669Y0064269D01*
X0069532Y0064360D02*
X0070154Y0064360D01*
X0069532Y0064360D02*
X0069500Y0064329D01*
X0069532Y0064360D02*
X0064500Y0064360D01*
X0069669Y0063271D02*
X0070638Y0063271D01*
X0070638Y0062272D02*
X0069669Y0062272D01*
X0069669Y0061274D02*
X0070638Y0061274D01*
X0071000Y0058860D02*
X0068500Y0056360D01*
X0068500Y0047537D01*
X0068677Y0047360D01*
X0073500Y0047360D01*
X0075928Y0046296D02*
X0118900Y0046296D01*
X0118900Y0045298D02*
X0075185Y0045298D01*
X0075001Y0045114D02*
X0075747Y0045859D01*
X0076150Y0046833D01*
X0076150Y0047887D01*
X0075747Y0048861D01*
X0075001Y0049607D01*
X0074027Y0050010D01*
X0072973Y0050010D01*
X0071999Y0049607D01*
X0071352Y0048960D01*
X0070100Y0048960D01*
X0070100Y0055697D01*
X0071663Y0057260D01*
X0076163Y0057260D01*
X0077100Y0058197D01*
X0077100Y0058198D01*
X0077663Y0058760D01*
X0078600Y0059697D01*
X0078600Y0061292D01*
X0079467Y0061292D01*
X0080112Y0061936D01*
X0080112Y0063209D01*
X0080600Y0063697D01*
X0081100Y0064197D01*
X0081100Y0067197D01*
X0082163Y0068260D01*
X0090337Y0068260D01*
X0092558Y0066040D01*
X0094106Y0066040D01*
X0094087Y0065967D01*
X0094087Y0065081D01*
X0096964Y0065081D01*
X0096964Y0065081D01*
X0094087Y0065081D01*
X0094087Y0064194D01*
X0094189Y0063813D01*
X0094386Y0063471D01*
X0094487Y0063370D01*
X0094487Y0061377D01*
X0095131Y0060733D01*
X0098798Y0060733D01*
X0098826Y0060760D01*
X0100663Y0060760D01*
X0101600Y0061697D01*
X0101600Y0061698D01*
X0101663Y0061760D01*
X0102157Y0062255D01*
X0102157Y0061635D01*
X0102260Y0061254D01*
X0102457Y0060912D01*
X0102736Y0060632D01*
X0103078Y0060435D01*
X0103460Y0060333D01*
X0105035Y0060333D01*
X0105035Y0062522D01*
X0105035Y0059896D01*
X0104500Y0059360D01*
X0094000Y0059360D01*
X0093000Y0060360D01*
X0093000Y0064849D01*
X0093232Y0065081D01*
X0088280Y0065081D01*
X0087000Y0066360D01*
X0084500Y0063860D01*
X0084500Y0050360D01*
X0084500Y0047360D01*
X0088500Y0043360D01*
X0090500Y0043360D01*
X0076150Y0047295D02*
X0118900Y0047295D01*
X0118900Y0048293D02*
X0075982Y0048293D01*
X0075316Y0049292D02*
X0118900Y0049292D01*
X0118900Y0050290D02*
X0070100Y0050290D01*
X0070100Y0049292D02*
X0071684Y0049292D01*
X0070100Y0051289D02*
X0118900Y0051289D01*
X0118900Y0052287D02*
X0070100Y0052287D01*
X0070100Y0053286D02*
X0118900Y0053286D01*
X0118900Y0054284D02*
X0070100Y0054284D01*
X0070100Y0055283D02*
X0118900Y0055283D01*
X0118900Y0056281D02*
X0070684Y0056281D01*
X0071000Y0058860D02*
X0075500Y0058860D01*
X0077000Y0060360D01*
X0077000Y0064153D01*
X0077208Y0064360D01*
X0077196Y0064360D01*
X0076887Y0064669D01*
X0076846Y0064360D01*
X0076846Y0067014D01*
X0075500Y0068360D01*
X0071000Y0068360D01*
X0070000Y0069360D01*
X0070000Y0072429D01*
X0069760Y0072669D01*
X0069760Y0071600D01*
X0069760Y0072669D02*
X0069760Y0073860D01*
X0073419Y0074255D02*
X0073581Y0074255D01*
X0073581Y0075253D02*
X0073419Y0075253D01*
X0073419Y0076252D02*
X0073581Y0076252D01*
X0073581Y0077250D02*
X0073419Y0077250D01*
X0073419Y0073256D02*
X0073581Y0073256D01*
X0073581Y0072258D02*
X0073419Y0072258D01*
X0073419Y0071259D02*
X0073581Y0071259D01*
X0073772Y0070260D02*
X0073228Y0070260D01*
X0077240Y0073860D02*
X0077740Y0073360D01*
X0092500Y0073360D01*
X0095661Y0070199D01*
X0096965Y0070199D01*
X0095865Y0072258D02*
X0110088Y0072258D01*
X0109850Y0073256D02*
X0094867Y0073256D01*
X0093868Y0074255D02*
X0110002Y0074255D01*
X0110645Y0075253D02*
X0080899Y0075253D01*
X0080899Y0076252D02*
X0088346Y0076252D01*
X0087347Y0077250D02*
X0080899Y0077250D01*
X0076368Y0081244D02*
X0070632Y0081244D01*
X0071113Y0082243D02*
X0075887Y0082243D01*
X0075850Y0083241D02*
X0071150Y0083241D01*
X0070797Y0084240D02*
X0076203Y0084240D01*
X0073500Y0084860D02*
X0070154Y0088207D01*
X0069638Y0089232D02*
X0068669Y0089232D01*
X0068669Y0090231D02*
X0069638Y0090231D01*
X0069638Y0091229D02*
X0068669Y0091229D01*
X0072531Y0091229D02*
X0073026Y0091229D01*
X0069638Y0096222D02*
X0068669Y0096222D01*
X0068669Y0097220D02*
X0069638Y0097220D01*
X0075846Y0098360D02*
X0075846Y0102788D01*
X0075879Y0102255D01*
X0075846Y0102788D02*
X0075846Y0108360D01*
X0074246Y0105208D02*
X0072257Y0105208D01*
X0074246Y0104210D02*
X0058600Y0104210D01*
X0058600Y0105208D02*
X0066050Y0105208D01*
X0065488Y0106207D02*
X0058600Y0106207D01*
X0058600Y0107205D02*
X0065488Y0107205D01*
X0068669Y0107205D02*
X0069638Y0107205D01*
X0069638Y0106207D02*
X0068669Y0106207D01*
X0068669Y0105208D02*
X0069638Y0105208D01*
X0074218Y0103211D02*
X0057614Y0103211D01*
X0055400Y0108204D02*
X0052568Y0108204D01*
X0052568Y0109202D02*
X0055400Y0109202D01*
X0062929Y0115194D02*
X0089834Y0115194D01*
X0089834Y0116192D02*
X0062600Y0116192D01*
X0062600Y0117191D02*
X0066069Y0117191D01*
X0065490Y0118189D02*
X0062600Y0118189D01*
X0062600Y0119188D02*
X0065488Y0119188D01*
X0065488Y0121185D02*
X0062600Y0121185D01*
X0062600Y0122183D02*
X0065488Y0122183D01*
X0065749Y0123182D02*
X0062600Y0123182D01*
X0062600Y0124180D02*
X0097900Y0124180D01*
X0097900Y0123182D02*
X0078715Y0123182D01*
X0079112Y0118189D02*
X0090305Y0118189D01*
X0089834Y0117191D02*
X0072238Y0117191D01*
X0069638Y0117191D02*
X0068669Y0117191D01*
X0068669Y0118189D02*
X0069638Y0118189D01*
X0069638Y0119188D02*
X0068669Y0119188D01*
X0068669Y0120186D02*
X0062600Y0120186D01*
X0059400Y0120186D02*
X0058600Y0120186D01*
X0058600Y0119188D02*
X0059400Y0119188D01*
X0059400Y0118189D02*
X0058600Y0118189D01*
X0058600Y0117191D02*
X0059400Y0117191D01*
X0059400Y0121185D02*
X0058438Y0121185D01*
X0059400Y0122183D02*
X0057440Y0122183D01*
X0056441Y0123182D02*
X0059400Y0123182D01*
X0059400Y0124180D02*
X0055443Y0124180D01*
X0060516Y0129173D02*
X0067400Y0129173D01*
X0066676Y0128174D02*
X0061265Y0128174D01*
X0062013Y0127176D02*
X0066350Y0127176D01*
X0066415Y0126177D02*
X0062662Y0126177D01*
X0062600Y0125179D02*
X0066934Y0125179D01*
X0068669Y0123182D02*
X0069638Y0123182D01*
X0069638Y0122183D02*
X0068669Y0122183D01*
X0068669Y0121185D02*
X0069638Y0121185D01*
X0072559Y0123182D02*
X0072978Y0123182D01*
X0071066Y0125179D02*
X0097900Y0125179D01*
X0098054Y0126177D02*
X0071585Y0126177D01*
X0071650Y0127176D02*
X0099053Y0127176D01*
X0100051Y0128174D02*
X0071324Y0128174D01*
X0070600Y0129173D02*
X0116158Y0129173D01*
X0118842Y0129173D02*
X0147440Y0129173D01*
X0146917Y0130171D02*
X0071574Y0130171D01*
X0071250Y0132110D02*
X0148250Y0132110D01*
X0149500Y0130860D01*
X0151560Y0129173D02*
X0158801Y0129173D01*
X0158971Y0128174D02*
X0119824Y0128174D01*
X0120150Y0127176D02*
X0125053Y0127176D01*
X0124077Y0126200D02*
X0124077Y0126200D01*
X0124054Y0126177D02*
X0120085Y0126177D01*
X0119566Y0125179D02*
X0123140Y0125179D01*
X0123140Y0124180D02*
X0118860Y0124180D01*
X0118860Y0123182D02*
X0123140Y0123182D01*
X0121496Y0122183D02*
X0120504Y0122183D01*
X0120919Y0121185D02*
X0121081Y0121185D01*
X0121081Y0120186D02*
X0120919Y0120186D01*
X0120919Y0119188D02*
X0121081Y0119188D01*
X0121081Y0118189D02*
X0120919Y0118189D01*
X0120919Y0117191D02*
X0121081Y0117191D01*
X0121081Y0116192D02*
X0120919Y0116192D01*
X0120919Y0115194D02*
X0121081Y0115194D01*
X0123140Y0114195D02*
X0114100Y0114195D01*
X0114100Y0113196D02*
X0123140Y0113196D01*
X0121510Y0112198D02*
X0120490Y0112198D01*
X0120919Y0111199D02*
X0121081Y0111199D01*
X0121081Y0110201D02*
X0120919Y0110201D01*
X0120919Y0109202D02*
X0121081Y0109202D01*
X0121081Y0108204D02*
X0120919Y0108204D01*
X0120919Y0107205D02*
X0121081Y0107205D01*
X0121081Y0106207D02*
X0120919Y0106207D01*
X0120919Y0105208D02*
X0121081Y0105208D01*
X0117260Y0108360D02*
X0113500Y0108360D01*
X0112500Y0109360D01*
X0112500Y0120860D01*
X0109913Y0121185D02*
X0109572Y0121185D01*
X0106499Y0121114D02*
X0105852Y0121760D01*
X0103163Y0121760D01*
X0103087Y0121684D01*
X0103087Y0114308D01*
X0104635Y0114308D01*
X0104635Y0112308D01*
X0104635Y0113196D02*
X0104635Y0113196D01*
X0104635Y0114195D02*
X0104635Y0114195D01*
X0103087Y0115194D02*
X0110900Y0115194D01*
X0110900Y0116192D02*
X0103087Y0116192D01*
X0106819Y0114195D02*
X0110900Y0114195D01*
X0110900Y0113196D02*
X0107931Y0113196D01*
X0108135Y0112198D02*
X0110900Y0112198D01*
X0110900Y0111199D02*
X0107804Y0111199D01*
X0107735Y0110201D02*
X0110900Y0110201D01*
X0110900Y0109202D02*
X0107530Y0109202D01*
X0107735Y0108204D02*
X0111394Y0108204D01*
X0112392Y0107205D02*
X0107420Y0107205D01*
X0107735Y0106207D02*
X0113601Y0106207D01*
X0113601Y0105208D02*
X0107431Y0105208D01*
X0107735Y0104210D02*
X0115587Y0104210D01*
X0114588Y0103211D02*
X0107441Y0103211D01*
X0107735Y0102213D02*
X0113900Y0102213D01*
X0113900Y0101214D02*
X0107357Y0101214D01*
X0106135Y0102255D02*
X0103135Y0102255D01*
X0103087Y0100216D02*
X0113900Y0100216D01*
X0120600Y0100216D02*
X0125093Y0100216D01*
X0124094Y0099217D02*
X0120600Y0099217D01*
X0120600Y0098219D02*
X0123400Y0098219D01*
X0125000Y0097860D02*
X0125000Y0093600D01*
X0124760Y0093360D01*
X0121101Y0093226D02*
X0120600Y0093226D01*
X0120600Y0092228D02*
X0121101Y0092228D01*
X0121101Y0091229D02*
X0120600Y0091229D01*
X0120600Y0090231D02*
X0121101Y0090231D01*
X0117400Y0090231D02*
X0084133Y0090231D01*
X0082603Y0093226D02*
X0054803Y0093226D01*
X0058647Y0081244D02*
X0066368Y0081244D01*
X0079500Y0067860D02*
X0081500Y0069860D01*
X0091000Y0069860D01*
X0093220Y0067640D01*
X0096965Y0067640D01*
X0099720Y0067640D01*
X0101000Y0066360D01*
X0101000Y0063360D01*
X0100000Y0062360D01*
X0097126Y0062360D01*
X0096965Y0062522D01*
X0096803Y0062360D01*
X0094487Y0062272D02*
X0080112Y0062272D01*
X0080173Y0063271D02*
X0094487Y0063271D01*
X0094087Y0064269D02*
X0081100Y0064269D01*
X0081100Y0065268D02*
X0094087Y0065268D01*
X0093232Y0065081D02*
X0096965Y0065081D01*
X0094590Y0061274D02*
X0078600Y0061274D01*
X0078600Y0060275D02*
X0119322Y0060275D01*
X0118900Y0060697D02*
X0119837Y0059760D01*
X0121637Y0059760D01*
X0120900Y0059023D01*
X0118900Y0057023D01*
X0118900Y0039723D01*
X0118163Y0040460D01*
X0072663Y0040460D01*
X0070100Y0043023D01*
X0070100Y0045760D01*
X0071352Y0045760D01*
X0071999Y0045114D01*
X0072973Y0044710D01*
X0074027Y0044710D01*
X0075001Y0045114D01*
X0071815Y0045298D02*
X0070100Y0045298D01*
X0070100Y0044299D02*
X0118900Y0044299D01*
X0118900Y0043301D02*
X0070100Y0043301D01*
X0070821Y0042302D02*
X0118900Y0042302D01*
X0118900Y0041304D02*
X0071819Y0041304D01*
X0072000Y0038860D02*
X0117500Y0038860D01*
X0120500Y0035860D01*
X0120500Y0030360D01*
X0120500Y0056360D01*
X0122500Y0058360D01*
X0156000Y0058360D01*
X0163351Y0062272D02*
X0167509Y0062272D01*
X0167350Y0061274D02*
X0164349Y0061274D01*
X0165348Y0060275D02*
X0167581Y0060275D01*
X0168336Y0059277D02*
X0165600Y0059277D01*
X0165600Y0058278D02*
X0177500Y0058278D01*
X0177500Y0057280D02*
X0165600Y0057280D01*
X0165600Y0056281D02*
X0177500Y0056281D01*
X0177500Y0055283D02*
X0177376Y0055283D01*
X0166624Y0055283D02*
X0165600Y0055283D01*
X0165600Y0054284D02*
X0165626Y0054284D01*
X0176167Y0067265D02*
X0177500Y0067265D01*
X0177500Y0068263D02*
X0177166Y0068263D01*
X0154149Y0084212D02*
X0152669Y0085691D01*
X0151740Y0085691D01*
X0148672Y0085238D02*
X0147328Y0085238D01*
X0147328Y0084240D02*
X0148672Y0084240D01*
X0148672Y0083241D02*
X0147328Y0083241D01*
X0147092Y0082243D02*
X0148908Y0082243D01*
X0144260Y0085691D02*
X0144260Y0088100D01*
X0142500Y0089860D01*
X0135740Y0089860D01*
X0135899Y0092228D02*
X0141191Y0092228D01*
X0141191Y0093226D02*
X0135899Y0093226D01*
X0135899Y0094225D02*
X0141191Y0094225D01*
X0141191Y0095223D02*
X0135899Y0095223D01*
X0135899Y0096222D02*
X0141191Y0096222D01*
X0141191Y0097220D02*
X0135448Y0097220D01*
X0129033Y0097220D02*
X0127967Y0097220D01*
X0128419Y0096222D02*
X0128581Y0096222D01*
X0128581Y0095223D02*
X0128419Y0095223D01*
X0128419Y0094225D02*
X0128581Y0094225D01*
X0125000Y0097860D02*
X0126500Y0099360D01*
X0142500Y0099360D01*
X0144260Y0097600D01*
X0144260Y0095030D01*
X0146000Y0093289D01*
X0146000Y0091360D01*
X0147000Y0090360D01*
X0160500Y0090360D01*
X0162000Y0088860D01*
X0169313Y0088860D01*
X0173361Y0092228D02*
X0175400Y0092228D01*
X0175400Y0093226D02*
X0173021Y0093226D01*
X0174575Y0094225D02*
X0175400Y0094225D01*
X0175400Y0095223D02*
X0175239Y0095223D01*
X0175250Y0098219D02*
X0175400Y0098219D01*
X0175400Y0099217D02*
X0174602Y0099217D01*
X0175400Y0100216D02*
X0173085Y0100216D01*
X0173297Y0101214D02*
X0175400Y0101214D01*
X0175400Y0102213D02*
X0174689Y0102213D01*
X0175287Y0103211D02*
X0175400Y0103211D01*
X0175400Y0106207D02*
X0175203Y0106207D01*
X0175400Y0107205D02*
X0174488Y0107205D01*
X0175400Y0108204D02*
X0172810Y0108204D01*
X0175400Y0109202D02*
X0143100Y0109202D01*
X0143100Y0108204D02*
X0154096Y0108204D01*
X0153753Y0107861D02*
X0154499Y0108607D01*
X0155473Y0109010D01*
X0156527Y0109010D01*
X0157501Y0108607D01*
X0158247Y0107861D01*
X0158589Y0107034D01*
X0158600Y0107023D01*
X0158600Y0107008D01*
X0158650Y0106887D01*
X0158650Y0105833D01*
X0158600Y0105712D01*
X0158600Y0105697D01*
X0158589Y0105687D01*
X0158247Y0104859D01*
X0157501Y0104114D01*
X0156673Y0103771D01*
X0154993Y0102091D01*
X0151068Y0102091D01*
X0151068Y0100479D01*
X0150424Y0099835D01*
X0145576Y0099835D01*
X0144931Y0100479D01*
X0144931Y0106902D01*
X0145576Y0107547D01*
X0150424Y0107547D01*
X0151068Y0106902D01*
X0151068Y0105291D01*
X0153575Y0105291D01*
X0153350Y0105833D01*
X0153350Y0106887D01*
X0153753Y0107861D01*
X0153482Y0107205D02*
X0150766Y0107205D01*
X0151068Y0106207D02*
X0153350Y0106207D01*
X0156000Y0106360D02*
X0157000Y0106360D01*
X0154331Y0103691D01*
X0148000Y0103691D01*
X0144931Y0103211D02*
X0142599Y0103211D01*
X0143392Y0104210D02*
X0144931Y0104210D01*
X0144931Y0105208D02*
X0143650Y0105208D01*
X0143518Y0106207D02*
X0144931Y0106207D01*
X0145234Y0107205D02*
X0143100Y0107205D01*
X0141500Y0105360D02*
X0141000Y0105360D01*
X0141500Y0105360D02*
X0141500Y0117860D01*
X0144100Y0120460D01*
X0148700Y0120460D01*
X0144218Y0122183D02*
X0127985Y0122183D01*
X0128399Y0121185D02*
X0142562Y0121185D01*
X0141563Y0120186D02*
X0128399Y0120186D01*
X0128399Y0119188D02*
X0140565Y0119188D01*
X0139900Y0118189D02*
X0128399Y0118189D01*
X0128399Y0117191D02*
X0139900Y0117191D01*
X0139900Y0116192D02*
X0128399Y0116192D01*
X0128399Y0115194D02*
X0139900Y0115194D01*
X0139900Y0114195D02*
X0126340Y0114195D01*
X0126340Y0113196D02*
X0139900Y0113196D01*
X0139900Y0112198D02*
X0127970Y0112198D01*
X0128399Y0111199D02*
X0139900Y0111199D01*
X0139900Y0110201D02*
X0128399Y0110201D01*
X0128399Y0109202D02*
X0139900Y0109202D01*
X0139900Y0108204D02*
X0128399Y0108204D01*
X0128399Y0107205D02*
X0139098Y0107205D01*
X0138482Y0106207D02*
X0128399Y0106207D01*
X0128399Y0105208D02*
X0138350Y0105208D01*
X0138608Y0104210D02*
X0126600Y0104210D01*
X0126114Y0103211D02*
X0139401Y0103211D01*
X0143907Y0100216D02*
X0145195Y0100216D01*
X0144931Y0101214D02*
X0120600Y0101214D01*
X0120600Y0097220D02*
X0121552Y0097220D01*
X0121101Y0096222D02*
X0120600Y0096222D01*
X0120600Y0095223D02*
X0121101Y0095223D01*
X0121101Y0094225D02*
X0120600Y0094225D01*
X0117400Y0091229D02*
X0095132Y0091229D01*
X0094740Y0087235D02*
X0095740Y0087235D01*
X0095740Y0086237D02*
X0094740Y0086237D01*
X0094740Y0085238D02*
X0095740Y0085238D01*
X0095740Y0084240D02*
X0094740Y0084240D01*
X0094740Y0082243D02*
X0095740Y0082243D01*
X0095740Y0081244D02*
X0094740Y0081244D01*
X0094740Y0080246D02*
X0095740Y0080246D01*
X0095740Y0079247D02*
X0094740Y0079247D01*
X0091720Y0079247D02*
X0089876Y0079247D01*
X0087760Y0082137D02*
X0087760Y0083360D01*
X0090952Y0087235D02*
X0091482Y0087235D01*
X0098998Y0087235D02*
X0102067Y0087235D01*
X0101601Y0086237D02*
X0099299Y0086237D01*
X0099299Y0085238D02*
X0101601Y0085238D01*
X0101601Y0084240D02*
X0099299Y0084240D01*
X0108452Y0087235D02*
X0109548Y0087235D01*
X0109081Y0086237D02*
X0108919Y0086237D01*
X0108919Y0085238D02*
X0109081Y0085238D01*
X0109081Y0084240D02*
X0108919Y0084240D01*
X0112740Y0083360D02*
X0118000Y0083360D01*
X0119000Y0082360D01*
X0119000Y0062860D01*
X0117400Y0063271D02*
X0107913Y0063271D01*
X0107913Y0063408D02*
X0107811Y0063790D01*
X0107614Y0064132D01*
X0107513Y0064232D01*
X0107513Y0066040D01*
X0113677Y0066040D01*
X0114473Y0065710D01*
X0115527Y0065710D01*
X0116501Y0066114D01*
X0117247Y0066859D01*
X0117400Y0067230D01*
X0117400Y0063523D01*
X0117400Y0062197D01*
X0118900Y0060697D01*
X0118324Y0061274D02*
X0107817Y0061274D01*
X0107811Y0061254D02*
X0107913Y0061635D01*
X0107913Y0062522D01*
X0107913Y0063408D01*
X0107913Y0062522D02*
X0105036Y0062522D01*
X0105036Y0062522D01*
X0107913Y0062522D01*
X0107913Y0062272D02*
X0117400Y0062272D01*
X0117400Y0064269D02*
X0107513Y0064269D01*
X0107513Y0065268D02*
X0117400Y0065268D01*
X0117400Y0066266D02*
X0116654Y0066266D01*
X0115000Y0068360D02*
X0114280Y0067640D01*
X0105035Y0067640D01*
X0102557Y0067265D02*
X0102358Y0067265D01*
X0102557Y0068263D02*
X0101359Y0068263D01*
X0102557Y0069262D02*
X0099443Y0069262D01*
X0099443Y0070260D02*
X0102557Y0070260D01*
X0102557Y0071259D02*
X0099443Y0071259D01*
X0105035Y0070199D02*
X0110839Y0070199D01*
X0112500Y0071860D01*
X0112500Y0073360D01*
X0114355Y0075253D02*
X0117400Y0075253D01*
X0117400Y0074255D02*
X0114998Y0074255D01*
X0115150Y0073256D02*
X0117400Y0073256D01*
X0117400Y0072258D02*
X0114912Y0072258D01*
X0114146Y0071259D02*
X0117400Y0071259D01*
X0117400Y0070260D02*
X0116847Y0070260D01*
X0120600Y0070260D02*
X0121488Y0070260D01*
X0121488Y0071259D02*
X0120600Y0071259D01*
X0120600Y0069262D02*
X0121997Y0069262D01*
X0121154Y0059277D02*
X0078179Y0059277D01*
X0077181Y0058278D02*
X0120155Y0058278D01*
X0119157Y0057280D02*
X0076182Y0057280D01*
X0075400Y0061274D02*
X0073322Y0061274D01*
X0076887Y0064669D02*
X0077000Y0065514D01*
X0077208Y0064360D02*
X0079000Y0064360D01*
X0079500Y0064860D01*
X0079500Y0067860D01*
X0081167Y0067265D02*
X0091333Y0067265D01*
X0092331Y0066266D02*
X0081100Y0066266D01*
X0101176Y0061274D02*
X0102254Y0061274D01*
X0101663Y0061760D02*
X0101663Y0061760D01*
X0105035Y0061274D02*
X0105035Y0061274D01*
X0105035Y0060333D02*
X0106611Y0060333D01*
X0106992Y0060435D01*
X0107334Y0060632D01*
X0107614Y0060912D01*
X0107811Y0061254D01*
X0105035Y0060333D02*
X0105035Y0062522D01*
X0105035Y0062522D01*
X0105035Y0062272D02*
X0105035Y0062272D01*
X0116399Y0080246D02*
X0117400Y0080246D01*
X0117400Y0081244D02*
X0116399Y0081244D01*
X0116399Y0085238D02*
X0118359Y0085238D01*
X0117400Y0086237D02*
X0116399Y0086237D01*
X0115933Y0087235D02*
X0117400Y0087235D01*
X0120888Y0087235D02*
X0121567Y0087235D01*
X0121101Y0082243D02*
X0120600Y0082243D01*
X0120600Y0081244D02*
X0121101Y0081244D01*
X0121101Y0080246D02*
X0120600Y0080246D01*
X0141141Y0072258D02*
X0143135Y0072258D01*
X0147328Y0086237D02*
X0148672Y0086237D01*
X0148672Y0087235D02*
X0147328Y0087235D01*
X0147328Y0088234D02*
X0148672Y0088234D01*
X0148672Y0092228D02*
X0147600Y0092228D01*
X0147600Y0093226D02*
X0148672Y0093226D01*
X0148672Y0094225D02*
X0147328Y0094225D01*
X0147328Y0095223D02*
X0148672Y0095223D01*
X0148672Y0096222D02*
X0147328Y0096222D01*
X0147328Y0097220D02*
X0148672Y0097220D01*
X0148672Y0098219D02*
X0147328Y0098219D01*
X0144906Y0099217D02*
X0164024Y0099217D01*
X0163376Y0098219D02*
X0154809Y0098219D01*
X0154809Y0097220D02*
X0163063Y0097220D01*
X0163063Y0096222D02*
X0160886Y0096222D01*
X0161511Y0095223D02*
X0163386Y0095223D01*
X0164051Y0094225D02*
X0161650Y0094225D01*
X0161399Y0093226D02*
X0165604Y0093226D01*
X0165265Y0092228D02*
X0160615Y0092228D01*
X0161894Y0091229D02*
X0163910Y0091229D01*
X0159000Y0094360D02*
X0158331Y0095030D01*
X0151740Y0095030D01*
X0150805Y0100216D02*
X0165541Y0100216D01*
X0165329Y0101214D02*
X0151068Y0101214D01*
X0155115Y0102213D02*
X0163937Y0102213D01*
X0163339Y0103211D02*
X0156114Y0103211D01*
X0157597Y0104210D02*
X0163063Y0104210D01*
X0163063Y0105208D02*
X0158391Y0105208D01*
X0158650Y0106207D02*
X0163423Y0106207D01*
X0164138Y0107205D02*
X0158518Y0107205D01*
X0157904Y0108204D02*
X0165816Y0108204D01*
X0161397Y0110201D02*
X0143100Y0110201D01*
X0143100Y0111199D02*
X0160398Y0111199D01*
X0159900Y0112198D02*
X0143100Y0112198D01*
X0143100Y0113196D02*
X0159900Y0113196D01*
X0159900Y0114195D02*
X0143100Y0114195D01*
X0143100Y0115194D02*
X0159900Y0115194D01*
X0159900Y0116192D02*
X0150939Y0116192D01*
X0152219Y0117191D02*
X0159900Y0117191D01*
X0159900Y0118189D02*
X0152955Y0118189D01*
X0153368Y0119188D02*
X0159900Y0119188D01*
X0159900Y0120186D02*
X0153500Y0120186D01*
X0153500Y0121185D02*
X0159900Y0121185D01*
X0159900Y0122183D02*
X0153182Y0122183D01*
X0152767Y0123182D02*
X0158931Y0123182D01*
X0158931Y0124180D02*
X0151768Y0124180D01*
X0145632Y0124180D02*
X0126583Y0124180D01*
X0126340Y0123182D02*
X0144633Y0123182D01*
X0144445Y0118189D02*
X0144092Y0118189D01*
X0143100Y0117191D02*
X0145181Y0117191D01*
X0146461Y0116192D02*
X0143100Y0116192D01*
X0144931Y0102213D02*
X0125115Y0102213D01*
X0106135Y0104242D02*
X0103135Y0104242D01*
X0103135Y0106228D02*
X0106135Y0106228D01*
X0106135Y0108335D02*
X0103135Y0108335D01*
X0103135Y0110311D02*
X0106135Y0110311D01*
X0099500Y0119154D02*
X0099500Y0119361D01*
X0091434Y0117056D02*
X0091434Y0114056D01*
X0088287Y0114195D02*
X0088287Y0114195D01*
X0088287Y0114308D02*
X0086523Y0114308D01*
X0086015Y0114172D01*
X0085559Y0113908D01*
X0085186Y0113536D01*
X0084923Y0113080D01*
X0084787Y0112571D01*
X0084787Y0112308D01*
X0088286Y0112308D01*
X0088286Y0112308D01*
X0084787Y0112308D01*
X0084787Y0112045D01*
X0084923Y0111536D01*
X0085186Y0111080D01*
X0085239Y0111027D01*
X0085187Y0110974D01*
X0085187Y0109649D01*
X0085512Y0109323D01*
X0085187Y0108997D01*
X0085187Y0107672D01*
X0085577Y0107281D01*
X0085187Y0106891D01*
X0085187Y0105566D01*
X0085517Y0105235D01*
X0085187Y0104904D01*
X0085187Y0103936D01*
X0085100Y0104023D01*
X0085100Y0105208D02*
X0085491Y0105208D01*
X0085187Y0106207D02*
X0085100Y0106207D01*
X0085100Y0107205D02*
X0085501Y0107205D01*
X0085187Y0108204D02*
X0085100Y0108204D01*
X0085392Y0109202D02*
X0084421Y0109202D01*
X0085187Y0110201D02*
X0079112Y0110201D01*
X0078697Y0111199D02*
X0085117Y0111199D01*
X0084787Y0112198D02*
X0077425Y0112198D01*
X0076426Y0113196D02*
X0084990Y0113196D01*
X0086102Y0114195D02*
X0075428Y0114195D01*
X0086552Y0112308D02*
X0088287Y0112308D01*
X0088287Y0114308D01*
X0088287Y0113196D02*
X0088287Y0113196D01*
X0086787Y0110311D02*
X0089787Y0110311D01*
X0089787Y0108335D02*
X0086787Y0108335D01*
X0086787Y0106228D02*
X0089787Y0106228D01*
X0091434Y0100507D02*
X0091434Y0097507D01*
X0091500Y0096860D02*
X0091500Y0098942D01*
X0091434Y0099007D01*
X0093431Y0098219D02*
X0093431Y0098219D01*
X0093431Y0097220D02*
X0093431Y0097220D01*
X0093431Y0096222D02*
X0093431Y0096222D01*
X0091500Y0096860D02*
X0083000Y0096860D01*
X0082000Y0097860D01*
X0082000Y0100360D01*
X0079500Y0102860D01*
X0079112Y0099217D02*
X0080400Y0099217D01*
X0080400Y0098219D02*
X0079112Y0098219D01*
X0079112Y0097220D02*
X0080400Y0097220D01*
X0081376Y0096222D02*
X0079112Y0096222D01*
X0097514Y0097507D02*
X0097514Y0100507D01*
X0099500Y0100507D02*
X0099500Y0097507D01*
X0099500Y0099007D02*
X0099500Y0095860D01*
X0101487Y0097507D02*
X0101487Y0100507D01*
X0069000Y0126860D02*
X0069000Y0129860D01*
X0071250Y0132110D01*
X0046031Y0119188D02*
X0042334Y0119188D01*
X0042919Y0118189D02*
X0046031Y0118189D01*
X0046031Y0116192D02*
X0042921Y0116192D01*
X0042913Y0115194D02*
X0046031Y0115194D01*
X0046288Y0114195D02*
X0042294Y0114195D01*
X0040935Y0130171D02*
X0040532Y0130171D01*
X0020740Y0139158D02*
X0019740Y0139158D01*
X0019740Y0140156D02*
X0020740Y0140156D01*
X0020740Y0141155D02*
X0019740Y0141155D01*
X0019740Y0142153D02*
X0020740Y0142153D01*
X0017003Y0142153D02*
X0014254Y0142153D01*
X0015919Y0149143D02*
X0016081Y0149143D01*
X0016081Y0150141D02*
X0015919Y0150141D01*
X0015563Y0151140D02*
X0016437Y0151140D01*
X0028919Y0091229D02*
X0029081Y0091229D01*
X0029081Y0090231D02*
X0028919Y0090231D01*
X0028919Y0089232D02*
X0029081Y0089232D01*
X0029299Y0088234D02*
X0028701Y0088234D01*
X0024000Y0072860D02*
X0024000Y0065860D01*
X0039108Y0057280D02*
X0040900Y0057280D01*
X0040900Y0058278D02*
X0040106Y0058278D01*
X0040674Y0059277D02*
X0041654Y0059277D01*
X0068500Y0047537D02*
X0068500Y0042360D01*
X0072000Y0038860D01*
X0071288Y0037310D02*
X0018100Y0037310D01*
X0018100Y0038308D02*
X0070289Y0038308D01*
X0085198Y0029322D02*
X0097802Y0029322D01*
X0098875Y0029766D02*
X0096497Y0028781D01*
X0094678Y0026961D01*
X0093693Y0024584D01*
X0093693Y0022011D01*
X0094678Y0019633D01*
X0096497Y0017814D01*
X0098875Y0016829D01*
X0101448Y0016829D01*
X0103826Y0017814D01*
X0105645Y0019633D01*
X0106630Y0022011D01*
X0106630Y0024584D01*
X0105645Y0026961D01*
X0103826Y0028781D01*
X0101448Y0029766D01*
X0098875Y0029766D01*
X0096039Y0028323D02*
X0086961Y0028323D01*
X0087959Y0027325D02*
X0095041Y0027325D01*
X0094415Y0026326D02*
X0088585Y0026326D01*
X0088999Y0025327D02*
X0094001Y0025327D01*
X0093693Y0024329D02*
X0089307Y0024329D01*
X0089307Y0023330D02*
X0093693Y0023330D01*
X0093693Y0022332D02*
X0089307Y0022332D01*
X0089027Y0021333D02*
X0093973Y0021333D01*
X0094387Y0020335D02*
X0088613Y0020335D01*
X0088026Y0019336D02*
X0094974Y0019336D01*
X0095973Y0018338D02*
X0087027Y0018338D01*
X0085358Y0017339D02*
X0097642Y0017339D01*
X0102681Y0017339D02*
X0166294Y0017339D01*
X0165487Y0018338D02*
X0104350Y0018338D01*
X0105348Y0019336D02*
X0148776Y0019336D01*
X0148056Y0020335D02*
X0105936Y0020335D01*
X0106349Y0021333D02*
X0147850Y0021333D01*
X0148034Y0022332D02*
X0106630Y0022332D01*
X0106630Y0023330D02*
X0148723Y0023330D01*
X0148900Y0024329D02*
X0106630Y0024329D01*
X0106322Y0025327D02*
X0148900Y0025327D01*
X0148900Y0026326D02*
X0105908Y0026326D01*
X0105282Y0027325D02*
X0148773Y0027325D01*
X0150500Y0027860D02*
X0149000Y0029360D01*
X0121500Y0029360D01*
X0120500Y0030360D01*
X0118062Y0029322D02*
X0102520Y0029322D01*
X0104283Y0028323D02*
X0118790Y0028323D01*
X0117786Y0036311D02*
X0018100Y0036311D01*
X0056343Y0015342D02*
X0056467Y0015342D01*
X0056467Y0014344D02*
X0056343Y0014344D01*
X0056343Y0013345D02*
X0056467Y0013345D01*
X0056475Y0012347D02*
X0056274Y0012347D01*
X0055949Y0011348D02*
X0056889Y0011348D01*
X0057693Y0010350D02*
X0055282Y0010350D01*
X0062590Y0010350D02*
X0165117Y0010350D01*
X0164750Y0011348D02*
X0063394Y0011348D01*
X0063808Y0012347D02*
X0171026Y0012347D01*
X0171313Y0012219D02*
X0121142Y0012219D01*
X0121000Y0012360D01*
X0150500Y0021360D02*
X0150500Y0027860D01*
X0152100Y0028323D02*
X0166826Y0028323D01*
X0165740Y0029322D02*
X0151301Y0029322D01*
X0152100Y0027325D02*
X0177500Y0027325D01*
X0177500Y0028323D02*
X0177174Y0028323D01*
X0177500Y0026326D02*
X0152100Y0026326D01*
X0152100Y0025327D02*
X0177500Y0025327D01*
X0177500Y0024329D02*
X0152100Y0024329D01*
X0152277Y0023330D02*
X0166953Y0023330D01*
X0165781Y0022332D02*
X0152966Y0022332D01*
X0153150Y0021333D02*
X0165275Y0021333D01*
X0165063Y0020335D02*
X0152944Y0020335D01*
X0152224Y0019336D02*
X0165074Y0019336D01*
X0166105Y0015342D02*
X0063817Y0015342D01*
X0063817Y0014344D02*
X0165248Y0014344D01*
X0164820Y0013345D02*
X0063817Y0013345D01*
X0063817Y0016341D02*
X0177500Y0016341D01*
X0177500Y0017339D02*
X0176332Y0017339D01*
X0177139Y0018338D02*
X0177500Y0018338D01*
X0177500Y0021333D02*
X0177351Y0021333D01*
X0177500Y0022332D02*
X0176845Y0022332D01*
X0177500Y0023330D02*
X0175673Y0023330D01*
X0176521Y0015342D02*
X0177500Y0015342D01*
X0177500Y0014344D02*
X0177378Y0014344D01*
X0171600Y0014344D02*
X0171026Y0014344D01*
X0171026Y0015342D02*
X0171600Y0015342D01*
X0171600Y0013345D02*
X0171026Y0013345D01*
X0171026Y0011348D02*
X0171600Y0011348D01*
X0171600Y0010350D02*
X0171026Y0010350D01*
X0171026Y0009351D02*
X0171600Y0009351D01*
X0171600Y0008353D02*
X0171026Y0008353D01*
X0175177Y0008353D02*
X0177500Y0008353D01*
X0177500Y0009351D02*
X0176783Y0009351D01*
X0118900Y0040305D02*
X0118318Y0040305D01*
X0080319Y0017339D02*
X0063817Y0017339D01*
X0063817Y0018338D02*
X0078650Y0018338D01*
X0077652Y0019336D02*
X0063668Y0019336D01*
X0063252Y0020335D02*
X0077064Y0020335D01*
X0076651Y0021333D02*
X0062253Y0021333D01*
X0175298Y0090231D02*
X0175400Y0090231D01*
X0175400Y0091229D02*
X0174716Y0091229D01*
X0177500Y0113196D02*
X0163100Y0113196D01*
X0163100Y0114195D02*
X0177500Y0114195D01*
X0177500Y0115194D02*
X0163100Y0115194D01*
X0163100Y0116192D02*
X0172061Y0116192D01*
X0170781Y0117191D02*
X0163100Y0117191D01*
X0163100Y0118189D02*
X0170045Y0118189D01*
X0169632Y0119188D02*
X0163100Y0119188D01*
X0163100Y0120186D02*
X0169500Y0120186D01*
X0169500Y0121185D02*
X0163100Y0121185D01*
X0163100Y0122183D02*
X0169818Y0122183D01*
X0170233Y0123182D02*
X0165068Y0123182D01*
X0165068Y0124180D02*
X0171232Y0124180D01*
X0173148Y0125179D02*
X0165068Y0125179D01*
X0165068Y0126177D02*
X0177500Y0126177D01*
X0177500Y0125179D02*
X0175452Y0125179D01*
X0177368Y0124180D02*
X0177500Y0124180D01*
X0177500Y0127176D02*
X0165068Y0127176D01*
X0165029Y0128174D02*
X0177500Y0128174D01*
X0177500Y0129173D02*
X0165199Y0129173D01*
X0165468Y0130171D02*
X0177500Y0130171D01*
X0177500Y0131170D02*
X0165468Y0131170D01*
X0165468Y0132691D02*
X0165468Y0134570D01*
X0165366Y0134951D01*
X0165169Y0135293D01*
X0164890Y0135572D01*
X0164547Y0135770D01*
X0164166Y0135872D01*
X0162484Y0135872D01*
X0162484Y0132691D01*
X0165468Y0132691D01*
X0165468Y0133167D02*
X0173218Y0133167D01*
X0173082Y0133188D02*
X0173800Y0133075D01*
X0173800Y0137760D01*
X0169114Y0137760D01*
X0169228Y0137043D01*
X0169481Y0136264D01*
X0169853Y0135535D01*
X0170334Y0134873D01*
X0170912Y0134294D01*
X0171575Y0133813D01*
X0172304Y0133441D01*
X0173082Y0133188D01*
X0173800Y0133167D02*
X0174800Y0133167D01*
X0175381Y0133167D02*
X0177500Y0133167D01*
X0177500Y0132168D02*
X0162484Y0132168D01*
X0162000Y0132207D02*
X0170846Y0132207D01*
X0173000Y0134360D01*
X0173000Y0136960D01*
X0174300Y0138260D01*
X0173800Y0138159D02*
X0149200Y0138159D01*
X0149200Y0139158D02*
X0148200Y0139158D01*
X0148200Y0138760D02*
X0148200Y0143446D01*
X0147482Y0143332D01*
X0146704Y0143079D01*
X0145975Y0142708D01*
X0145312Y0142227D01*
X0144734Y0141648D01*
X0144253Y0140986D01*
X0143881Y0140256D01*
X0143628Y0139478D01*
X0143514Y0138760D01*
X0148200Y0138760D01*
X0148200Y0138159D02*
X0141250Y0138159D01*
X0141250Y0137161D02*
X0143609Y0137161D01*
X0143933Y0136162D02*
X0141250Y0136162D01*
X0141250Y0135164D02*
X0144522Y0135164D01*
X0145490Y0134165D02*
X0141250Y0134165D01*
X0141250Y0139158D02*
X0143577Y0139158D01*
X0143848Y0140156D02*
X0141250Y0140156D01*
X0141250Y0141155D02*
X0144375Y0141155D01*
X0145239Y0142153D02*
X0141250Y0142153D01*
X0141250Y0143152D02*
X0146927Y0143152D01*
X0148200Y0143152D02*
X0149200Y0143152D01*
X0149200Y0142153D02*
X0148200Y0142153D01*
X0148200Y0141155D02*
X0149200Y0141155D01*
X0149200Y0140156D02*
X0148200Y0140156D01*
X0150473Y0143152D02*
X0172527Y0143152D01*
X0172304Y0143079D02*
X0171575Y0142708D01*
X0170912Y0142227D01*
X0170334Y0141648D01*
X0169853Y0140986D01*
X0169481Y0140256D01*
X0169228Y0139478D01*
X0169114Y0138760D01*
X0173800Y0138760D01*
X0173800Y0143446D01*
X0173082Y0143332D01*
X0172304Y0143079D01*
X0173800Y0143152D02*
X0174800Y0143152D01*
X0174800Y0142153D02*
X0173800Y0142153D01*
X0173800Y0141155D02*
X0174800Y0141155D01*
X0174800Y0140156D02*
X0173800Y0140156D01*
X0173800Y0139158D02*
X0174800Y0139158D01*
X0174800Y0137161D02*
X0173800Y0137161D01*
X0173800Y0136162D02*
X0174800Y0136162D01*
X0174800Y0135164D02*
X0173800Y0135164D01*
X0173800Y0134165D02*
X0174800Y0134165D01*
X0171090Y0134165D02*
X0165468Y0134165D01*
X0165243Y0135164D02*
X0170122Y0135164D01*
X0169533Y0136162D02*
X0153467Y0136162D01*
X0153791Y0137161D02*
X0169209Y0137161D01*
X0169177Y0139158D02*
X0153823Y0139158D01*
X0153552Y0140156D02*
X0169448Y0140156D01*
X0169975Y0141155D02*
X0153025Y0141155D01*
X0152161Y0142153D02*
X0170839Y0142153D01*
X0176073Y0143152D02*
X0177500Y0143152D01*
X0177500Y0144150D02*
X0141250Y0144150D01*
X0141250Y0145149D02*
X0177500Y0145149D01*
X0177500Y0146147D02*
X0141250Y0146147D01*
X0141250Y0147146D02*
X0177500Y0147146D01*
X0177500Y0148144D02*
X0171943Y0148144D01*
X0174535Y0149143D02*
X0177500Y0149143D01*
X0177500Y0150141D02*
X0176130Y0150141D01*
X0177129Y0151140D02*
X0177500Y0151140D01*
X0167057Y0148144D02*
X0141250Y0148144D01*
X0141250Y0149143D02*
X0164465Y0149143D01*
X0162870Y0150141D02*
X0141250Y0150141D01*
X0141250Y0151140D02*
X0161871Y0151140D01*
X0160968Y0152138D02*
X0141250Y0152138D01*
X0141250Y0153137D02*
X0160391Y0153137D01*
X0159815Y0154135D02*
X0141250Y0154135D01*
X0141250Y0155134D02*
X0159494Y0155134D01*
X0159227Y0156132D02*
X0141250Y0156132D01*
X0141250Y0157131D02*
X0159000Y0157131D01*
X0159000Y0158129D02*
X0141250Y0158129D01*
X0141250Y0159128D02*
X0159000Y0159128D01*
X0159103Y0160127D02*
X0141250Y0160127D01*
X0141250Y0161125D02*
X0159370Y0161125D01*
X0159638Y0162124D02*
X0141250Y0162124D01*
X0141250Y0163122D02*
X0160125Y0163122D01*
X0160701Y0164121D02*
X0141250Y0164121D01*
X0141250Y0165119D02*
X0161410Y0165119D01*
X0162408Y0166118D02*
X0141250Y0166118D01*
X0152878Y0135164D02*
X0158757Y0135164D01*
X0158531Y0134165D02*
X0151910Y0134165D01*
X0150856Y0133167D02*
X0158531Y0133167D01*
X0158531Y0131170D02*
X0152150Y0131170D01*
X0152083Y0130171D02*
X0158531Y0130171D01*
X0161516Y0132168D02*
X0151827Y0132168D01*
X0161516Y0133167D02*
X0162484Y0133167D01*
X0162484Y0134165D02*
X0161516Y0134165D01*
X0161516Y0135164D02*
X0162484Y0135164D01*
X0176539Y0116192D02*
X0177500Y0116192D01*
D19*
X0096421Y0107321D03*
D20*
X0038862Y0106703D03*
X0038862Y0101703D03*
X0038862Y0111703D03*
X0038862Y0116703D03*
X0018587Y0116880D03*
X0018587Y0111703D03*
X0018587Y0106703D03*
X0018587Y0101703D03*
D21*
X0096965Y0070199D03*
X0096965Y0067640D03*
X0096965Y0065081D03*
X0096965Y0062522D03*
X0105035Y0062522D03*
X0105035Y0065081D03*
X0105035Y0067640D03*
X0105035Y0070199D03*
D22*
X0112500Y0073360D03*
X0115000Y0068360D03*
X0122500Y0066360D03*
X0138500Y0055360D03*
X0156000Y0058360D03*
X0170000Y0061360D03*
X0159000Y0076360D03*
X0140500Y0074860D03*
X0159000Y0094360D03*
X0156000Y0106360D03*
X0141000Y0105360D03*
X0117500Y0126860D03*
X0108000Y0123360D03*
X0089500Y0126860D03*
X0069000Y0126860D03*
X0052500Y0127860D03*
X0035500Y0137860D03*
X0012000Y0120360D03*
X0010000Y0109360D03*
X0052500Y0091860D03*
X0068500Y0082860D03*
X0078500Y0082860D03*
X0087000Y0066360D03*
X0084500Y0050360D03*
X0090500Y0043360D03*
X0073500Y0047360D03*
X0042500Y0048860D03*
X0031500Y0052360D03*
X0024000Y0065860D03*
X0024000Y0072860D03*
X0079500Y0102860D03*
X0112000Y0098860D03*
X0112000Y0090360D03*
X0149500Y0130860D03*
X0120500Y0030360D03*
X0121000Y0012360D03*
X0150500Y0021360D03*
M02*
