G75*
%MOIN*%
%OFA0B0*%
%FSLAX25Y25*%
%IPPOS*%
%LPD*%
%AMOC8*
5,1,8,0,0,1.08239X$1,22.5*
%
%ADD10C,0.00500*%
%ADD11C,0.00400*%
%ADD12R,0.03150X0.01378*%
%ADD13C,0.00800*%
%ADD14C,0.00600*%
%ADD15R,0.02000X0.02000*%
%ADD16R,0.01280X0.01969*%
%ADD17R,0.00591X0.00984*%
%ADD18R,0.01575X0.00689*%
%ADD19R,0.00787X0.00787*%
%ADD20R,0.01181X0.01181*%
%ADD21R,0.01280X0.00295*%
%ADD22R,0.03400X0.01600*%
%ADD23R,0.01600X0.03400*%
%ADD24C,0.01600*%
%ADD25R,0.02500X0.02500*%
%ADD26C,0.00300*%
%ADD27R,0.23622X0.01969*%
%ADD28C,0.00200*%
D10*
X0027698Y0029612D02*
X0022843Y0036546D01*
X0017038Y0032481D01*
X0010263Y0042156D01*
X0016068Y0046221D01*
X0022843Y0036546D01*
X0020581Y0042172D02*
X0022096Y0042623D01*
X0021523Y0043442D01*
X0020581Y0042172D01*
X0023857Y0044466D01*
X0025032Y0045840D02*
X0025659Y0045730D01*
X0026397Y0046246D01*
X0026507Y0046874D01*
X0025991Y0047612D01*
X0025363Y0047722D01*
X0024625Y0047205D01*
X0024515Y0046578D01*
X0025032Y0045840D01*
X0026316Y0044792D02*
X0026205Y0044165D01*
X0026722Y0043427D01*
X0027349Y0043316D01*
X0028087Y0043833D01*
X0028197Y0044460D01*
X0027681Y0045198D01*
X0027053Y0045308D01*
X0026316Y0044792D01*
X0028264Y0042009D02*
X0028153Y0041382D01*
X0028264Y0042009D02*
X0029740Y0043043D01*
X0029112Y0043153D02*
X0029629Y0042415D01*
X0025813Y0049435D02*
X0024780Y0050911D01*
X0022566Y0049361D01*
X0023673Y0050136D02*
X0024190Y0049398D01*
X0016068Y0046221D02*
X0011213Y0053155D01*
X0028951Y0065575D01*
X0030418Y0063479D01*
X0025581Y0060091D01*
X0039130Y0040741D01*
X0043967Y0044129D01*
X0045435Y0042032D01*
X0027698Y0029612D01*
X0043109Y0045739D02*
X0043928Y0046312D01*
X0044379Y0044797D01*
X0043109Y0045739D01*
X0044379Y0044797D02*
X0042085Y0048073D01*
X0039621Y0049412D02*
X0039732Y0050039D01*
X0041208Y0051073D01*
X0040580Y0051183D02*
X0041097Y0050445D01*
X0039555Y0051863D02*
X0039665Y0052490D01*
X0039149Y0053228D01*
X0038522Y0053339D01*
X0037784Y0052822D01*
X0037673Y0052195D01*
X0038190Y0051457D01*
X0039186Y0051604D02*
X0038153Y0053080D01*
X0037496Y0054018D02*
X0036463Y0055494D01*
X0036831Y0055752D02*
X0037459Y0055642D01*
X0037975Y0054904D01*
X0037865Y0054276D01*
X0037496Y0054018D01*
X0036500Y0053870D02*
X0035983Y0054608D01*
X0036094Y0055236D01*
X0036831Y0055752D01*
X0037282Y0057465D02*
X0036248Y0058941D01*
X0034035Y0057391D01*
X0035141Y0058166D02*
X0035658Y0057428D01*
X0033481Y0060360D02*
X0031187Y0063637D01*
X0031638Y0062122D01*
X0032457Y0062695D01*
X0031187Y0063637D01*
X0030823Y0065150D02*
X0029989Y0065984D01*
X0030406Y0065984D02*
X0029155Y0065984D01*
X0029155Y0065150D02*
X0029155Y0067652D01*
X0030406Y0067652D01*
X0030823Y0067235D01*
X0030823Y0066401D01*
X0030406Y0065984D01*
X0031918Y0065150D02*
X0033586Y0065150D01*
X0032752Y0065150D02*
X0032752Y0067652D01*
X0031918Y0066818D01*
X0034680Y0066401D02*
X0035514Y0066818D01*
X0035931Y0066818D01*
X0036348Y0066401D01*
X0036348Y0065567D01*
X0035931Y0065150D01*
X0035097Y0065150D01*
X0034680Y0065567D01*
X0034680Y0066401D02*
X0034680Y0067652D01*
X0036348Y0067652D01*
X0034098Y0053642D02*
X0033656Y0053720D01*
X0033397Y0053538D01*
X0033319Y0053097D01*
X0033683Y0052577D01*
X0033605Y0052136D01*
X0033345Y0051954D01*
X0032904Y0052032D01*
X0032540Y0052551D01*
X0032618Y0052993D01*
X0034098Y0053642D02*
X0034461Y0053123D01*
X0034384Y0052681D01*
X0034664Y0051728D02*
X0035547Y0051572D01*
X0033989Y0050482D01*
X0033626Y0051001D02*
X0034353Y0049962D01*
X0039186Y0051604D02*
X0039555Y0051863D01*
X0051140Y0046713D02*
X0051140Y0044211D01*
X0052391Y0044211D01*
X0052808Y0044628D01*
X0052808Y0045045D01*
X0052391Y0045462D01*
X0051140Y0045462D01*
X0052391Y0045462D02*
X0052808Y0045879D01*
X0052808Y0046296D01*
X0052391Y0046713D01*
X0051140Y0046713D01*
X0053902Y0046713D02*
X0053902Y0044628D01*
X0054319Y0044211D01*
X0055153Y0044211D01*
X0055570Y0044628D01*
X0055570Y0046713D01*
X0056664Y0046713D02*
X0058332Y0046713D01*
X0058332Y0046296D01*
X0056664Y0044628D01*
X0056664Y0044211D01*
X0058332Y0044211D01*
X0059427Y0044211D02*
X0061095Y0044211D01*
X0062189Y0044211D02*
X0062189Y0046713D01*
X0063857Y0046713D01*
X0064951Y0046713D02*
X0064951Y0044211D01*
X0064951Y0045045D02*
X0066202Y0045045D01*
X0066619Y0045462D01*
X0066619Y0046296D01*
X0066202Y0046713D01*
X0064951Y0046713D01*
X0065785Y0045045D02*
X0066619Y0044211D01*
X0063857Y0044211D02*
X0062189Y0044211D01*
X0062189Y0045462D02*
X0063023Y0045462D01*
X0061095Y0046296D02*
X0059427Y0044628D01*
X0059427Y0044211D01*
X0059427Y0046713D02*
X0061095Y0046713D01*
X0061095Y0046296D01*
X0051086Y0042780D02*
X0051086Y0025063D01*
X0074118Y0025063D01*
X0074118Y0042780D01*
X0051086Y0042780D01*
X0067980Y0024280D02*
X0067980Y0006563D01*
X0114634Y0006563D01*
X0114634Y0024280D01*
X0067980Y0024280D01*
X0078086Y0025063D02*
X0078086Y0042780D01*
X0101118Y0042780D01*
X0101118Y0025063D01*
X0078086Y0025063D01*
X0078140Y0044211D02*
X0078140Y0046713D01*
X0078974Y0045879D01*
X0079808Y0046713D01*
X0079808Y0044211D01*
X0080902Y0044628D02*
X0081319Y0044211D01*
X0082153Y0044211D01*
X0082570Y0044628D01*
X0082570Y0046296D01*
X0082153Y0046713D01*
X0081319Y0046713D01*
X0080902Y0046296D01*
X0080902Y0044628D01*
X0083664Y0046713D02*
X0085332Y0046713D01*
X0084498Y0046713D02*
X0084498Y0044211D01*
X0086427Y0044628D02*
X0086427Y0046296D01*
X0086844Y0046713D01*
X0087678Y0046713D01*
X0088095Y0046296D01*
X0088095Y0044628D01*
X0087678Y0044211D01*
X0086844Y0044211D01*
X0086427Y0044628D01*
X0089189Y0044211D02*
X0089189Y0046713D01*
X0090440Y0046713D01*
X0090857Y0046296D01*
X0090857Y0045462D01*
X0090440Y0045045D01*
X0089189Y0045045D01*
X0090023Y0045045D02*
X0090857Y0044211D01*
X0105086Y0042780D02*
X0105086Y0025063D01*
X0128118Y0025063D01*
X0128118Y0042780D01*
X0105086Y0042780D01*
X0114140Y0043711D02*
X0115491Y0043711D01*
X0115941Y0044161D01*
X0115941Y0044612D01*
X0115491Y0045062D01*
X0114140Y0045062D01*
X0115491Y0045062D02*
X0115941Y0045513D01*
X0115941Y0045963D01*
X0115491Y0046413D01*
X0114140Y0046413D01*
X0114140Y0043711D01*
X0117086Y0043711D02*
X0117086Y0045513D01*
X0117987Y0046413D01*
X0118888Y0045513D01*
X0118888Y0043711D01*
X0118888Y0045062D02*
X0117086Y0045062D01*
X0120033Y0046413D02*
X0121834Y0046413D01*
X0120933Y0046413D02*
X0120933Y0043711D01*
X0123880Y0043711D02*
X0123880Y0046413D01*
X0122979Y0046413D02*
X0124781Y0046413D01*
X0133432Y0043797D02*
X0134701Y0044739D01*
X0133882Y0045312D01*
X0133432Y0043797D01*
X0135726Y0047073D01*
X0137220Y0049384D02*
X0137737Y0050122D01*
X0137147Y0051635D02*
X0136113Y0050159D01*
X0138327Y0048609D01*
X0139648Y0051281D02*
X0138910Y0051798D01*
X0138800Y0052425D01*
X0139316Y0053163D01*
X0139944Y0053273D01*
X0140313Y0053015D01*
X0139279Y0051539D01*
X0139648Y0051281D02*
X0140275Y0051391D01*
X0140792Y0052129D01*
X0141338Y0053695D02*
X0140600Y0054211D01*
X0140490Y0054838D01*
X0141006Y0055576D01*
X0141634Y0055687D01*
X0142003Y0055429D01*
X0140969Y0053953D01*
X0141338Y0053695D02*
X0141965Y0053805D01*
X0142482Y0054543D01*
X0143287Y0056477D02*
X0141811Y0057510D01*
X0141921Y0056883D02*
X0142438Y0057621D01*
X0143287Y0056477D02*
X0143914Y0056588D01*
X0144329Y0059360D02*
X0146624Y0062637D01*
X0145354Y0061695D01*
X0146173Y0061122D01*
X0146624Y0062637D01*
X0147392Y0062479D02*
X0152230Y0059091D01*
X0138681Y0039741D01*
X0133843Y0043129D01*
X0132375Y0041032D01*
X0150113Y0028612D01*
X0154968Y0035546D01*
X0160773Y0031481D01*
X0167548Y0041156D01*
X0161743Y0045221D01*
X0166598Y0052155D01*
X0148860Y0064575D01*
X0147392Y0062479D01*
X0143901Y0052358D02*
X0144160Y0052176D01*
X0144238Y0051735D01*
X0144679Y0051812D01*
X0144939Y0051631D01*
X0145017Y0051189D01*
X0144653Y0050670D01*
X0144212Y0050592D01*
X0144056Y0051475D02*
X0144238Y0051735D01*
X0143901Y0052358D02*
X0143459Y0052280D01*
X0143096Y0051761D01*
X0143173Y0051319D01*
X0142633Y0050548D02*
X0142192Y0050470D01*
X0141828Y0049950D01*
X0141906Y0049509D01*
X0142166Y0049327D01*
X0142607Y0049405D01*
X0142971Y0049924D01*
X0143412Y0050002D01*
X0143672Y0049820D01*
X0143749Y0049379D01*
X0143386Y0048860D01*
X0142944Y0048782D01*
X0148615Y0043605D02*
X0147582Y0042129D01*
X0149795Y0040579D01*
X0148688Y0041354D02*
X0149205Y0042092D01*
X0150378Y0043767D02*
X0151116Y0043251D01*
X0151744Y0043361D01*
X0152260Y0044099D01*
X0152150Y0044727D01*
X0151412Y0045243D01*
X0150785Y0045133D01*
X0150268Y0044395D01*
X0150378Y0043767D01*
X0152069Y0046181D02*
X0152806Y0045664D01*
X0153434Y0045775D01*
X0153950Y0046513D01*
X0153840Y0047140D01*
X0153102Y0047657D01*
X0152475Y0047546D01*
X0151958Y0046808D01*
X0152069Y0046181D01*
X0153953Y0043466D02*
X0157230Y0041172D01*
X0156288Y0042442D01*
X0155714Y0041623D01*
X0157230Y0041172D01*
X0154968Y0035546D02*
X0161743Y0045221D01*
X0155382Y0048558D02*
X0154755Y0048447D01*
X0153279Y0049480D01*
X0153390Y0048853D02*
X0153906Y0049591D01*
X0155720Y0075136D02*
X0155720Y0077105D01*
X0155720Y0075136D02*
X0175405Y0075136D01*
X0155720Y0102695D02*
X0155720Y0104664D01*
X0175405Y0104664D01*
X0168598Y0126645D02*
X0163743Y0133579D01*
X0169548Y0137644D01*
X0162773Y0147319D01*
X0156968Y0143254D01*
X0152113Y0150188D01*
X0134375Y0137768D01*
X0135843Y0135671D01*
X0140681Y0139059D01*
X0154230Y0119709D01*
X0149392Y0116321D01*
X0150860Y0114225D01*
X0168598Y0126645D01*
X0163743Y0133579D02*
X0156968Y0143254D01*
X0159230Y0137628D02*
X0157714Y0137177D01*
X0158288Y0136358D01*
X0159230Y0137628D01*
X0155953Y0135334D01*
X0154237Y0133168D02*
X0153609Y0133279D01*
X0152871Y0132762D01*
X0152761Y0132135D01*
X0153277Y0131397D01*
X0153905Y0131286D01*
X0154643Y0131803D01*
X0154753Y0132430D01*
X0154237Y0133168D01*
X0152953Y0134217D02*
X0153063Y0134844D01*
X0152547Y0135582D01*
X0151919Y0135692D01*
X0151181Y0135176D01*
X0151071Y0134548D01*
X0151587Y0133811D01*
X0152215Y0133700D01*
X0152953Y0134217D01*
X0152369Y0137405D02*
X0151336Y0138881D01*
X0149122Y0137331D01*
X0150229Y0138106D02*
X0150746Y0137368D01*
X0155668Y0131123D02*
X0156185Y0130385D01*
X0156296Y0131013D02*
X0154820Y0129979D01*
X0154709Y0129352D01*
X0147018Y0127612D02*
X0145694Y0127845D01*
X0146421Y0126807D01*
X0145461Y0126521D02*
X0147018Y0127612D01*
X0145673Y0128980D02*
X0145751Y0129422D01*
X0145387Y0129941D01*
X0144946Y0130019D01*
X0144686Y0129837D01*
X0144608Y0129396D01*
X0144972Y0128877D01*
X0144894Y0128435D01*
X0144634Y0128253D01*
X0144193Y0128331D01*
X0143829Y0128850D01*
X0143907Y0129292D01*
X0140901Y0129375D02*
X0139868Y0130851D01*
X0137654Y0129301D01*
X0138761Y0130076D02*
X0139278Y0129338D01*
X0140451Y0127662D02*
X0141078Y0127552D01*
X0141595Y0126814D01*
X0141484Y0126187D01*
X0141115Y0125928D01*
X0140082Y0127404D01*
X0139713Y0127146D02*
X0140451Y0127662D01*
X0139713Y0127146D02*
X0139603Y0126518D01*
X0140119Y0125780D01*
X0141403Y0124732D02*
X0142141Y0125249D01*
X0142768Y0125138D01*
X0143285Y0124400D01*
X0143174Y0123773D01*
X0142806Y0123515D01*
X0141772Y0124990D01*
X0141403Y0124732D02*
X0141293Y0124105D01*
X0141809Y0123367D01*
X0143352Y0121949D02*
X0143241Y0121322D01*
X0143352Y0121949D02*
X0144827Y0122983D01*
X0144200Y0123093D02*
X0144717Y0122355D01*
X0146329Y0119439D02*
X0148624Y0116163D01*
X0148173Y0117678D01*
X0147354Y0117105D01*
X0148624Y0116163D01*
X0137726Y0131727D02*
X0135432Y0135003D01*
X0135882Y0133488D01*
X0136701Y0134061D01*
X0135432Y0135003D01*
X0112634Y0154063D02*
X0065980Y0154063D01*
X0065980Y0171780D01*
X0112634Y0171780D01*
X0112634Y0154063D01*
X0100024Y0173211D02*
X0100024Y0175713D01*
X0099189Y0174879D01*
X0098355Y0175713D01*
X0098355Y0173211D01*
X0097261Y0173211D02*
X0097261Y0174879D01*
X0096427Y0175713D01*
X0095593Y0174879D01*
X0095593Y0173211D01*
X0094499Y0173211D02*
X0093665Y0174045D01*
X0094082Y0174045D02*
X0092831Y0174045D01*
X0092831Y0173211D02*
X0092831Y0175713D01*
X0094082Y0175713D01*
X0094499Y0175296D01*
X0094499Y0174462D01*
X0094082Y0174045D01*
X0095593Y0174462D02*
X0097261Y0174462D01*
X0091736Y0174462D02*
X0091736Y0173628D01*
X0091319Y0173211D01*
X0090485Y0173211D01*
X0090068Y0173628D01*
X0090068Y0175296D01*
X0090485Y0175713D01*
X0091319Y0175713D01*
X0091736Y0175296D01*
X0091736Y0174462D02*
X0090902Y0174462D01*
X0088974Y0173628D02*
X0088974Y0175296D01*
X0088557Y0175713D01*
X0087723Y0175713D01*
X0087306Y0175296D01*
X0087306Y0173628D01*
X0087723Y0173211D01*
X0088557Y0173211D01*
X0088974Y0173628D01*
X0086212Y0173211D02*
X0085378Y0174045D01*
X0085795Y0174045D02*
X0084544Y0174045D01*
X0084544Y0173211D02*
X0084544Y0175713D01*
X0085795Y0175713D01*
X0086212Y0175296D01*
X0086212Y0174462D01*
X0085795Y0174045D01*
X0083449Y0174462D02*
X0083032Y0174045D01*
X0081781Y0174045D01*
X0081781Y0173211D02*
X0081781Y0175713D01*
X0083032Y0175713D01*
X0083449Y0175296D01*
X0083449Y0174462D01*
X0048348Y0158652D02*
X0048348Y0158235D01*
X0046680Y0156567D01*
X0046680Y0156150D01*
X0045586Y0156150D02*
X0043918Y0156150D01*
X0044752Y0156150D02*
X0044752Y0158652D01*
X0043918Y0157818D01*
X0042823Y0158235D02*
X0042823Y0157401D01*
X0042406Y0156984D01*
X0041155Y0156984D01*
X0041155Y0156150D02*
X0041155Y0158652D01*
X0042406Y0158652D01*
X0042823Y0158235D01*
X0041989Y0156984D02*
X0042823Y0156150D01*
X0046680Y0158652D02*
X0048348Y0158652D01*
X0046435Y0137768D02*
X0028698Y0150188D01*
X0023843Y0143254D01*
X0018038Y0147319D01*
X0011263Y0137644D01*
X0017068Y0133579D01*
X0012213Y0126645D01*
X0029951Y0114225D01*
X0031418Y0116321D01*
X0026581Y0119709D01*
X0040130Y0139059D01*
X0044967Y0135671D01*
X0046435Y0137768D01*
X0045379Y0135003D02*
X0044109Y0134061D01*
X0044928Y0133488D01*
X0045379Y0135003D01*
X0043085Y0131727D01*
X0040896Y0129214D02*
X0040380Y0128476D01*
X0040269Y0129103D02*
X0041745Y0128070D01*
X0042372Y0128181D01*
X0040461Y0127022D02*
X0039427Y0125546D01*
X0039059Y0125804D02*
X0038948Y0126431D01*
X0039465Y0127169D01*
X0040092Y0127280D01*
X0040461Y0127022D01*
X0040940Y0126136D02*
X0040424Y0125398D01*
X0039796Y0125288D01*
X0039059Y0125804D01*
X0038402Y0124866D02*
X0038771Y0124608D01*
X0037737Y0123132D01*
X0037368Y0123391D02*
X0037258Y0124018D01*
X0037775Y0124756D01*
X0038402Y0124866D01*
X0039250Y0123722D02*
X0038734Y0122985D01*
X0038106Y0122874D01*
X0037368Y0123391D01*
X0035605Y0123228D02*
X0034572Y0121752D01*
X0036785Y0120202D01*
X0035678Y0120977D02*
X0036195Y0121715D01*
X0034481Y0119439D02*
X0032187Y0116163D01*
X0033457Y0117105D01*
X0032638Y0117678D01*
X0032187Y0116163D01*
X0039506Y0112294D02*
X0039506Y0110626D01*
X0039923Y0110209D01*
X0040757Y0110209D01*
X0041174Y0110626D01*
X0042268Y0110209D02*
X0043936Y0110209D01*
X0043102Y0110209D02*
X0043102Y0112711D01*
X0042268Y0111877D01*
X0041174Y0112294D02*
X0040757Y0112711D01*
X0039923Y0112711D01*
X0039506Y0112294D01*
X0045030Y0111877D02*
X0045864Y0112711D01*
X0045864Y0110209D01*
X0045030Y0110209D02*
X0046699Y0110209D01*
X0034289Y0096552D02*
X0033655Y0095918D01*
X0034289Y0096552D02*
X0034289Y0094650D01*
X0033655Y0094650D02*
X0034923Y0094650D01*
X0032713Y0094967D02*
X0032713Y0096235D01*
X0032396Y0096552D01*
X0031445Y0096552D01*
X0031445Y0094650D01*
X0032396Y0094650D01*
X0032713Y0094967D01*
X0013880Y0108150D02*
X0013880Y0111153D01*
X0011878Y0111153D02*
X0011878Y0108150D01*
X0010657Y0108650D02*
X0010657Y0110652D01*
X0010157Y0111153D01*
X0009156Y0111153D01*
X0008655Y0110652D01*
X0008655Y0108650D01*
X0009156Y0108150D01*
X0010157Y0108150D01*
X0010657Y0108650D01*
X0011878Y0111153D02*
X0013880Y0108150D01*
X0025317Y0128232D02*
X0023103Y0129782D01*
X0024137Y0131258D01*
X0024727Y0129745D02*
X0024210Y0129007D01*
X0025900Y0131421D02*
X0026638Y0130904D01*
X0027265Y0131015D01*
X0027782Y0131752D01*
X0027672Y0132380D01*
X0026934Y0132896D01*
X0026306Y0132786D01*
X0025790Y0132048D01*
X0025900Y0131421D01*
X0027590Y0133834D02*
X0028328Y0133318D01*
X0028955Y0133428D01*
X0029472Y0134166D01*
X0029362Y0134793D01*
X0028624Y0135310D01*
X0027996Y0135199D01*
X0027480Y0134462D01*
X0027590Y0133834D01*
X0028911Y0136506D02*
X0029428Y0137244D01*
X0028801Y0137134D02*
X0030277Y0136100D01*
X0030904Y0136211D01*
X0035170Y0129579D02*
X0034806Y0129060D01*
X0034884Y0128618D01*
X0034344Y0127847D02*
X0033902Y0127769D01*
X0033539Y0127249D01*
X0033617Y0126808D01*
X0033876Y0126626D01*
X0034318Y0126704D01*
X0034681Y0127223D01*
X0035123Y0127301D01*
X0035382Y0127119D01*
X0035460Y0126678D01*
X0035097Y0126159D01*
X0034655Y0126081D01*
X0036182Y0127709D02*
X0035871Y0129475D01*
X0035611Y0129657D01*
X0035170Y0129579D01*
X0036909Y0128748D02*
X0036182Y0127709D01*
X0024857Y0135334D02*
X0021581Y0137628D01*
X0022523Y0136358D01*
X0023096Y0137177D01*
X0021581Y0137628D01*
X0023843Y0143254D02*
X0017068Y0133579D01*
X0121156Y0024152D02*
X0121156Y0022150D01*
X0120155Y0023151D02*
X0122157Y0023151D01*
D11*
X0110734Y0022501D02*
X0110734Y0021100D01*
X0110734Y0022151D02*
X0109333Y0022151D01*
X0109333Y0022501D02*
X0110033Y0023202D01*
X0110734Y0022501D01*
X0109333Y0022501D02*
X0109333Y0021100D01*
X0108432Y0021450D02*
X0108432Y0022851D01*
X0108082Y0023202D01*
X0107031Y0023202D01*
X0107031Y0021100D01*
X0108082Y0021100D01*
X0108432Y0021450D01*
X0106130Y0021450D02*
X0105780Y0021100D01*
X0105079Y0021100D01*
X0104729Y0021450D01*
X0105079Y0022151D02*
X0105780Y0022151D01*
X0106130Y0021801D01*
X0106130Y0021450D01*
X0105079Y0022151D02*
X0104729Y0022501D01*
X0104729Y0022851D01*
X0105079Y0023202D01*
X0105780Y0023202D01*
X0106130Y0022851D01*
X0103828Y0023202D02*
X0102427Y0021100D01*
X0101526Y0021100D02*
X0100125Y0021100D01*
X0100125Y0023202D01*
X0099224Y0022851D02*
X0098874Y0023202D01*
X0098173Y0023202D01*
X0097823Y0022851D01*
X0097823Y0021450D01*
X0098173Y0021100D01*
X0098874Y0021100D01*
X0099224Y0021450D01*
X0096922Y0021450D02*
X0096572Y0021100D01*
X0095871Y0021100D01*
X0095521Y0021450D01*
X0095871Y0022151D02*
X0095521Y0022501D01*
X0095521Y0022851D01*
X0095871Y0023202D01*
X0096572Y0023202D01*
X0096922Y0022851D01*
X0096572Y0022151D02*
X0096922Y0021801D01*
X0096922Y0021450D01*
X0096572Y0022151D02*
X0095871Y0022151D01*
X0094620Y0023202D02*
X0093219Y0021100D01*
X0092318Y0021450D02*
X0091968Y0021100D01*
X0091267Y0021100D01*
X0090917Y0021450D01*
X0090917Y0022851D01*
X0091267Y0023202D01*
X0091968Y0023202D01*
X0092318Y0022851D01*
X0090016Y0022851D02*
X0089666Y0023202D01*
X0088965Y0023202D01*
X0088615Y0022851D01*
X0088615Y0021450D01*
X0088965Y0021100D01*
X0089666Y0021100D01*
X0090016Y0021450D01*
X0087714Y0021801D02*
X0087714Y0023202D01*
X0086313Y0023202D02*
X0086313Y0021801D01*
X0087014Y0021100D01*
X0087714Y0021801D01*
X0085412Y0023202D02*
X0084011Y0021100D01*
X0083110Y0021450D02*
X0083110Y0022851D01*
X0082760Y0023202D01*
X0081709Y0023202D01*
X0081709Y0021100D01*
X0082760Y0021100D01*
X0083110Y0021450D01*
X0080809Y0021100D02*
X0080809Y0023202D01*
X0079407Y0023202D02*
X0080809Y0021100D01*
X0079407Y0021100D02*
X0079407Y0023202D01*
X0078507Y0022851D02*
X0078156Y0023202D01*
X0077456Y0023202D01*
X0077105Y0022851D01*
X0077105Y0021450D01*
X0077456Y0021100D01*
X0078156Y0021100D01*
X0078507Y0021450D01*
X0078507Y0022151D01*
X0077806Y0022151D01*
X0140142Y0071833D02*
X0140142Y0075967D01*
X0141027Y0077542D02*
X0141041Y0077470D01*
X0141057Y0077399D01*
X0141078Y0077328D01*
X0141102Y0077259D01*
X0141130Y0077192D01*
X0141161Y0077125D01*
X0141196Y0077061D01*
X0141234Y0076999D01*
X0141275Y0076938D01*
X0141320Y0076880D01*
X0141367Y0076824D01*
X0141417Y0076771D01*
X0141470Y0076721D01*
X0141526Y0076673D01*
X0141584Y0076628D01*
X0141644Y0076587D01*
X0141706Y0076549D01*
X0141771Y0076514D01*
X0141837Y0076482D01*
X0141904Y0076454D01*
X0141973Y0076430D01*
X0142043Y0076409D01*
X0142114Y0076392D01*
X0142186Y0076378D01*
X0142259Y0076369D01*
X0142332Y0076363D01*
X0142405Y0076361D01*
X0142478Y0076363D01*
X0142551Y0076369D01*
X0142624Y0076378D01*
X0142696Y0076392D01*
X0142767Y0076409D01*
X0142837Y0076430D01*
X0142906Y0076454D01*
X0142973Y0076482D01*
X0143039Y0076514D01*
X0143104Y0076549D01*
X0143166Y0076587D01*
X0143226Y0076628D01*
X0143284Y0076673D01*
X0143340Y0076721D01*
X0143393Y0076771D01*
X0143443Y0076824D01*
X0143490Y0076880D01*
X0143535Y0076938D01*
X0143576Y0076999D01*
X0143614Y0077061D01*
X0143649Y0077125D01*
X0143680Y0077192D01*
X0143708Y0077259D01*
X0143732Y0077328D01*
X0143753Y0077399D01*
X0143769Y0077470D01*
X0143783Y0077542D01*
X0144669Y0075869D02*
X0144669Y0070258D01*
X0143771Y0070554D02*
X0143773Y0070594D01*
X0143779Y0070633D01*
X0143788Y0070672D01*
X0143802Y0070709D01*
X0143819Y0070745D01*
X0143839Y0070780D01*
X0143863Y0070812D01*
X0143890Y0070841D01*
X0143919Y0070868D01*
X0143951Y0070892D01*
X0143986Y0070912D01*
X0144022Y0070929D01*
X0144059Y0070943D01*
X0144098Y0070952D01*
X0144137Y0070958D01*
X0144177Y0070960D01*
X0144217Y0070958D01*
X0144256Y0070952D01*
X0144295Y0070943D01*
X0144332Y0070929D01*
X0144368Y0070912D01*
X0144403Y0070892D01*
X0144435Y0070868D01*
X0144464Y0070841D01*
X0144491Y0070812D01*
X0144515Y0070780D01*
X0144535Y0070745D01*
X0144552Y0070709D01*
X0144566Y0070672D01*
X0144575Y0070633D01*
X0144581Y0070594D01*
X0144583Y0070554D01*
X0144581Y0070514D01*
X0144575Y0070475D01*
X0144566Y0070436D01*
X0144552Y0070399D01*
X0144535Y0070363D01*
X0144515Y0070328D01*
X0144491Y0070296D01*
X0144464Y0070267D01*
X0144435Y0070240D01*
X0144403Y0070216D01*
X0144368Y0070196D01*
X0144332Y0070179D01*
X0144295Y0070165D01*
X0144256Y0070156D01*
X0144217Y0070150D01*
X0144177Y0070148D01*
X0144137Y0070150D01*
X0144098Y0070156D01*
X0144059Y0070165D01*
X0144022Y0070179D01*
X0143986Y0070196D01*
X0143951Y0070216D01*
X0143919Y0070240D01*
X0143890Y0070267D01*
X0143863Y0070296D01*
X0143839Y0070328D01*
X0143819Y0070363D01*
X0143802Y0070399D01*
X0143788Y0070436D01*
X0143779Y0070475D01*
X0143773Y0070514D01*
X0143771Y0070554D01*
X0143783Y0070258D02*
X0143769Y0070330D01*
X0143753Y0070401D01*
X0143732Y0070472D01*
X0143708Y0070541D01*
X0143680Y0070608D01*
X0143649Y0070675D01*
X0143614Y0070739D01*
X0143576Y0070801D01*
X0143535Y0070862D01*
X0143490Y0070920D01*
X0143443Y0070976D01*
X0143393Y0071029D01*
X0143340Y0071079D01*
X0143284Y0071127D01*
X0143226Y0071172D01*
X0143166Y0071213D01*
X0143104Y0071251D01*
X0143039Y0071286D01*
X0142973Y0071318D01*
X0142906Y0071346D01*
X0142837Y0071370D01*
X0142767Y0071391D01*
X0142696Y0071408D01*
X0142624Y0071422D01*
X0142551Y0071431D01*
X0142478Y0071437D01*
X0142405Y0071439D01*
X0142332Y0071437D01*
X0142259Y0071431D01*
X0142186Y0071422D01*
X0142114Y0071408D01*
X0142043Y0071391D01*
X0141973Y0071370D01*
X0141904Y0071346D01*
X0141837Y0071318D01*
X0141771Y0071286D01*
X0141706Y0071251D01*
X0141644Y0071213D01*
X0141584Y0071172D01*
X0141526Y0071127D01*
X0141470Y0071079D01*
X0141417Y0071029D01*
X0141367Y0070976D01*
X0141320Y0070920D01*
X0141275Y0070862D01*
X0141234Y0070801D01*
X0141196Y0070739D01*
X0141161Y0070675D01*
X0141130Y0070608D01*
X0141102Y0070541D01*
X0141078Y0070472D01*
X0141057Y0070401D01*
X0141041Y0070330D01*
X0141027Y0070258D01*
X0108338Y0168600D02*
X0106937Y0170702D01*
X0106036Y0170702D02*
X0104635Y0170702D01*
X0105335Y0170702D02*
X0105335Y0168600D01*
X0106937Y0168600D02*
X0108338Y0170702D01*
X0103734Y0170702D02*
X0102333Y0168600D01*
X0101432Y0168600D02*
X0100031Y0170702D01*
X0099130Y0170351D02*
X0099130Y0169651D01*
X0098780Y0169301D01*
X0097729Y0169301D01*
X0098429Y0169301D02*
X0099130Y0168600D01*
X0100031Y0168600D02*
X0101432Y0170702D01*
X0099130Y0170351D02*
X0098780Y0170702D01*
X0097729Y0170702D01*
X0097729Y0168600D01*
X0096828Y0170702D02*
X0095427Y0168600D01*
X0094526Y0168600D02*
X0093826Y0169301D01*
X0094176Y0169301D02*
X0093125Y0169301D01*
X0093125Y0168600D02*
X0093125Y0170702D01*
X0094176Y0170702D01*
X0094526Y0170351D01*
X0094526Y0169651D01*
X0094176Y0169301D01*
X0092224Y0170702D02*
X0090823Y0170702D01*
X0091524Y0170702D02*
X0091524Y0168600D01*
X0089922Y0168950D02*
X0089922Y0170351D01*
X0089572Y0170702D01*
X0088521Y0170702D01*
X0088521Y0168600D01*
X0089572Y0168600D01*
X0089922Y0168950D01*
X0087620Y0170702D02*
X0086219Y0168600D01*
X0084618Y0168600D02*
X0084618Y0170702D01*
X0085318Y0170702D02*
X0083917Y0170702D01*
X0083016Y0170351D02*
X0082666Y0170702D01*
X0081965Y0170702D01*
X0081615Y0170351D01*
X0081615Y0170001D01*
X0081965Y0169651D01*
X0082666Y0169651D01*
X0083016Y0169301D01*
X0083016Y0168950D01*
X0082666Y0168600D01*
X0081965Y0168600D01*
X0081615Y0168950D01*
X0080714Y0168600D02*
X0080014Y0169301D01*
X0080364Y0169301D02*
X0079313Y0169301D01*
X0079313Y0168600D02*
X0079313Y0170702D01*
X0080364Y0170702D01*
X0080714Y0170351D01*
X0080714Y0169651D01*
X0080364Y0169301D01*
X0078412Y0170702D02*
X0077011Y0168600D01*
X0076110Y0168950D02*
X0076110Y0170351D01*
X0075760Y0170702D01*
X0074709Y0170702D01*
X0074709Y0168600D01*
X0075760Y0168600D01*
X0076110Y0168950D01*
X0073809Y0168600D02*
X0073809Y0170702D01*
X0072407Y0170702D02*
X0073809Y0168600D01*
X0072407Y0168600D02*
X0072407Y0170702D01*
X0071507Y0170351D02*
X0071156Y0170702D01*
X0070456Y0170702D01*
X0070105Y0170351D01*
X0070105Y0168950D01*
X0070456Y0168600D01*
X0071156Y0168600D01*
X0071507Y0168950D01*
X0071507Y0169651D01*
X0070806Y0169651D01*
X0044783Y0122254D02*
X0044783Y0116546D01*
X0042027Y0116546D02*
X0042027Y0122254D01*
D12*
X0043405Y0121861D03*
X0043405Y0116939D03*
D13*
X0037659Y0035977D02*
X0026549Y0028198D01*
X0009491Y0052560D01*
X0020601Y0060339D01*
X0028249Y0057153D02*
X0037281Y0044253D01*
X0054172Y0050349D02*
X0054172Y0054392D01*
X0054172Y0050349D02*
X0065105Y0050349D01*
X0032405Y0085313D02*
X0032405Y0086101D01*
X0032405Y0085313D01*
X0027287Y0087282D02*
X0026106Y0087282D01*
X0026106Y0097518D01*
X0027287Y0097518D01*
X0037523Y0097518D02*
X0038705Y0097518D01*
X0038705Y0087282D01*
X0037523Y0087282D01*
X0021601Y0119461D02*
X0010491Y0127240D01*
X0027549Y0151602D01*
X0038659Y0143823D01*
X0038281Y0135547D02*
X0029249Y0122647D01*
X0054172Y0124120D02*
X0054172Y0151743D01*
X0126038Y0151743D01*
X0126038Y0124120D01*
X0142529Y0135547D02*
X0151562Y0122647D01*
X0159209Y0119461D02*
X0170320Y0127240D01*
X0153261Y0151602D01*
X0142151Y0143823D01*
X0157209Y0059339D02*
X0168320Y0051560D01*
X0151261Y0027198D01*
X0140151Y0034977D01*
X0140529Y0043253D02*
X0149562Y0056153D01*
X0126038Y0054392D02*
X0126038Y0050349D01*
X0115105Y0050349D01*
D14*
X0034807Y0072699D02*
X0034807Y0076101D01*
X0032004Y0076101D02*
X0032004Y0072699D01*
X0018405Y0079900D02*
X0018405Y0084900D01*
X0015905Y0087400D01*
X0018405Y0089900D01*
X0018405Y0094900D01*
X0015905Y0097400D01*
X0018405Y0099900D01*
X0018405Y0104900D01*
X0015905Y0107400D01*
X0010905Y0107400D01*
X0008405Y0104900D01*
X0008405Y0099900D01*
X0010905Y0097400D01*
X0015905Y0097400D01*
X0010905Y0097400D02*
X0008405Y0094900D01*
X0008405Y0089900D01*
X0010905Y0087400D01*
X0015905Y0087400D01*
X0010905Y0087400D02*
X0008405Y0084900D01*
X0008405Y0079900D01*
X0010905Y0077400D01*
X0015905Y0077400D01*
X0018405Y0079900D01*
X0041205Y0149998D02*
X0044606Y0149998D01*
X0044606Y0152802D02*
X0041205Y0152802D01*
D15*
X0013405Y0102400D03*
X0013405Y0092400D03*
X0013405Y0082400D03*
D16*
X0140584Y0076853D03*
X0144226Y0076853D03*
X0140584Y0070947D03*
D17*
X0141421Y0071439D03*
X0143390Y0071439D03*
X0143390Y0076361D03*
X0141421Y0076361D03*
D18*
X0142405Y0076213D03*
X0142405Y0071587D03*
D19*
X0142405Y0073506D03*
D20*
X0144177Y0071341D03*
D21*
X0144226Y0070111D03*
D22*
X0033405Y0071900D03*
X0033405Y0076900D03*
D23*
X0040405Y0151400D03*
X0045405Y0151400D03*
D24*
X0041578Y0141779D02*
X0047312Y0137764D01*
X0030254Y0113402D02*
X0024520Y0117417D01*
X0017586Y0137373D02*
X0020454Y0141469D01*
X0029254Y0066398D02*
X0023520Y0062383D01*
X0016586Y0042427D02*
X0019454Y0038331D01*
X0040578Y0038021D02*
X0046312Y0042036D01*
X0131499Y0041036D02*
X0137233Y0037021D01*
X0158357Y0037331D02*
X0161224Y0041427D01*
X0154291Y0061383D02*
X0148557Y0065398D01*
X0150557Y0113402D02*
X0156291Y0117417D01*
X0163224Y0137373D02*
X0160357Y0141469D01*
X0139233Y0141779D02*
X0133499Y0137764D01*
D25*
X0116405Y0026538D03*
X0089405Y0026538D03*
X0062405Y0026538D03*
D26*
X0066000Y0027113D02*
X0067935Y0027113D01*
X0066968Y0027113D02*
X0066968Y0030015D01*
X0066000Y0029048D01*
X0083681Y0028513D02*
X0083681Y0026095D01*
X0084165Y0025611D01*
X0085133Y0025611D01*
X0085616Y0026095D01*
X0085616Y0028513D01*
X0086628Y0028030D02*
X0087112Y0028513D01*
X0088079Y0028513D01*
X0088563Y0028030D01*
X0089574Y0028030D02*
X0089574Y0027546D01*
X0090058Y0027062D01*
X0091026Y0027062D01*
X0091509Y0026579D01*
X0091509Y0026095D01*
X0091026Y0025611D01*
X0090058Y0025611D01*
X0089574Y0026095D01*
X0089574Y0026579D01*
X0090058Y0027062D01*
X0091026Y0027062D02*
X0091509Y0027546D01*
X0091509Y0028030D01*
X0091026Y0028513D01*
X0090058Y0028513D01*
X0089574Y0028030D01*
X0088563Y0026579D02*
X0088079Y0027062D01*
X0087112Y0027062D01*
X0086628Y0027546D01*
X0086628Y0028030D01*
X0087595Y0028997D02*
X0087595Y0025127D01*
X0087112Y0025611D02*
X0088079Y0025611D01*
X0088563Y0026095D01*
X0088563Y0026579D01*
X0087112Y0025611D02*
X0086628Y0026095D01*
X0093000Y0027113D02*
X0094935Y0027113D01*
X0093968Y0027113D02*
X0093968Y0030015D01*
X0093000Y0029048D01*
X0107483Y0011515D02*
X0107483Y0008613D01*
X0106516Y0008613D02*
X0108451Y0008613D01*
X0106516Y0010548D02*
X0107483Y0011515D01*
X0120000Y0027113D02*
X0121935Y0027113D01*
X0120968Y0027113D02*
X0120968Y0030015D01*
X0120000Y0029048D01*
X0091207Y0105899D02*
X0090239Y0105899D01*
X0089755Y0106383D01*
X0088744Y0106383D02*
X0088744Y0108801D01*
X0089755Y0108318D02*
X0090239Y0108801D01*
X0091207Y0108801D01*
X0091690Y0108318D01*
X0091690Y0107834D01*
X0091207Y0107350D01*
X0091690Y0106866D01*
X0091690Y0106383D01*
X0091207Y0105899D01*
X0091207Y0107350D02*
X0090723Y0107350D01*
X0088744Y0106383D02*
X0088260Y0105899D01*
X0087293Y0105899D01*
X0086809Y0106383D01*
X0086809Y0108801D01*
X0104516Y0156113D02*
X0106451Y0156113D01*
X0105483Y0156113D02*
X0105483Y0159015D01*
X0104516Y0158048D01*
D27*
X0089405Y0155048D03*
X0091405Y0007548D03*
D28*
X0165250Y0066995D02*
X0165717Y0066528D01*
X0166651Y0066528D01*
X0167118Y0066995D01*
X0167118Y0069330D01*
X0168012Y0068863D02*
X0168479Y0069330D01*
X0169413Y0069330D01*
X0169880Y0068863D01*
X0170774Y0068863D02*
X0170774Y0068396D01*
X0171242Y0067929D01*
X0172643Y0067929D01*
X0172643Y0066995D02*
X0172643Y0068863D01*
X0172176Y0069330D01*
X0171242Y0069330D01*
X0170774Y0068863D01*
X0169413Y0067929D02*
X0168479Y0067929D01*
X0168012Y0068396D01*
X0168012Y0068863D01*
X0168946Y0069797D02*
X0168946Y0066060D01*
X0168479Y0066528D02*
X0169413Y0066528D01*
X0169880Y0066995D01*
X0169880Y0067462D01*
X0169413Y0067929D01*
X0170774Y0066995D02*
X0171242Y0066528D01*
X0172176Y0066528D01*
X0172643Y0066995D01*
X0168479Y0066528D02*
X0168012Y0066995D01*
X0165250Y0066995D02*
X0165250Y0069330D01*
M02*
