%
M48
M72
T01C0.01378
T02C0.01500
T03C0.03150
T04C0.04000
T05C0.04134
T06C0.04724
T07C0.12000
%
T01
X38905Y69900
X19405Y72400
X36905Y111900
X36905Y117900
X73405Y98400
X77905Y115400
X115405Y126900
X140405Y100900
X99905Y69400
X93905Y69400
T02
X102905Y76900
X105405Y73400
X107405Y67400
X112905Y61400
X111905Y43900
X130405Y46400
X137405Y57400
X137405Y61400
X151905Y71400
X148405Y79400
X165905Y84400
X133405Y121900
X118905Y137900
X118405Y143900
X119905Y150900
X126405Y156400
X126905Y162900
X128905Y143900
X105905Y147400
X101905Y133900
X112905Y116900
X109405Y111400
X104905Y92900
X81405Y108900
X75905Y104900
X69405Y101900
X67905Y95400
X69405Y110400
X62905Y132900
X56905Y134400
X62905Y141900
X55405Y145400
X49905Y144400
X52905Y156400
X75905Y147400
X38405Y131400
X15405Y113400
X27905Y74400
X34905Y64900
X39905Y64900
X31905Y58400
X51405Y35400
X41405Y26900
X58905Y18400
X71905Y57400
T03
X31551Y37837
X20260Y53963
X58764Y33587
X66638Y33587
X75657Y15087
X83531Y15087
X91405Y15087
X99279Y15087
X107153Y15087
X112764Y33587
X120638Y33587
X146260Y36837
X157551Y52963
X93638Y33587
X85764Y33587
X21260Y125837
X32551Y141963
X73657Y162587
X81531Y162587
X89405Y162587
X97279Y162587
X105153Y162587
X148260Y141963
X159551Y125837
T04
X13405Y102400
X13405Y92400
X13405Y82400
T05
X156783Y80353
X156783Y99447
T06
X168712Y104565
X154205Y116312
X137480Y140197
X168712Y75235
X152205Y62488
X135480Y38603
X42330Y39603
X25605Y63488
X26605Y116312
X43330Y140197
T07
X136905Y25900
M30
