G75*
%MOIN*%
%OFA0B0*%
%FSLAX25Y25*%
%IPPOS*%
%LPD*%
%AMOC8*
5,1,8,0,0,1.08239X$1,22.5*
%
%ADD10C,0.12800*%
%ADD11R,0.05052X0.04934*%
%ADD12R,0.03556X0.05524*%
%ADD13C,0.06800*%
%ADD14R,0.05524X0.05524*%
%ADD15R,0.05131X0.04737*%
%ADD16R,0.04737X0.05131*%
%ADD17C,0.09461*%
%ADD18C,0.03500*%
%ADD19C,0.05950*%
%ADD20R,0.07690X0.02375*%
%ADD21R,0.10800X0.10800*%
%ADD22C,0.04934*%
%ADD23R,0.06706X0.04343*%
%ADD24R,0.04343X0.06706*%
%ADD25R,0.24422X0.24422*%
%ADD26C,0.03900*%
%ADD27C,0.03778*%
D10*
X0136905Y0025900D03*
D11*
X0043405Y0115955D03*
X0043405Y0122845D03*
D12*
X0035161Y0098306D03*
X0029649Y0098306D03*
X0029649Y0086494D03*
X0035161Y0086494D03*
D13*
X0016405Y0082400D02*
X0010405Y0082400D01*
X0010405Y0092400D02*
X0016405Y0092400D01*
X0016405Y0102400D02*
X0010405Y0102400D01*
D14*
X0142405Y0078034D03*
X0142405Y0069766D03*
D15*
X0033405Y0071054D03*
X0033405Y0077746D03*
D16*
X0039559Y0151400D03*
X0046252Y0151400D03*
D17*
X0043330Y0140197D03*
X0026605Y0116312D03*
X0025605Y0063488D03*
X0042330Y0039603D03*
X0135480Y0038603D03*
X0152205Y0062488D03*
X0154205Y0116312D03*
X0137480Y0140197D03*
D18*
X0031551Y0037837D03*
X0020260Y0053963D03*
X0021260Y0125837D03*
X0032551Y0141963D03*
X0146260Y0036837D03*
X0157551Y0052963D03*
X0159551Y0125837D03*
X0148260Y0141963D03*
D19*
X0105153Y0160012D02*
X0105153Y0165162D01*
X0097279Y0165162D02*
X0097279Y0160012D01*
X0089405Y0160012D02*
X0089405Y0165162D01*
X0081531Y0165162D02*
X0081531Y0160012D01*
X0073657Y0160012D02*
X0073657Y0165162D01*
X0066638Y0036162D02*
X0066638Y0031012D01*
X0058764Y0031012D02*
X0058764Y0036162D01*
X0075657Y0017662D02*
X0075657Y0012512D01*
X0083531Y0012512D02*
X0083531Y0017662D01*
X0091405Y0017662D02*
X0091405Y0012512D01*
X0099279Y0012512D02*
X0099279Y0017662D01*
X0107153Y0017662D02*
X0107153Y0012512D01*
X0112764Y0031012D02*
X0112764Y0036162D01*
X0120638Y0036162D02*
X0120638Y0031012D01*
X0093638Y0031012D02*
X0093638Y0036162D01*
X0085764Y0036162D02*
X0085764Y0031012D01*
D20*
X0157590Y0084782D03*
X0157590Y0087341D03*
X0157590Y0089900D03*
X0157590Y0092459D03*
X0157590Y0095018D03*
D21*
X0168712Y0104565D03*
X0168712Y0075235D03*
D22*
X0156783Y0080353D03*
X0156783Y0099447D03*
D23*
X0125538Y0101715D03*
X0125538Y0106715D03*
X0125538Y0111715D03*
X0125538Y0116715D03*
X0125538Y0121715D03*
X0125538Y0096715D03*
X0125538Y0091715D03*
X0125538Y0086715D03*
X0125538Y0081715D03*
X0125538Y0076715D03*
X0125538Y0071715D03*
X0125538Y0066715D03*
X0125538Y0061715D03*
X0125538Y0056715D03*
X0054672Y0056715D03*
X0054672Y0061715D03*
X0054672Y0066715D03*
X0054672Y0071715D03*
X0054672Y0076715D03*
X0054672Y0081715D03*
X0054672Y0086715D03*
X0054672Y0091715D03*
X0054672Y0096715D03*
X0054672Y0101715D03*
X0054672Y0106715D03*
X0054672Y0111715D03*
X0054672Y0116715D03*
X0054672Y0121715D03*
D24*
X0067605Y0050849D03*
X0072605Y0050849D03*
X0077605Y0050849D03*
X0082605Y0050849D03*
X0087605Y0050849D03*
X0092605Y0050849D03*
X0097605Y0050849D03*
X0102605Y0050849D03*
X0107605Y0050849D03*
X0112605Y0050849D03*
D25*
X0090105Y0091400D03*
D26*
X0102905Y0076900D03*
X0105405Y0073400D03*
X0107405Y0067400D03*
X0112905Y0061400D03*
X0111905Y0043900D03*
X0130405Y0046400D03*
X0137405Y0057400D03*
X0137405Y0061400D03*
X0151905Y0071400D03*
X0148405Y0079400D03*
X0165905Y0084400D03*
X0133405Y0121900D03*
X0118905Y0137900D03*
X0118405Y0143900D03*
X0119905Y0150900D03*
X0126405Y0156400D03*
X0126905Y0162900D03*
X0128905Y0143900D03*
X0105905Y0147400D03*
X0101905Y0133900D03*
X0112905Y0116900D03*
X0109405Y0111400D03*
X0104905Y0092900D03*
X0081405Y0108900D03*
X0075905Y0104900D03*
X0069405Y0101900D03*
X0067905Y0095400D03*
X0069405Y0110400D03*
X0062905Y0132900D03*
X0056905Y0134400D03*
X0062905Y0141900D03*
X0055405Y0145400D03*
X0049905Y0144400D03*
X0052905Y0156400D03*
X0075905Y0147400D03*
X0038405Y0131400D03*
X0015405Y0113400D03*
X0027905Y0074400D03*
X0034905Y0064900D03*
X0039905Y0064900D03*
X0031905Y0058400D03*
X0051405Y0035400D03*
X0041405Y0026900D03*
X0058905Y0018400D03*
X0071905Y0057400D03*
D27*
X0093905Y0069400D03*
X0099905Y0069400D03*
X0073405Y0098400D03*
X0077905Y0115400D03*
X0115405Y0126900D03*
X0140405Y0100900D03*
X0038905Y0069900D03*
X0019405Y0072400D03*
X0036905Y0111900D03*
X0036905Y0117900D03*
M02*
