G75*
%MOIN*%
%OFA0B0*%
%FSLAX25Y25*%
%IPPOS*%
%LPD*%
%AMOC8*
5,1,8,0,0,1.08239X$1,22.5*
%
%ADD10R,0.04252X0.04134*%
%ADD11R,0.02756X0.04724*%
%ADD12R,0.04724X0.04724*%
%ADD13R,0.04331X0.03937*%
%ADD14R,0.03937X0.04331*%
%ADD15R,0.06890X0.01575*%
%ADD16R,0.05906X0.03543*%
%ADD17R,0.03543X0.05906*%
%ADD18R,0.23622X0.23622*%
D10*
X0043405Y0115955D03*
X0043405Y0122845D03*
D11*
X0035161Y0098306D03*
X0029649Y0098306D03*
X0029649Y0086494D03*
X0035161Y0086494D03*
D12*
X0142405Y0078034D03*
X0142405Y0069766D03*
D13*
X0033405Y0071054D03*
X0033405Y0077746D03*
D14*
X0039559Y0151400D03*
X0046252Y0151400D03*
D15*
X0157590Y0095018D03*
X0157590Y0092459D03*
X0157590Y0089900D03*
X0157590Y0087341D03*
X0157590Y0084782D03*
D16*
X0054672Y0056715D03*
X0054672Y0061715D03*
X0054672Y0066715D03*
X0054672Y0071715D03*
X0054672Y0076715D03*
X0054672Y0081715D03*
X0054672Y0086715D03*
X0054672Y0091715D03*
X0054672Y0096715D03*
X0054672Y0101715D03*
X0054672Y0106715D03*
X0054672Y0111715D03*
X0054672Y0116715D03*
X0054672Y0121715D03*
X0125538Y0121715D03*
X0125538Y0116715D03*
X0125538Y0111715D03*
X0125538Y0106715D03*
X0125538Y0101715D03*
X0125538Y0096715D03*
X0125538Y0091715D03*
X0125538Y0086715D03*
X0125538Y0081715D03*
X0125538Y0076715D03*
X0125538Y0071715D03*
X0125538Y0066715D03*
X0125538Y0061715D03*
X0125538Y0056715D03*
D17*
X0112605Y0050849D03*
X0107605Y0050849D03*
X0102605Y0050849D03*
X0097605Y0050849D03*
X0092605Y0050849D03*
X0087605Y0050849D03*
X0082605Y0050849D03*
X0077605Y0050849D03*
X0072605Y0050849D03*
X0067605Y0050849D03*
D18*
X0090105Y0091400D03*
M02*
